%TF.GenerationSoftware,KiCad,Pcbnew,7.0.6-0*%
%TF.CreationDate,2023-09-14T16:40:38+10:00*%
%TF.ProjectId,u-nit-lid,752d6e69-742d-46c6-9964-2e6b69636164,rev?*%
%TF.SameCoordinates,Original*%
%TF.FileFunction,Copper,L2,Bot*%
%TF.FilePolarity,Positive*%
%FSLAX46Y46*%
G04 Gerber Fmt 4.6, Leading zero omitted, Abs format (unit mm)*
G04 Created by KiCad (PCBNEW 7.0.6-0) date 2023-09-14 16:40:38*
%MOMM*%
%LPD*%
G01*
G04 APERTURE LIST*
G04 APERTURE END LIST*
%TA.AperFunction,NonConductor*%
G36*
X185058314Y-52953285D02*
G01*
X185104069Y-53006089D01*
X185115275Y-53057525D01*
X185129107Y-75866490D01*
X185162839Y-131490887D01*
X185165925Y-136578725D01*
X185146281Y-136645776D01*
X185093505Y-136691563D01*
X185041925Y-136702800D01*
X116608711Y-136702800D01*
X116541672Y-136683115D01*
X116495917Y-136630311D01*
X116484711Y-136578490D01*
X116501425Y-129892800D01*
X121633551Y-129892800D01*
X121641275Y-129990944D01*
X121641466Y-129995816D01*
X121641465Y-130009723D01*
X121640312Y-130013645D01*
X121640912Y-130021257D01*
X121642842Y-130027230D01*
X121645021Y-130040978D01*
X121645593Y-130045817D01*
X121649837Y-130099731D01*
X121653317Y-130143948D01*
X121653318Y-130143952D01*
X121653318Y-130143953D01*
X121676293Y-130239655D01*
X121677243Y-130244427D01*
X121679421Y-130258178D01*
X121678896Y-130262237D01*
X121680681Y-130269671D01*
X121683527Y-130275280D01*
X121687827Y-130288516D01*
X121689148Y-130293199D01*
X121712127Y-130388914D01*
X121749797Y-130479855D01*
X121751481Y-130484422D01*
X121755780Y-130497651D01*
X121755897Y-130501741D01*
X121758821Y-130508801D01*
X121762509Y-130513895D01*
X121768819Y-130526280D01*
X121770857Y-130530701D01*
X121808532Y-130621657D01*
X121859976Y-130705607D01*
X121862355Y-130709854D01*
X121868662Y-130722232D01*
X121869418Y-130726258D01*
X121873411Y-130732774D01*
X121877845Y-130737222D01*
X121886027Y-130748483D01*
X121888732Y-130752532D01*
X121930881Y-130821310D01*
X121940164Y-130836459D01*
X121940171Y-130836467D01*
X122004093Y-130911310D01*
X122007107Y-130915133D01*
X122015290Y-130926396D01*
X122016664Y-130930248D01*
X122021626Y-130936057D01*
X122026703Y-130939759D01*
X122036540Y-130949595D01*
X122039839Y-130953163D01*
X122103776Y-131028024D01*
X122178640Y-131091964D01*
X122182201Y-131095256D01*
X122192039Y-131105094D01*
X122193999Y-131108684D01*
X122199803Y-131113641D01*
X122205391Y-131116500D01*
X122205395Y-131116503D01*
X122216662Y-131124689D01*
X122220483Y-131127701D01*
X122295341Y-131191636D01*
X122295343Y-131191637D01*
X122379264Y-131243064D01*
X122383313Y-131245769D01*
X122394575Y-131253952D01*
X122397073Y-131257192D01*
X122403584Y-131261181D01*
X122409562Y-131263135D01*
X122421954Y-131269449D01*
X122426179Y-131271814D01*
X122510141Y-131323266D01*
X122510146Y-131323268D01*
X122601092Y-131360939D01*
X122605516Y-131362978D01*
X122617905Y-131369291D01*
X122620880Y-131372101D01*
X122627929Y-131375021D01*
X122634136Y-131376014D01*
X122647390Y-131380321D01*
X122651919Y-131381992D01*
X122708514Y-131405434D01*
X122742885Y-131419672D01*
X122742886Y-131419673D01*
X122773431Y-131427005D01*
X122838634Y-131442659D01*
X122843265Y-131443965D01*
X122856523Y-131448273D01*
X122859901Y-131450582D01*
X122867329Y-131452365D01*
X122873614Y-131452377D01*
X122887365Y-131454555D01*
X122892141Y-131455505D01*
X122987852Y-131478483D01*
X123086003Y-131486207D01*
X123090817Y-131486778D01*
X123104562Y-131488955D01*
X123108259Y-131490707D01*
X123115872Y-131491307D01*
X123122089Y-131490334D01*
X123135992Y-131490334D01*
X123140858Y-131490525D01*
X123239000Y-131498249D01*
X123337141Y-131490525D01*
X123342008Y-131490334D01*
X123355909Y-131490334D01*
X123359836Y-131491487D01*
X123367457Y-131490887D01*
X123373443Y-131488953D01*
X123387179Y-131486778D01*
X123391978Y-131486209D01*
X123490148Y-131478483D01*
X123585873Y-131455501D01*
X123590632Y-131454555D01*
X123593413Y-131454114D01*
X123604382Y-131452377D01*
X123608441Y-131452901D01*
X123615869Y-131451118D01*
X123621477Y-131448272D01*
X123634734Y-131443965D01*
X123639354Y-131442661D01*
X123735111Y-131419673D01*
X123826098Y-131381984D01*
X123830599Y-131380324D01*
X123843862Y-131376014D01*
X123847947Y-131375898D01*
X123855002Y-131372976D01*
X123860089Y-131369293D01*
X123872500Y-131362969D01*
X123876873Y-131360953D01*
X123967859Y-131323266D01*
X124051814Y-131271817D01*
X124056025Y-131269459D01*
X124068435Y-131263135D01*
X124072458Y-131262380D01*
X124078967Y-131258391D01*
X124083418Y-131253956D01*
X124094674Y-131245777D01*
X124098701Y-131243085D01*
X124182659Y-131191636D01*
X124257532Y-131127688D01*
X124261314Y-131124706D01*
X124272605Y-131116502D01*
X124276450Y-131115131D01*
X124282256Y-131110172D01*
X124285957Y-131105097D01*
X124295810Y-131095244D01*
X124299346Y-131091975D01*
X124374224Y-131028024D01*
X124438175Y-130953146D01*
X124441444Y-130949610D01*
X124451296Y-130939758D01*
X124454883Y-130937799D01*
X124459843Y-130931992D01*
X124462703Y-130926405D01*
X124462710Y-130926396D01*
X124470906Y-130915114D01*
X124473888Y-130911332D01*
X124537836Y-130836459D01*
X124589285Y-130752501D01*
X124591977Y-130748474D01*
X124600156Y-130737218D01*
X124603394Y-130734720D01*
X124607380Y-130728215D01*
X124609336Y-130722235D01*
X124609338Y-130722232D01*
X124615659Y-130709825D01*
X124618022Y-130705607D01*
X124669466Y-130621659D01*
X124707153Y-130530673D01*
X124709169Y-130526300D01*
X124715492Y-130513891D01*
X124718299Y-130510919D01*
X124721220Y-130503868D01*
X124722214Y-130497665D01*
X124726524Y-130484399D01*
X124728184Y-130479898D01*
X124765873Y-130388911D01*
X124766315Y-130387073D01*
X124770088Y-130371351D01*
X124788860Y-130293158D01*
X124790171Y-130288516D01*
X124794474Y-130275272D01*
X124796783Y-130271895D01*
X124798565Y-130264476D01*
X124798577Y-130258182D01*
X124800755Y-130244432D01*
X124801701Y-130239673D01*
X124824683Y-130143948D01*
X124832409Y-130045778D01*
X124832978Y-130040978D01*
X124836534Y-130018529D01*
X124836534Y-130018526D01*
X124837201Y-130014316D01*
X124837201Y-130014310D01*
X124837502Y-130012409D01*
X124836754Y-130007302D01*
X124836979Y-129995816D01*
X124837155Y-129986840D01*
X124837334Y-129983200D01*
X124844449Y-129892800D01*
X124837333Y-129802393D01*
X124837155Y-129798748D01*
X124836979Y-129789790D01*
X124836754Y-129778293D01*
X124837739Y-129774678D01*
X124832978Y-129744617D01*
X124832407Y-129739803D01*
X124824683Y-129641652D01*
X124801705Y-129545940D01*
X124800755Y-129541165D01*
X124798577Y-129527414D01*
X124799101Y-129523358D01*
X124797319Y-129515937D01*
X124794473Y-129510325D01*
X124790165Y-129497065D01*
X124788859Y-129492434D01*
X124773205Y-129427231D01*
X124765873Y-129396686D01*
X124765872Y-129396685D01*
X124751634Y-129362314D01*
X124728192Y-129305719D01*
X124726521Y-129301190D01*
X124722214Y-129287937D01*
X124722098Y-129283847D01*
X124719180Y-129276803D01*
X124715491Y-129271705D01*
X124709178Y-129259316D01*
X124707139Y-129254892D01*
X124669468Y-129163946D01*
X124669466Y-129163941D01*
X124618014Y-129079979D01*
X124615649Y-129075754D01*
X124609335Y-129063362D01*
X124608579Y-129059338D01*
X124604592Y-129052832D01*
X124600152Y-129048375D01*
X124591969Y-129037113D01*
X124589264Y-129033064D01*
X124537837Y-128949143D01*
X124537836Y-128949141D01*
X124473900Y-128874281D01*
X124470889Y-128870462D01*
X124462701Y-128859192D01*
X124461328Y-128855344D01*
X124456378Y-128849548D01*
X124451294Y-128845839D01*
X124441456Y-128836001D01*
X124438164Y-128832440D01*
X124374224Y-128757576D01*
X124299363Y-128693639D01*
X124295795Y-128690340D01*
X124285959Y-128680503D01*
X124283999Y-128676913D01*
X124278196Y-128671957D01*
X124272596Y-128669090D01*
X124261333Y-128660907D01*
X124257510Y-128657893D01*
X124182667Y-128593971D01*
X124182659Y-128593964D01*
X124167510Y-128584681D01*
X124098732Y-128542532D01*
X124094683Y-128539827D01*
X124083422Y-128531645D01*
X124080925Y-128528407D01*
X124074421Y-128524421D01*
X124068438Y-128522465D01*
X124063205Y-128519799D01*
X124056040Y-128516147D01*
X124051800Y-128513772D01*
X123967857Y-128462332D01*
X123876905Y-128424659D01*
X123872486Y-128422622D01*
X123860099Y-128416311D01*
X123857122Y-128413500D01*
X123850064Y-128410576D01*
X123843851Y-128409580D01*
X123830622Y-128405281D01*
X123826055Y-128403597D01*
X123735114Y-128365927D01*
X123639399Y-128342948D01*
X123634716Y-128341627D01*
X123621480Y-128337327D01*
X123618100Y-128335016D01*
X123610673Y-128333233D01*
X123604378Y-128333221D01*
X123590627Y-128331043D01*
X123585855Y-128330093D01*
X123490152Y-128307118D01*
X123490148Y-128307117D01*
X123445931Y-128303637D01*
X123392017Y-128299393D01*
X123387178Y-128298821D01*
X123373430Y-128296642D01*
X123369737Y-128294891D01*
X123362130Y-128294292D01*
X123355912Y-128295266D01*
X123342008Y-128295266D01*
X123337142Y-128295075D01*
X123309834Y-128292925D01*
X123239000Y-128287351D01*
X123238999Y-128287351D01*
X123140858Y-128295075D01*
X123135992Y-128295266D01*
X123122087Y-128295266D01*
X123118158Y-128294112D01*
X123110548Y-128294711D01*
X123104568Y-128296643D01*
X123090819Y-128298821D01*
X123085981Y-128299394D01*
X122987851Y-128307117D01*
X122987845Y-128307118D01*
X122892140Y-128330095D01*
X122887362Y-128331045D01*
X122873608Y-128333223D01*
X122869551Y-128332698D01*
X122862134Y-128334479D01*
X122856529Y-128337323D01*
X122843287Y-128341626D01*
X122838599Y-128342948D01*
X122742892Y-128365925D01*
X122651939Y-128403598D01*
X122647369Y-128405284D01*
X122634139Y-128409583D01*
X122630051Y-128409699D01*
X122622994Y-128412622D01*
X122617900Y-128416310D01*
X122605513Y-128422621D01*
X122601096Y-128424657D01*
X122510141Y-128462334D01*
X122426201Y-128513770D01*
X122421954Y-128516149D01*
X122409564Y-128522462D01*
X122405539Y-128523217D01*
X122399030Y-128527206D01*
X122394579Y-128531643D01*
X122383316Y-128539826D01*
X122379267Y-128542532D01*
X122295339Y-128593965D01*
X122220481Y-128657899D01*
X122216657Y-128660913D01*
X122205398Y-128669093D01*
X122201549Y-128670466D01*
X122195743Y-128675424D01*
X122192040Y-128680502D01*
X122182202Y-128690341D01*
X122178626Y-128693646D01*
X122103775Y-128757575D01*
X122039846Y-128832426D01*
X122036541Y-128836002D01*
X122026702Y-128845840D01*
X122023115Y-128847798D01*
X122018155Y-128853605D01*
X122015293Y-128859198D01*
X122007113Y-128870457D01*
X122004099Y-128874281D01*
X121940165Y-128949139D01*
X121888732Y-129033067D01*
X121886026Y-129037116D01*
X121877843Y-129048379D01*
X121874604Y-129050876D01*
X121870616Y-129057382D01*
X121868662Y-129063364D01*
X121862349Y-129075754D01*
X121859970Y-129080001D01*
X121808534Y-129163941D01*
X121770857Y-129254896D01*
X121768821Y-129259313D01*
X121762510Y-129271700D01*
X121759700Y-129274674D01*
X121756777Y-129281733D01*
X121755783Y-129287939D01*
X121751484Y-129301169D01*
X121749798Y-129305739D01*
X121712125Y-129396692D01*
X121689148Y-129492399D01*
X121687826Y-129497087D01*
X121683523Y-129510329D01*
X121681214Y-129513704D01*
X121679433Y-129521121D01*
X121679423Y-129527408D01*
X121677245Y-129541162D01*
X121676295Y-129545940D01*
X121653318Y-129641645D01*
X121653317Y-129641651D01*
X121645594Y-129739781D01*
X121645021Y-129744619D01*
X121642843Y-129758368D01*
X121641091Y-129762062D01*
X121640492Y-129769672D01*
X121641466Y-129775886D01*
X121641466Y-129789790D01*
X121641275Y-129794656D01*
X121633551Y-129892800D01*
X116501425Y-129892800D01*
X116514499Y-124663199D01*
X121869199Y-124663199D01*
X121869200Y-124663200D01*
X131572000Y-124663200D01*
X131572000Y-124663199D01*
X131570055Y-122833415D01*
X136968529Y-122833415D01*
X136968530Y-122833415D01*
X136968530Y-122833416D01*
X136968531Y-122833416D01*
X141794530Y-122833416D01*
X141794530Y-121615199D01*
X149656800Y-121615199D01*
X149656800Y-121615200D01*
X149656800Y-131013200D01*
X164185600Y-131013200D01*
X164185600Y-129892799D01*
X176483551Y-129892799D01*
X176491275Y-129990942D01*
X176491466Y-129995808D01*
X176491466Y-130009712D01*
X176490312Y-130013640D01*
X176490912Y-130021257D01*
X176492842Y-130027230D01*
X176495021Y-130040978D01*
X176495593Y-130045817D01*
X176499837Y-130099731D01*
X176503317Y-130143948D01*
X176503318Y-130143952D01*
X176503318Y-130143953D01*
X176526293Y-130239655D01*
X176527243Y-130244427D01*
X176529421Y-130258178D01*
X176528896Y-130262237D01*
X176530681Y-130269671D01*
X176533527Y-130275280D01*
X176537827Y-130288516D01*
X176539148Y-130293199D01*
X176562127Y-130388914D01*
X176599797Y-130479855D01*
X176601481Y-130484422D01*
X176605780Y-130497651D01*
X176605897Y-130501741D01*
X176608821Y-130508801D01*
X176612509Y-130513895D01*
X176618819Y-130526280D01*
X176620857Y-130530701D01*
X176658532Y-130621657D01*
X176709976Y-130705607D01*
X176712355Y-130709854D01*
X176718662Y-130722232D01*
X176719418Y-130726258D01*
X176723411Y-130732774D01*
X176727845Y-130737222D01*
X176736027Y-130748483D01*
X176738732Y-130752532D01*
X176780881Y-130821310D01*
X176790164Y-130836459D01*
X176790171Y-130836467D01*
X176854093Y-130911310D01*
X176857107Y-130915133D01*
X176865290Y-130926396D01*
X176866664Y-130930248D01*
X176871626Y-130936057D01*
X176876703Y-130939759D01*
X176886540Y-130949595D01*
X176889839Y-130953163D01*
X176953776Y-131028024D01*
X177028640Y-131091964D01*
X177032201Y-131095256D01*
X177042039Y-131105094D01*
X177043999Y-131108684D01*
X177049803Y-131113641D01*
X177055391Y-131116500D01*
X177055395Y-131116503D01*
X177066662Y-131124689D01*
X177070483Y-131127701D01*
X177145341Y-131191636D01*
X177145343Y-131191637D01*
X177229264Y-131243064D01*
X177233313Y-131245769D01*
X177244575Y-131253952D01*
X177247073Y-131257192D01*
X177253584Y-131261181D01*
X177259562Y-131263135D01*
X177271954Y-131269449D01*
X177276179Y-131271814D01*
X177360141Y-131323266D01*
X177360146Y-131323268D01*
X177451092Y-131360939D01*
X177455516Y-131362978D01*
X177467905Y-131369291D01*
X177470880Y-131372101D01*
X177477929Y-131375021D01*
X177484136Y-131376014D01*
X177497390Y-131380321D01*
X177501919Y-131381992D01*
X177558514Y-131405434D01*
X177592885Y-131419672D01*
X177592886Y-131419673D01*
X177623431Y-131427005D01*
X177688634Y-131442659D01*
X177693265Y-131443965D01*
X177706523Y-131448273D01*
X177709901Y-131450582D01*
X177717329Y-131452365D01*
X177723614Y-131452377D01*
X177737365Y-131454555D01*
X177742141Y-131455505D01*
X177837852Y-131478483D01*
X177936003Y-131486207D01*
X177940817Y-131486778D01*
X177954562Y-131488955D01*
X177958259Y-131490707D01*
X177965872Y-131491307D01*
X177972089Y-131490334D01*
X177985992Y-131490334D01*
X177990858Y-131490525D01*
X178089000Y-131498249D01*
X178187141Y-131490525D01*
X178192008Y-131490334D01*
X178205909Y-131490334D01*
X178209836Y-131491487D01*
X178217457Y-131490887D01*
X178223443Y-131488953D01*
X178237179Y-131486778D01*
X178241978Y-131486209D01*
X178340148Y-131478483D01*
X178435873Y-131455501D01*
X178440632Y-131454555D01*
X178443413Y-131454114D01*
X178454382Y-131452377D01*
X178458441Y-131452901D01*
X178465869Y-131451118D01*
X178471477Y-131448272D01*
X178484734Y-131443965D01*
X178489354Y-131442661D01*
X178585111Y-131419673D01*
X178676098Y-131381984D01*
X178680599Y-131380324D01*
X178693862Y-131376014D01*
X178697947Y-131375898D01*
X178705002Y-131372976D01*
X178710089Y-131369293D01*
X178722500Y-131362969D01*
X178726873Y-131360953D01*
X178817859Y-131323266D01*
X178901814Y-131271817D01*
X178906025Y-131269459D01*
X178918435Y-131263135D01*
X178922458Y-131262380D01*
X178928967Y-131258391D01*
X178933418Y-131253956D01*
X178944674Y-131245777D01*
X178948701Y-131243085D01*
X179032659Y-131191636D01*
X179107532Y-131127688D01*
X179111314Y-131124706D01*
X179122605Y-131116502D01*
X179126450Y-131115131D01*
X179132256Y-131110172D01*
X179135957Y-131105097D01*
X179145810Y-131095244D01*
X179149346Y-131091975D01*
X179224224Y-131028024D01*
X179288175Y-130953146D01*
X179291444Y-130949610D01*
X179301296Y-130939758D01*
X179304883Y-130937799D01*
X179309843Y-130931992D01*
X179312703Y-130926405D01*
X179312710Y-130926396D01*
X179320906Y-130915114D01*
X179323888Y-130911332D01*
X179387836Y-130836459D01*
X179439285Y-130752501D01*
X179441977Y-130748474D01*
X179450156Y-130737218D01*
X179453394Y-130734720D01*
X179457380Y-130728215D01*
X179459336Y-130722235D01*
X179459338Y-130722232D01*
X179465659Y-130709825D01*
X179468022Y-130705607D01*
X179519466Y-130621659D01*
X179557153Y-130530673D01*
X179559169Y-130526300D01*
X179565492Y-130513891D01*
X179568299Y-130510919D01*
X179571220Y-130503868D01*
X179572214Y-130497665D01*
X179576524Y-130484399D01*
X179578184Y-130479898D01*
X179615873Y-130388911D01*
X179616315Y-130387073D01*
X179620088Y-130371351D01*
X179638860Y-130293158D01*
X179640171Y-130288516D01*
X179644474Y-130275272D01*
X179646783Y-130271895D01*
X179648565Y-130264476D01*
X179648577Y-130258182D01*
X179650755Y-130244432D01*
X179651701Y-130239673D01*
X179674683Y-130143948D01*
X179682409Y-130045778D01*
X179682978Y-130040978D01*
X179686534Y-130018529D01*
X179686534Y-130018526D01*
X179687201Y-130014316D01*
X179687201Y-130014310D01*
X179687502Y-130012409D01*
X179686754Y-130007302D01*
X179686979Y-129995816D01*
X179687155Y-129986840D01*
X179687334Y-129983200D01*
X179694449Y-129892800D01*
X179687333Y-129802393D01*
X179687155Y-129798748D01*
X179686979Y-129789790D01*
X179686754Y-129778293D01*
X179687739Y-129774678D01*
X179682978Y-129744617D01*
X179682407Y-129739803D01*
X179674683Y-129641652D01*
X179651705Y-129545940D01*
X179650755Y-129541165D01*
X179648577Y-129527414D01*
X179649101Y-129523358D01*
X179647319Y-129515937D01*
X179644473Y-129510325D01*
X179640165Y-129497065D01*
X179638859Y-129492434D01*
X179623205Y-129427231D01*
X179615873Y-129396686D01*
X179615872Y-129396685D01*
X179601634Y-129362314D01*
X179578192Y-129305719D01*
X179576521Y-129301190D01*
X179572214Y-129287937D01*
X179572098Y-129283847D01*
X179569180Y-129276803D01*
X179565491Y-129271705D01*
X179559178Y-129259316D01*
X179557139Y-129254892D01*
X179519468Y-129163946D01*
X179519466Y-129163941D01*
X179468014Y-129079979D01*
X179465649Y-129075754D01*
X179459335Y-129063362D01*
X179458579Y-129059338D01*
X179454592Y-129052832D01*
X179450152Y-129048375D01*
X179441969Y-129037113D01*
X179439264Y-129033064D01*
X179387837Y-128949143D01*
X179387836Y-128949141D01*
X179323900Y-128874281D01*
X179320889Y-128870462D01*
X179312701Y-128859192D01*
X179311328Y-128855344D01*
X179306378Y-128849548D01*
X179301294Y-128845839D01*
X179291456Y-128836001D01*
X179288164Y-128832440D01*
X179224224Y-128757576D01*
X179149363Y-128693639D01*
X179145795Y-128690340D01*
X179135959Y-128680503D01*
X179133999Y-128676913D01*
X179128196Y-128671957D01*
X179122596Y-128669090D01*
X179111333Y-128660907D01*
X179107510Y-128657893D01*
X179032667Y-128593971D01*
X179032659Y-128593964D01*
X179017510Y-128584681D01*
X178948732Y-128542532D01*
X178944683Y-128539827D01*
X178933422Y-128531645D01*
X178930925Y-128528407D01*
X178924421Y-128524421D01*
X178918438Y-128522465D01*
X178913205Y-128519799D01*
X178906040Y-128516147D01*
X178901800Y-128513772D01*
X178817857Y-128462332D01*
X178726905Y-128424659D01*
X178722486Y-128422622D01*
X178710099Y-128416311D01*
X178707122Y-128413500D01*
X178700064Y-128410576D01*
X178693851Y-128409580D01*
X178680622Y-128405281D01*
X178676055Y-128403597D01*
X178585114Y-128365927D01*
X178489399Y-128342948D01*
X178484716Y-128341627D01*
X178471480Y-128337327D01*
X178468100Y-128335016D01*
X178460673Y-128333233D01*
X178454378Y-128333221D01*
X178440627Y-128331043D01*
X178435855Y-128330093D01*
X178340152Y-128307118D01*
X178340148Y-128307117D01*
X178295931Y-128303637D01*
X178242017Y-128299393D01*
X178237178Y-128298821D01*
X178223430Y-128296642D01*
X178219737Y-128294891D01*
X178212130Y-128294292D01*
X178205912Y-128295266D01*
X178192008Y-128295266D01*
X178187142Y-128295075D01*
X178089000Y-128287351D01*
X177990858Y-128295075D01*
X177985992Y-128295266D01*
X177972087Y-128295266D01*
X177968158Y-128294112D01*
X177960548Y-128294711D01*
X177954568Y-128296643D01*
X177940819Y-128298821D01*
X177935981Y-128299394D01*
X177837851Y-128307117D01*
X177837845Y-128307118D01*
X177742140Y-128330095D01*
X177737362Y-128331045D01*
X177723608Y-128333223D01*
X177719551Y-128332698D01*
X177712134Y-128334479D01*
X177706529Y-128337323D01*
X177693287Y-128341626D01*
X177688599Y-128342948D01*
X177592892Y-128365925D01*
X177501939Y-128403598D01*
X177497369Y-128405284D01*
X177484139Y-128409583D01*
X177480051Y-128409699D01*
X177472994Y-128412622D01*
X177467900Y-128416310D01*
X177455513Y-128422621D01*
X177451096Y-128424657D01*
X177360141Y-128462334D01*
X177276201Y-128513770D01*
X177271954Y-128516149D01*
X177259564Y-128522462D01*
X177255539Y-128523217D01*
X177249030Y-128527206D01*
X177244579Y-128531643D01*
X177233316Y-128539826D01*
X177229267Y-128542532D01*
X177145339Y-128593965D01*
X177070481Y-128657899D01*
X177066657Y-128660913D01*
X177055398Y-128669093D01*
X177051549Y-128670466D01*
X177045743Y-128675424D01*
X177042040Y-128680502D01*
X177032202Y-128690341D01*
X177028626Y-128693646D01*
X176953775Y-128757575D01*
X176889846Y-128832426D01*
X176886541Y-128836002D01*
X176876702Y-128845840D01*
X176873115Y-128847798D01*
X176868155Y-128853605D01*
X176865293Y-128859198D01*
X176857113Y-128870457D01*
X176854099Y-128874281D01*
X176790165Y-128949139D01*
X176738732Y-129033067D01*
X176736026Y-129037116D01*
X176727843Y-129048379D01*
X176724604Y-129050876D01*
X176720616Y-129057382D01*
X176718662Y-129063364D01*
X176712349Y-129075754D01*
X176709970Y-129080001D01*
X176658534Y-129163941D01*
X176620857Y-129254896D01*
X176618821Y-129259313D01*
X176612510Y-129271700D01*
X176609700Y-129274674D01*
X176606777Y-129281733D01*
X176605783Y-129287939D01*
X176601484Y-129301169D01*
X176599798Y-129305739D01*
X176562125Y-129396692D01*
X176539148Y-129492399D01*
X176537826Y-129497087D01*
X176533523Y-129510329D01*
X176531214Y-129513704D01*
X176529433Y-129521121D01*
X176529423Y-129527408D01*
X176527245Y-129541162D01*
X176526295Y-129545940D01*
X176503318Y-129641645D01*
X176503317Y-129641651D01*
X176495594Y-129739781D01*
X176495021Y-129744619D01*
X176492843Y-129758368D01*
X176491091Y-129762062D01*
X176490492Y-129769672D01*
X176491466Y-129775886D01*
X176491466Y-129789790D01*
X176491275Y-129794656D01*
X176483551Y-129892799D01*
X164185600Y-129892799D01*
X164185600Y-121716800D01*
X164185599Y-121716799D01*
X149656800Y-121615199D01*
X141794530Y-121615199D01*
X141794530Y-119842800D01*
X171683592Y-119842800D01*
X171691274Y-119945322D01*
X171691447Y-119949936D01*
X171691447Y-119968518D01*
X171690578Y-119971475D01*
X171690803Y-119974469D01*
X171692226Y-119978944D01*
X171694997Y-119997325D01*
X171695516Y-120001933D01*
X171703198Y-120104431D01*
X171726070Y-120204638D01*
X171726932Y-120209196D01*
X171729703Y-120227578D01*
X171729284Y-120230633D01*
X171729950Y-120233551D01*
X171732026Y-120237767D01*
X171737512Y-120255551D01*
X171738712Y-120260030D01*
X171761578Y-120360211D01*
X171761579Y-120360213D01*
X171761580Y-120360216D01*
X171799137Y-120455911D01*
X171800665Y-120460277D01*
X171806143Y-120478037D01*
X171806184Y-120481113D01*
X171807281Y-120483907D01*
X171809961Y-120487765D01*
X171812977Y-120494029D01*
X171818025Y-120504512D01*
X171819879Y-120508761D01*
X171857431Y-120604441D01*
X171857433Y-120604445D01*
X171908823Y-120693455D01*
X171910991Y-120697556D01*
X171919056Y-120714303D01*
X171919556Y-120717340D01*
X171921057Y-120719941D01*
X171924282Y-120723356D01*
X171934751Y-120738710D01*
X171937218Y-120742637D01*
X171988613Y-120831655D01*
X171988619Y-120831664D01*
X172020340Y-120871440D01*
X172052701Y-120912019D01*
X172055449Y-120915744D01*
X172065927Y-120931112D01*
X172066874Y-120934043D01*
X172068737Y-120936379D01*
X172072435Y-120939275D01*
X172085093Y-120952917D01*
X172088119Y-120956433D01*
X172152194Y-121036780D01*
X172152203Y-121036789D01*
X172227543Y-121106694D01*
X172230819Y-121109969D01*
X172243461Y-121123594D01*
X172244833Y-121126346D01*
X172247039Y-121128393D01*
X172251120Y-121130702D01*
X172265653Y-121142291D01*
X172269162Y-121145310D01*
X172301635Y-121175440D01*
X172344518Y-121215231D01*
X172344523Y-121215235D01*
X172429444Y-121273133D01*
X172433176Y-121275887D01*
X172447712Y-121287480D01*
X172449479Y-121289998D01*
X172451947Y-121291680D01*
X172456338Y-121293360D01*
X172471144Y-121301908D01*
X172472447Y-121302661D01*
X172476354Y-121305115D01*
X172553791Y-121357911D01*
X172561293Y-121363026D01*
X172561303Y-121363032D01*
X172653894Y-121407621D01*
X172657994Y-121409787D01*
X172674098Y-121419085D01*
X172676223Y-121421314D01*
X172678920Y-121422613D01*
X172683518Y-121423621D01*
X172700838Y-121430420D01*
X172705083Y-121432272D01*
X172797677Y-121476863D01*
X172797687Y-121476866D01*
X172797692Y-121476868D01*
X172820318Y-121483846D01*
X172895922Y-121507167D01*
X172900253Y-121508683D01*
X172917583Y-121515485D01*
X172917586Y-121515486D01*
X172920015Y-121517369D01*
X172922877Y-121518252D01*
X172927565Y-121518564D01*
X172936517Y-121520607D01*
X172939458Y-121521277D01*
X172945703Y-121522703D01*
X172950159Y-121523897D01*
X173048385Y-121554196D01*
X173048388Y-121554196D01*
X173048390Y-121554197D01*
X173063527Y-121556478D01*
X173150050Y-121569519D01*
X173154548Y-121570370D01*
X173172705Y-121574514D01*
X173175391Y-121576017D01*
X173178346Y-121576462D01*
X173183026Y-121576071D01*
X173187562Y-121576410D01*
X173201586Y-121577461D01*
X173206144Y-121577974D01*
X173307818Y-121593300D01*
X173307824Y-121593300D01*
X173410608Y-121593300D01*
X173415225Y-121593472D01*
X173431019Y-121594655D01*
X173433781Y-121594863D01*
X173436660Y-121595948D01*
X173439645Y-121595948D01*
X173444219Y-121594863D01*
X173446980Y-121594655D01*
X173462774Y-121593472D01*
X173467392Y-121593300D01*
X173570176Y-121593300D01*
X173570182Y-121593300D01*
X173671858Y-121577974D01*
X173676416Y-121577461D01*
X173694970Y-121576071D01*
X173697978Y-121576714D01*
X173700943Y-121576267D01*
X173705308Y-121574511D01*
X173723469Y-121570366D01*
X173727919Y-121569524D01*
X173829615Y-121554196D01*
X173927858Y-121523892D01*
X173932296Y-121522703D01*
X173949613Y-121518751D01*
X173950437Y-121518563D01*
X173953505Y-121518751D01*
X173956368Y-121517868D01*
X173960411Y-121515486D01*
X173977750Y-121508682D01*
X173982074Y-121507168D01*
X174080323Y-121476863D01*
X174172938Y-121432261D01*
X174177169Y-121430416D01*
X174194491Y-121423618D01*
X174197555Y-121423346D01*
X174200239Y-121422054D01*
X174203891Y-121419090D01*
X174220033Y-121409770D01*
X174224073Y-121407636D01*
X174316704Y-121363028D01*
X174401668Y-121305100D01*
X174405527Y-121302675D01*
X174421661Y-121293360D01*
X174424652Y-121292635D01*
X174427117Y-121290954D01*
X174430285Y-121287481D01*
X174444823Y-121275887D01*
X174444836Y-121275876D01*
X174448529Y-121273150D01*
X174533479Y-121215233D01*
X174608865Y-121145284D01*
X174612294Y-121142332D01*
X174626881Y-121130700D01*
X174629722Y-121129540D01*
X174631922Y-121127499D01*
X174634530Y-121123603D01*
X174647204Y-121109943D01*
X174650421Y-121106726D01*
X174725805Y-121036781D01*
X174789909Y-120956396D01*
X174792904Y-120952917D01*
X174797198Y-120948288D01*
X174805564Y-120939274D01*
X174808208Y-120937699D01*
X174810065Y-120935369D01*
X174812073Y-120931110D01*
X174822554Y-120915737D01*
X174825279Y-120912044D01*
X174889386Y-120831657D01*
X174940800Y-120742604D01*
X174943229Y-120738739D01*
X174953717Y-120723355D01*
X174956096Y-120721404D01*
X174957593Y-120718812D01*
X174958940Y-120714310D01*
X174967020Y-120697531D01*
X174969150Y-120693500D01*
X175020568Y-120604443D01*
X175058129Y-120508737D01*
X175059958Y-120504543D01*
X175068040Y-120487762D01*
X175070099Y-120485481D01*
X175071195Y-120482687D01*
X175071857Y-120478037D01*
X175077344Y-120460249D01*
X175078861Y-120455914D01*
X175116420Y-120360216D01*
X175139298Y-120259981D01*
X175140486Y-120255548D01*
X175145975Y-120237759D01*
X175147672Y-120235195D01*
X175148335Y-120232289D01*
X175148296Y-120227580D01*
X175151071Y-120209170D01*
X175151924Y-120204663D01*
X175174802Y-120104430D01*
X175182485Y-120001902D01*
X175182997Y-119997348D01*
X175186553Y-119973761D01*
X175186553Y-119973754D01*
X175187190Y-119969529D01*
X175186694Y-119966215D01*
X175186695Y-119966138D01*
X175187171Y-119940640D01*
X175187331Y-119937227D01*
X175194408Y-119842800D01*
X175187332Y-119748375D01*
X175187171Y-119744956D01*
X175186693Y-119719383D01*
X175187336Y-119717035D01*
X175186192Y-119709445D01*
X175182998Y-119688257D01*
X175182484Y-119683691D01*
X175174802Y-119581170D01*
X175151925Y-119480941D01*
X175151067Y-119476404D01*
X175151067Y-119476402D01*
X175148296Y-119458020D01*
X175148714Y-119454968D01*
X175148048Y-119452053D01*
X175145972Y-119447831D01*
X175140484Y-119430041D01*
X175139286Y-119425567D01*
X175116420Y-119325384D01*
X175078862Y-119229687D01*
X175077348Y-119225365D01*
X175071856Y-119207562D01*
X175071815Y-119204487D01*
X175070707Y-119201665D01*
X175068015Y-119197785D01*
X175067682Y-119197094D01*
X175059970Y-119181080D01*
X175058117Y-119176830D01*
X175020569Y-119081159D01*
X175020563Y-119081148D01*
X174969155Y-118992108D01*
X174967016Y-118988059D01*
X174958940Y-118971289D01*
X174958440Y-118968254D01*
X174956943Y-118965661D01*
X174953718Y-118962243D01*
X174943245Y-118946883D01*
X174940782Y-118942963D01*
X174889386Y-118853943D01*
X174825297Y-118773579D01*
X174822549Y-118769854D01*
X174812072Y-118754487D01*
X174811123Y-118751555D01*
X174809265Y-118749224D01*
X174805564Y-118746324D01*
X174792899Y-118732676D01*
X174789888Y-118729177D01*
X174725805Y-118648819D01*
X174725801Y-118648815D01*
X174725796Y-118648810D01*
X174650454Y-118578903D01*
X174647173Y-118575622D01*
X174634531Y-118561996D01*
X174633161Y-118559249D01*
X174630967Y-118557212D01*
X174626879Y-118554898D01*
X174612335Y-118543299D01*
X174608848Y-118540299D01*
X174533479Y-118470367D01*
X174533473Y-118470363D01*
X174448569Y-118412476D01*
X174444837Y-118409722D01*
X174430285Y-118398117D01*
X174428518Y-118395599D01*
X174426054Y-118393920D01*
X174421659Y-118392238D01*
X174405563Y-118382945D01*
X174401636Y-118380477D01*
X174316704Y-118322572D01*
X174316700Y-118322570D01*
X174224095Y-118277973D01*
X174219995Y-118275806D01*
X174203899Y-118266513D01*
X174201773Y-118264283D01*
X174199086Y-118262989D01*
X174194489Y-118261980D01*
X174177169Y-118255183D01*
X174172918Y-118253328D01*
X174145891Y-118240313D01*
X174080323Y-118208737D01*
X174080318Y-118208735D01*
X174080312Y-118208733D01*
X173982103Y-118178439D01*
X173977726Y-118176908D01*
X173960414Y-118170114D01*
X173957983Y-118168229D01*
X173955127Y-118167348D01*
X173950434Y-118167036D01*
X173936494Y-118163854D01*
X173932309Y-118162899D01*
X173927831Y-118161699D01*
X173829623Y-118131406D01*
X173829619Y-118131405D01*
X173829617Y-118131404D01*
X173829615Y-118131404D01*
X173795438Y-118126252D01*
X173727974Y-118116083D01*
X173723422Y-118115222D01*
X173721753Y-118114841D01*
X173718124Y-118114013D01*
X173705285Y-118111082D01*
X173702599Y-118109579D01*
X173699654Y-118109135D01*
X173694970Y-118109526D01*
X173676407Y-118108135D01*
X173671799Y-118107616D01*
X173570189Y-118092300D01*
X173570182Y-118092300D01*
X173467378Y-118092300D01*
X173462740Y-118092126D01*
X173444222Y-118090738D01*
X173441346Y-118089654D01*
X173438346Y-118089654D01*
X173433777Y-118090738D01*
X173415260Y-118092126D01*
X173410622Y-118092300D01*
X173307808Y-118092300D01*
X173206198Y-118107616D01*
X173201590Y-118108135D01*
X173183027Y-118109526D01*
X173180020Y-118108882D01*
X173177073Y-118109326D01*
X173172706Y-118111083D01*
X173154582Y-118115221D01*
X173150025Y-118116083D01*
X173048378Y-118131405D01*
X173048375Y-118131406D01*
X172950171Y-118161698D01*
X172945692Y-118162898D01*
X172928866Y-118166738D01*
X172927613Y-118167025D01*
X172924526Y-118166837D01*
X172921637Y-118167728D01*
X172917586Y-118170113D01*
X172900272Y-118176908D01*
X172895895Y-118178440D01*
X172812666Y-118204113D01*
X172797684Y-118208735D01*
X172797671Y-118208739D01*
X172797665Y-118208741D01*
X172705073Y-118253330D01*
X172700820Y-118255186D01*
X172683504Y-118261981D01*
X172680442Y-118262252D01*
X172677754Y-118263546D01*
X172674098Y-118266514D01*
X172657996Y-118275809D01*
X172653898Y-118277975D01*
X172561300Y-118322569D01*
X172561288Y-118322576D01*
X172476366Y-118380475D01*
X172472438Y-118382943D01*
X172456336Y-118392239D01*
X172453344Y-118392964D01*
X172450881Y-118394643D01*
X172447717Y-118398113D01*
X172433171Y-118409715D01*
X172429437Y-118412470D01*
X172344525Y-118470363D01*
X172344524Y-118470364D01*
X172269172Y-118540278D01*
X172265662Y-118543299D01*
X172251133Y-118554888D01*
X172248282Y-118556052D01*
X172246081Y-118558094D01*
X172243468Y-118561998D01*
X172230833Y-118575615D01*
X172227553Y-118578895D01*
X172152197Y-118648815D01*
X172152193Y-118648820D01*
X172088120Y-118729164D01*
X172085096Y-118732678D01*
X172072438Y-118746320D01*
X172069793Y-118747894D01*
X172067931Y-118750230D01*
X172065925Y-118754489D01*
X172055439Y-118769868D01*
X172052686Y-118773599D01*
X171988614Y-118853941D01*
X171937217Y-118942961D01*
X171934760Y-118946873D01*
X171930714Y-118952811D01*
X171924278Y-118962249D01*
X171921898Y-118964199D01*
X171920403Y-118966790D01*
X171919057Y-118971291D01*
X171910991Y-118988042D01*
X171908823Y-118992144D01*
X171857435Y-119081148D01*
X171857433Y-119081154D01*
X171819879Y-119176835D01*
X171818026Y-119181082D01*
X171809963Y-119197828D01*
X171807900Y-119200112D01*
X171806803Y-119202906D01*
X171806142Y-119207565D01*
X171800661Y-119225331D01*
X171799130Y-119229708D01*
X171761580Y-119325384D01*
X171738713Y-119425567D01*
X171737512Y-119430046D01*
X171732026Y-119447833D01*
X171730327Y-119450397D01*
X171729662Y-119453313D01*
X171729703Y-119458021D01*
X171726932Y-119476402D01*
X171726070Y-119480958D01*
X171703199Y-119581163D01*
X171703197Y-119581173D01*
X171695516Y-119683667D01*
X171694996Y-119688277D01*
X171692226Y-119706656D01*
X171690929Y-119709445D01*
X171690705Y-119712433D01*
X171691447Y-119717080D01*
X171691447Y-119735662D01*
X171691274Y-119740279D01*
X171683592Y-119842800D01*
X141794530Y-119842800D01*
X141794530Y-108304616D01*
X137070130Y-108304616D01*
X136968529Y-122833415D01*
X131570055Y-122833415D01*
X131551647Y-105511600D01*
X154837416Y-105511600D01*
X154837416Y-110236000D01*
X169367200Y-110185200D01*
X169366216Y-105511600D01*
X154837416Y-105511600D01*
X131551647Y-105511600D01*
X131539285Y-93878400D01*
X169875200Y-93878400D01*
X169875200Y-108407200D01*
X179171600Y-108407200D01*
X179273200Y-93878400D01*
X169875200Y-93878400D01*
X131539285Y-93878400D01*
X131534912Y-89763600D01*
X142748000Y-89763600D01*
X179273200Y-89763600D01*
X179273200Y-80365601D01*
X179273200Y-80365600D01*
X179273199Y-80365600D01*
X142798800Y-80416400D01*
X142748000Y-80416400D01*
X142748000Y-89763600D01*
X131534912Y-89763600D01*
X131521200Y-76860400D01*
X121920000Y-76860400D01*
X121869199Y-124663199D01*
X116514499Y-124663199D01*
X116636491Y-75866490D01*
X116656343Y-75799500D01*
X116709262Y-75753877D01*
X116760491Y-75742800D01*
X132181600Y-75742800D01*
X132181600Y-62585600D01*
X116913200Y-62585600D01*
X116846161Y-62565915D01*
X116800406Y-62513111D01*
X116789200Y-62461600D01*
X116789200Y-60042999D01*
X121533551Y-60042999D01*
X121541275Y-60141142D01*
X121541466Y-60146008D01*
X121541466Y-60159912D01*
X121540312Y-60163840D01*
X121540912Y-60171457D01*
X121542842Y-60177430D01*
X121545021Y-60191178D01*
X121545593Y-60196017D01*
X121549837Y-60249931D01*
X121553317Y-60294148D01*
X121553318Y-60294152D01*
X121553318Y-60294153D01*
X121576293Y-60389855D01*
X121577243Y-60394627D01*
X121579421Y-60408378D01*
X121578896Y-60412437D01*
X121580681Y-60419871D01*
X121583527Y-60425480D01*
X121587827Y-60438716D01*
X121589148Y-60443399D01*
X121612127Y-60539114D01*
X121649797Y-60630055D01*
X121651481Y-60634622D01*
X121655780Y-60647851D01*
X121655897Y-60651941D01*
X121658821Y-60659001D01*
X121662509Y-60664095D01*
X121668819Y-60676480D01*
X121670857Y-60680901D01*
X121708532Y-60771857D01*
X121759976Y-60855807D01*
X121762355Y-60860054D01*
X121768662Y-60872432D01*
X121769418Y-60876458D01*
X121773411Y-60882974D01*
X121777845Y-60887422D01*
X121786027Y-60898683D01*
X121788732Y-60902732D01*
X121830881Y-60971510D01*
X121840164Y-60986659D01*
X121840171Y-60986667D01*
X121904093Y-61061510D01*
X121907107Y-61065333D01*
X121915290Y-61076596D01*
X121916664Y-61080448D01*
X121921626Y-61086257D01*
X121926703Y-61089959D01*
X121936540Y-61099795D01*
X121939839Y-61103363D01*
X122003776Y-61178224D01*
X122078640Y-61242164D01*
X122082201Y-61245456D01*
X122092039Y-61255294D01*
X122093999Y-61258884D01*
X122099803Y-61263841D01*
X122105391Y-61266700D01*
X122105395Y-61266703D01*
X122116662Y-61274889D01*
X122120483Y-61277901D01*
X122195341Y-61341836D01*
X122195343Y-61341837D01*
X122279264Y-61393264D01*
X122283313Y-61395969D01*
X122294575Y-61404152D01*
X122297073Y-61407392D01*
X122303584Y-61411381D01*
X122309562Y-61413335D01*
X122321954Y-61419649D01*
X122326179Y-61422014D01*
X122410141Y-61473466D01*
X122410146Y-61473468D01*
X122501092Y-61511139D01*
X122505516Y-61513178D01*
X122517905Y-61519491D01*
X122520880Y-61522301D01*
X122527929Y-61525221D01*
X122534136Y-61526214D01*
X122547390Y-61530521D01*
X122551919Y-61532192D01*
X122608514Y-61555634D01*
X122642885Y-61569872D01*
X122642886Y-61569873D01*
X122673431Y-61577205D01*
X122738634Y-61592859D01*
X122743265Y-61594165D01*
X122756523Y-61598473D01*
X122759901Y-61600782D01*
X122767329Y-61602565D01*
X122773614Y-61602577D01*
X122787365Y-61604755D01*
X122792141Y-61605705D01*
X122887852Y-61628683D01*
X122986003Y-61636407D01*
X122990817Y-61636978D01*
X123004562Y-61639155D01*
X123008259Y-61640907D01*
X123015872Y-61641507D01*
X123022089Y-61640534D01*
X123035992Y-61640534D01*
X123040858Y-61640725D01*
X123139000Y-61648449D01*
X123237141Y-61640725D01*
X123242008Y-61640534D01*
X123255909Y-61640534D01*
X123259836Y-61641687D01*
X123267457Y-61641087D01*
X123273443Y-61639153D01*
X123287179Y-61636978D01*
X123291978Y-61636409D01*
X123390148Y-61628683D01*
X123485873Y-61605701D01*
X123490632Y-61604755D01*
X123493413Y-61604314D01*
X123504382Y-61602577D01*
X123508441Y-61603101D01*
X123515869Y-61601318D01*
X123521477Y-61598472D01*
X123534734Y-61594165D01*
X123539354Y-61592861D01*
X123635111Y-61569873D01*
X123726098Y-61532184D01*
X123730599Y-61530524D01*
X123743862Y-61526214D01*
X123747947Y-61526098D01*
X123755002Y-61523176D01*
X123760089Y-61519493D01*
X123772500Y-61513169D01*
X123776873Y-61511153D01*
X123867859Y-61473466D01*
X123951814Y-61422017D01*
X123956025Y-61419659D01*
X123968435Y-61413335D01*
X123972458Y-61412580D01*
X123978967Y-61408591D01*
X123983418Y-61404156D01*
X123994674Y-61395977D01*
X123998701Y-61393285D01*
X124082659Y-61341836D01*
X124157532Y-61277888D01*
X124161314Y-61274906D01*
X124172605Y-61266702D01*
X124176450Y-61265331D01*
X124182256Y-61260372D01*
X124185957Y-61255297D01*
X124195810Y-61245444D01*
X124199346Y-61242175D01*
X124274224Y-61178224D01*
X124338175Y-61103346D01*
X124341444Y-61099810D01*
X124351296Y-61089958D01*
X124354883Y-61087999D01*
X124359843Y-61082192D01*
X124362703Y-61076605D01*
X124362710Y-61076596D01*
X124370906Y-61065314D01*
X124373888Y-61061532D01*
X124437836Y-60986659D01*
X124489285Y-60902701D01*
X124491977Y-60898674D01*
X124500156Y-60887418D01*
X124503394Y-60884920D01*
X124507380Y-60878415D01*
X124509336Y-60872435D01*
X124509338Y-60872432D01*
X124515659Y-60860025D01*
X124518022Y-60855807D01*
X124569466Y-60771859D01*
X124607153Y-60680873D01*
X124609169Y-60676500D01*
X124615492Y-60664091D01*
X124618299Y-60661119D01*
X124621220Y-60654068D01*
X124622214Y-60647865D01*
X124626524Y-60634599D01*
X124628184Y-60630098D01*
X124665873Y-60539111D01*
X124666315Y-60537273D01*
X124670088Y-60521551D01*
X124688860Y-60443358D01*
X124690171Y-60438716D01*
X124694474Y-60425472D01*
X124696783Y-60422095D01*
X124698565Y-60414676D01*
X124698577Y-60408382D01*
X124700755Y-60394632D01*
X124701701Y-60389873D01*
X124724683Y-60294148D01*
X124732409Y-60195978D01*
X124732978Y-60191178D01*
X124736534Y-60168729D01*
X124736534Y-60168726D01*
X124737201Y-60164516D01*
X124737201Y-60164510D01*
X124737502Y-60162609D01*
X124736754Y-60157502D01*
X124737155Y-60137040D01*
X124737334Y-60133400D01*
X124744449Y-60043000D01*
X124737333Y-59952593D01*
X124737155Y-59948948D01*
X124736979Y-59939990D01*
X124736754Y-59928493D01*
X124737739Y-59924878D01*
X124732978Y-59894817D01*
X124732407Y-59890003D01*
X124724683Y-59791852D01*
X124701705Y-59696140D01*
X124700755Y-59691365D01*
X124698577Y-59677614D01*
X124699101Y-59673558D01*
X124697319Y-59666137D01*
X124694473Y-59660525D01*
X124690165Y-59647265D01*
X124688859Y-59642634D01*
X124673205Y-59577431D01*
X124665873Y-59546886D01*
X124665872Y-59546885D01*
X124651634Y-59512514D01*
X124628192Y-59455919D01*
X124626521Y-59451390D01*
X124622214Y-59438137D01*
X124622098Y-59434047D01*
X124619180Y-59427003D01*
X124615491Y-59421905D01*
X124609178Y-59409516D01*
X124607139Y-59405092D01*
X124569468Y-59314146D01*
X124569466Y-59314141D01*
X124518014Y-59230179D01*
X124515649Y-59225954D01*
X124509335Y-59213562D01*
X124508579Y-59209538D01*
X124504592Y-59203032D01*
X124500152Y-59198575D01*
X124491969Y-59187313D01*
X124489264Y-59183264D01*
X124437837Y-59099343D01*
X124437836Y-59099341D01*
X124373900Y-59024481D01*
X124370889Y-59020662D01*
X124362701Y-59009392D01*
X124361328Y-59005544D01*
X124356378Y-58999748D01*
X124351294Y-58996039D01*
X124341456Y-58986201D01*
X124338164Y-58982640D01*
X124291497Y-58928000D01*
X152958800Y-58928000D01*
X152958800Y-68275200D01*
X171348400Y-68326000D01*
X171348400Y-60042999D01*
X176483551Y-60042999D01*
X176491275Y-60141142D01*
X176491466Y-60146008D01*
X176491466Y-60159912D01*
X176490312Y-60163840D01*
X176490912Y-60171457D01*
X176492842Y-60177430D01*
X176495021Y-60191178D01*
X176495593Y-60196017D01*
X176499837Y-60249931D01*
X176503317Y-60294148D01*
X176503318Y-60294152D01*
X176503318Y-60294153D01*
X176526293Y-60389855D01*
X176527243Y-60394627D01*
X176529421Y-60408378D01*
X176528896Y-60412437D01*
X176530681Y-60419871D01*
X176533527Y-60425480D01*
X176537827Y-60438716D01*
X176539148Y-60443399D01*
X176562127Y-60539114D01*
X176599797Y-60630055D01*
X176601481Y-60634622D01*
X176605780Y-60647851D01*
X176605897Y-60651941D01*
X176608821Y-60659001D01*
X176612509Y-60664095D01*
X176618819Y-60676480D01*
X176620857Y-60680901D01*
X176658532Y-60771857D01*
X176709976Y-60855807D01*
X176712355Y-60860054D01*
X176718662Y-60872432D01*
X176719418Y-60876458D01*
X176723411Y-60882974D01*
X176727845Y-60887422D01*
X176736027Y-60898683D01*
X176738732Y-60902732D01*
X176780881Y-60971510D01*
X176790164Y-60986659D01*
X176790171Y-60986667D01*
X176854093Y-61061510D01*
X176857107Y-61065333D01*
X176865290Y-61076596D01*
X176866664Y-61080448D01*
X176871626Y-61086257D01*
X176876703Y-61089959D01*
X176886540Y-61099795D01*
X176889839Y-61103363D01*
X176953776Y-61178224D01*
X177028640Y-61242164D01*
X177032201Y-61245456D01*
X177042039Y-61255294D01*
X177043999Y-61258884D01*
X177049803Y-61263841D01*
X177055391Y-61266700D01*
X177055395Y-61266703D01*
X177066662Y-61274889D01*
X177070483Y-61277901D01*
X177145341Y-61341836D01*
X177145343Y-61341837D01*
X177229264Y-61393264D01*
X177233313Y-61395969D01*
X177244575Y-61404152D01*
X177247073Y-61407392D01*
X177253584Y-61411381D01*
X177259562Y-61413335D01*
X177271954Y-61419649D01*
X177276179Y-61422014D01*
X177360141Y-61473466D01*
X177360146Y-61473468D01*
X177451092Y-61511139D01*
X177455516Y-61513178D01*
X177467905Y-61519491D01*
X177470880Y-61522301D01*
X177477929Y-61525221D01*
X177484136Y-61526214D01*
X177497390Y-61530521D01*
X177501919Y-61532192D01*
X177558514Y-61555634D01*
X177592885Y-61569872D01*
X177592886Y-61569873D01*
X177623431Y-61577205D01*
X177688634Y-61592859D01*
X177693265Y-61594165D01*
X177706523Y-61598473D01*
X177709901Y-61600782D01*
X177717329Y-61602565D01*
X177723614Y-61602577D01*
X177737365Y-61604755D01*
X177742141Y-61605705D01*
X177837852Y-61628683D01*
X177936003Y-61636407D01*
X177940817Y-61636978D01*
X177954562Y-61639155D01*
X177958259Y-61640907D01*
X177965872Y-61641507D01*
X177972089Y-61640534D01*
X177985992Y-61640534D01*
X177990858Y-61640725D01*
X178089000Y-61648449D01*
X178187141Y-61640725D01*
X178192008Y-61640534D01*
X178205909Y-61640534D01*
X178209836Y-61641687D01*
X178217457Y-61641087D01*
X178223443Y-61639153D01*
X178237179Y-61636978D01*
X178241978Y-61636409D01*
X178340148Y-61628683D01*
X178435873Y-61605701D01*
X178440632Y-61604755D01*
X178443413Y-61604314D01*
X178454382Y-61602577D01*
X178458441Y-61603101D01*
X178465869Y-61601318D01*
X178471477Y-61598472D01*
X178484734Y-61594165D01*
X178489354Y-61592861D01*
X178585111Y-61569873D01*
X178676098Y-61532184D01*
X178680599Y-61530524D01*
X178693862Y-61526214D01*
X178697947Y-61526098D01*
X178705002Y-61523176D01*
X178710089Y-61519493D01*
X178722500Y-61513169D01*
X178726873Y-61511153D01*
X178817859Y-61473466D01*
X178901814Y-61422017D01*
X178906025Y-61419659D01*
X178918435Y-61413335D01*
X178922458Y-61412580D01*
X178928967Y-61408591D01*
X178933418Y-61404156D01*
X178944674Y-61395977D01*
X178948701Y-61393285D01*
X179032659Y-61341836D01*
X179107532Y-61277888D01*
X179111314Y-61274906D01*
X179122605Y-61266702D01*
X179126450Y-61265331D01*
X179132256Y-61260372D01*
X179135957Y-61255297D01*
X179145810Y-61245444D01*
X179149346Y-61242175D01*
X179224224Y-61178224D01*
X179288175Y-61103346D01*
X179291444Y-61099810D01*
X179301296Y-61089958D01*
X179304883Y-61087999D01*
X179309843Y-61082192D01*
X179312703Y-61076605D01*
X179312710Y-61076596D01*
X179320906Y-61065314D01*
X179323888Y-61061532D01*
X179387836Y-60986659D01*
X179439285Y-60902701D01*
X179441977Y-60898674D01*
X179450156Y-60887418D01*
X179453394Y-60884920D01*
X179457380Y-60878415D01*
X179459336Y-60872435D01*
X179459338Y-60872432D01*
X179465659Y-60860025D01*
X179468022Y-60855807D01*
X179519466Y-60771859D01*
X179557153Y-60680873D01*
X179559169Y-60676500D01*
X179565492Y-60664091D01*
X179568299Y-60661119D01*
X179571220Y-60654068D01*
X179572214Y-60647865D01*
X179576524Y-60634599D01*
X179578184Y-60630098D01*
X179615873Y-60539111D01*
X179616315Y-60537273D01*
X179620088Y-60521551D01*
X179638860Y-60443358D01*
X179640171Y-60438716D01*
X179644474Y-60425472D01*
X179646783Y-60422095D01*
X179648565Y-60414676D01*
X179648577Y-60408382D01*
X179650755Y-60394632D01*
X179651701Y-60389873D01*
X179674683Y-60294148D01*
X179682409Y-60195978D01*
X179682978Y-60191178D01*
X179686534Y-60168729D01*
X179686534Y-60168726D01*
X179687201Y-60164516D01*
X179687201Y-60164510D01*
X179687502Y-60162609D01*
X179686754Y-60157502D01*
X179687155Y-60137040D01*
X179687334Y-60133400D01*
X179694449Y-60043000D01*
X179687333Y-59952593D01*
X179687155Y-59948948D01*
X179686979Y-59939990D01*
X179686754Y-59928493D01*
X179687739Y-59924878D01*
X179682978Y-59894817D01*
X179682407Y-59890003D01*
X179674683Y-59791852D01*
X179651705Y-59696140D01*
X179650755Y-59691365D01*
X179648577Y-59677614D01*
X179649101Y-59673558D01*
X179647319Y-59666137D01*
X179644473Y-59660525D01*
X179640165Y-59647265D01*
X179638859Y-59642634D01*
X179623205Y-59577431D01*
X179615873Y-59546886D01*
X179615872Y-59546885D01*
X179601634Y-59512514D01*
X179578192Y-59455919D01*
X179576521Y-59451390D01*
X179572214Y-59438137D01*
X179572098Y-59434047D01*
X179569180Y-59427003D01*
X179565491Y-59421905D01*
X179559178Y-59409516D01*
X179557139Y-59405092D01*
X179519468Y-59314146D01*
X179519466Y-59314141D01*
X179468014Y-59230179D01*
X179465649Y-59225954D01*
X179459335Y-59213562D01*
X179458579Y-59209538D01*
X179454592Y-59203032D01*
X179450152Y-59198575D01*
X179441969Y-59187313D01*
X179439264Y-59183264D01*
X179387837Y-59099343D01*
X179387836Y-59099341D01*
X179323900Y-59024481D01*
X179320889Y-59020662D01*
X179312701Y-59009392D01*
X179311328Y-59005544D01*
X179306378Y-58999748D01*
X179301294Y-58996039D01*
X179291456Y-58986201D01*
X179288164Y-58982640D01*
X179224224Y-58907776D01*
X179149363Y-58843839D01*
X179145795Y-58840540D01*
X179135959Y-58830703D01*
X179133999Y-58827113D01*
X179128196Y-58822157D01*
X179122596Y-58819290D01*
X179111333Y-58811107D01*
X179107510Y-58808093D01*
X179032667Y-58744171D01*
X179032659Y-58744164D01*
X179017510Y-58734881D01*
X178948732Y-58692732D01*
X178944683Y-58690027D01*
X178933422Y-58681845D01*
X178930925Y-58678607D01*
X178924421Y-58674621D01*
X178918438Y-58672665D01*
X178913205Y-58669999D01*
X178906040Y-58666347D01*
X178901800Y-58663972D01*
X178817857Y-58612532D01*
X178726905Y-58574859D01*
X178722486Y-58572822D01*
X178710099Y-58566511D01*
X178707122Y-58563700D01*
X178700064Y-58560776D01*
X178693851Y-58559780D01*
X178680622Y-58555481D01*
X178676055Y-58553797D01*
X178585114Y-58516127D01*
X178489399Y-58493148D01*
X178484716Y-58491827D01*
X178471480Y-58487527D01*
X178468100Y-58485216D01*
X178460673Y-58483433D01*
X178454378Y-58483421D01*
X178440627Y-58481243D01*
X178435855Y-58480293D01*
X178340152Y-58457318D01*
X178340148Y-58457317D01*
X178295931Y-58453837D01*
X178242017Y-58449593D01*
X178237178Y-58449021D01*
X178223430Y-58446842D01*
X178219737Y-58445091D01*
X178212130Y-58444492D01*
X178205912Y-58445466D01*
X178192008Y-58445466D01*
X178187142Y-58445275D01*
X178089000Y-58437551D01*
X177990858Y-58445275D01*
X177985992Y-58445466D01*
X177972087Y-58445466D01*
X177968158Y-58444312D01*
X177960548Y-58444911D01*
X177954568Y-58446843D01*
X177940819Y-58449021D01*
X177935981Y-58449594D01*
X177837851Y-58457317D01*
X177837845Y-58457318D01*
X177742140Y-58480295D01*
X177737362Y-58481245D01*
X177723608Y-58483423D01*
X177719551Y-58482898D01*
X177712134Y-58484679D01*
X177706529Y-58487523D01*
X177693287Y-58491826D01*
X177688599Y-58493148D01*
X177592892Y-58516125D01*
X177501939Y-58553798D01*
X177497369Y-58555484D01*
X177484139Y-58559783D01*
X177480051Y-58559899D01*
X177472994Y-58562822D01*
X177467900Y-58566510D01*
X177455513Y-58572821D01*
X177451096Y-58574857D01*
X177360141Y-58612534D01*
X177276201Y-58663970D01*
X177271954Y-58666349D01*
X177259564Y-58672662D01*
X177255539Y-58673417D01*
X177249030Y-58677406D01*
X177244579Y-58681843D01*
X177233316Y-58690026D01*
X177229267Y-58692732D01*
X177145339Y-58744165D01*
X177070481Y-58808099D01*
X177066657Y-58811113D01*
X177055398Y-58819293D01*
X177051549Y-58820666D01*
X177045743Y-58825624D01*
X177042040Y-58830702D01*
X177032202Y-58840541D01*
X177028626Y-58843846D01*
X176953775Y-58907775D01*
X176889846Y-58982626D01*
X176886541Y-58986202D01*
X176876702Y-58996040D01*
X176873115Y-58997998D01*
X176868155Y-59003805D01*
X176865293Y-59009398D01*
X176857113Y-59020657D01*
X176854099Y-59024481D01*
X176790165Y-59099339D01*
X176738732Y-59183267D01*
X176736026Y-59187316D01*
X176727843Y-59198579D01*
X176724604Y-59201076D01*
X176720616Y-59207582D01*
X176718662Y-59213564D01*
X176712349Y-59225954D01*
X176709970Y-59230201D01*
X176658534Y-59314141D01*
X176620857Y-59405096D01*
X176618821Y-59409513D01*
X176612510Y-59421900D01*
X176609700Y-59424874D01*
X176606777Y-59431933D01*
X176605783Y-59438139D01*
X176601484Y-59451369D01*
X176599798Y-59455939D01*
X176562125Y-59546892D01*
X176539148Y-59642599D01*
X176537826Y-59647287D01*
X176533523Y-59660529D01*
X176531214Y-59663904D01*
X176529433Y-59671321D01*
X176529423Y-59677608D01*
X176527245Y-59691362D01*
X176526295Y-59696140D01*
X176503318Y-59791845D01*
X176503317Y-59791851D01*
X176495594Y-59889981D01*
X176495021Y-59894819D01*
X176492843Y-59908568D01*
X176491091Y-59912262D01*
X176490492Y-59919872D01*
X176491466Y-59926086D01*
X176491466Y-59939990D01*
X176491275Y-59944856D01*
X176483551Y-60042999D01*
X171348400Y-60042999D01*
X171348400Y-58928000D01*
X153009600Y-58928000D01*
X152958800Y-58928000D01*
X124291497Y-58928000D01*
X124274224Y-58907776D01*
X124199363Y-58843839D01*
X124195795Y-58840540D01*
X124185959Y-58830703D01*
X124183999Y-58827113D01*
X124178196Y-58822157D01*
X124172596Y-58819290D01*
X124161333Y-58811107D01*
X124157510Y-58808093D01*
X124082667Y-58744171D01*
X124082659Y-58744164D01*
X124067510Y-58734881D01*
X123998732Y-58692732D01*
X123994683Y-58690027D01*
X123983422Y-58681845D01*
X123980925Y-58678607D01*
X123974421Y-58674621D01*
X123968438Y-58672665D01*
X123963205Y-58669999D01*
X123956040Y-58666347D01*
X123951800Y-58663972D01*
X123867857Y-58612532D01*
X123776905Y-58574859D01*
X123772486Y-58572822D01*
X123760099Y-58566511D01*
X123757122Y-58563700D01*
X123750064Y-58560776D01*
X123743851Y-58559780D01*
X123730622Y-58555481D01*
X123726055Y-58553797D01*
X123635114Y-58516127D01*
X123539399Y-58493148D01*
X123534716Y-58491827D01*
X123521480Y-58487527D01*
X123518100Y-58485216D01*
X123510673Y-58483433D01*
X123504378Y-58483421D01*
X123490627Y-58481243D01*
X123485855Y-58480293D01*
X123390152Y-58457318D01*
X123390148Y-58457317D01*
X123345931Y-58453837D01*
X123292017Y-58449593D01*
X123287178Y-58449021D01*
X123273430Y-58446842D01*
X123269737Y-58445091D01*
X123262130Y-58444492D01*
X123255912Y-58445466D01*
X123242008Y-58445466D01*
X123237142Y-58445275D01*
X123209834Y-58443125D01*
X123139000Y-58437551D01*
X123138999Y-58437551D01*
X123040858Y-58445275D01*
X123035992Y-58445466D01*
X123022087Y-58445466D01*
X123018158Y-58444312D01*
X123010548Y-58444911D01*
X123004568Y-58446843D01*
X122990819Y-58449021D01*
X122985981Y-58449594D01*
X122887851Y-58457317D01*
X122887845Y-58457318D01*
X122792140Y-58480295D01*
X122787362Y-58481245D01*
X122773608Y-58483423D01*
X122769551Y-58482898D01*
X122762134Y-58484679D01*
X122756529Y-58487523D01*
X122743287Y-58491826D01*
X122738599Y-58493148D01*
X122642892Y-58516125D01*
X122551939Y-58553798D01*
X122547369Y-58555484D01*
X122534139Y-58559783D01*
X122530051Y-58559899D01*
X122522994Y-58562822D01*
X122517900Y-58566510D01*
X122505513Y-58572821D01*
X122501096Y-58574857D01*
X122410141Y-58612534D01*
X122326201Y-58663970D01*
X122321954Y-58666349D01*
X122309564Y-58672662D01*
X122305539Y-58673417D01*
X122299030Y-58677406D01*
X122294579Y-58681843D01*
X122283316Y-58690026D01*
X122279267Y-58692732D01*
X122195339Y-58744165D01*
X122120481Y-58808099D01*
X122116657Y-58811113D01*
X122105398Y-58819293D01*
X122101549Y-58820666D01*
X122095743Y-58825624D01*
X122092040Y-58830702D01*
X122082202Y-58840541D01*
X122078626Y-58843846D01*
X122003775Y-58907775D01*
X121939846Y-58982626D01*
X121936541Y-58986202D01*
X121926702Y-58996040D01*
X121923115Y-58997998D01*
X121918155Y-59003805D01*
X121915293Y-59009398D01*
X121907113Y-59020657D01*
X121904099Y-59024481D01*
X121840165Y-59099339D01*
X121788732Y-59183267D01*
X121786026Y-59187316D01*
X121777843Y-59198579D01*
X121774604Y-59201076D01*
X121770616Y-59207582D01*
X121768662Y-59213564D01*
X121762349Y-59225954D01*
X121759970Y-59230201D01*
X121708534Y-59314141D01*
X121670857Y-59405096D01*
X121668821Y-59409513D01*
X121662510Y-59421900D01*
X121659700Y-59424874D01*
X121656777Y-59431933D01*
X121655783Y-59438139D01*
X121651484Y-59451369D01*
X121649798Y-59455939D01*
X121612125Y-59546892D01*
X121589148Y-59642599D01*
X121587826Y-59647287D01*
X121583523Y-59660529D01*
X121581214Y-59663904D01*
X121579433Y-59671321D01*
X121579423Y-59677608D01*
X121577245Y-59691362D01*
X121576295Y-59696140D01*
X121553318Y-59791845D01*
X121553317Y-59791851D01*
X121545594Y-59889981D01*
X121545021Y-59894819D01*
X121542843Y-59908568D01*
X121541091Y-59912262D01*
X121540492Y-59919872D01*
X121541466Y-59926086D01*
X121541466Y-59939990D01*
X121541275Y-59944856D01*
X121533551Y-60042999D01*
X116789200Y-60042999D01*
X116789200Y-53057600D01*
X116808885Y-52990561D01*
X116861689Y-52944806D01*
X116913200Y-52933600D01*
X184991275Y-52933600D01*
X185058314Y-52953285D01*
G37*
%TD.AperFunction*%
M02*
