%TF.GenerationSoftware,KiCad,Pcbnew,7.0.6-0*%
%TF.CreationDate,2023-08-27T14:09:03+10:00*%
%TF.ProjectId,u-nit,752d6e69-742e-46b6-9963-61645f706362,rev?*%
%TF.SameCoordinates,Original*%
%TF.FileFunction,Soldermask,Top*%
%TF.FilePolarity,Negative*%
%FSLAX46Y46*%
G04 Gerber Fmt 4.6, Leading zero omitted, Abs format (unit mm)*
G04 Created by KiCad (PCBNEW 7.0.6-0) date 2023-08-27 14:09:03*
%MOMM*%
%LPD*%
G01*
G04 APERTURE LIST*
G04 Aperture macros list*
%AMRoundRect*
0 Rectangle with rounded corners*
0 $1 Rounding radius*
0 $2 $3 $4 $5 $6 $7 $8 $9 X,Y pos of 4 corners*
0 Add a 4 corners polygon primitive as box body*
4,1,4,$2,$3,$4,$5,$6,$7,$8,$9,$2,$3,0*
0 Add four circle primitives for the rounded corners*
1,1,$1+$1,$2,$3*
1,1,$1+$1,$4,$5*
1,1,$1+$1,$6,$7*
1,1,$1+$1,$8,$9*
0 Add four rect primitives between the rounded corners*
20,1,$1+$1,$2,$3,$4,$5,0*
20,1,$1+$1,$4,$5,$6,$7,0*
20,1,$1+$1,$6,$7,$8,$9,0*
20,1,$1+$1,$8,$9,$2,$3,0*%
G04 Aperture macros list end*
%ADD10C,0.010000*%
%ADD11RoundRect,0.250000X-0.475000X0.250000X-0.475000X-0.250000X0.475000X-0.250000X0.475000X0.250000X0*%
%ADD12RoundRect,0.062500X-0.062500X0.375000X-0.062500X-0.375000X0.062500X-0.375000X0.062500X0.375000X0*%
%ADD13RoundRect,0.062500X-0.375000X0.062500X-0.375000X-0.062500X0.375000X-0.062500X0.375000X0.062500X0*%
%ADD14R,3.450000X3.450000*%
%ADD15RoundRect,0.250000X0.475000X-0.250000X0.475000X0.250000X-0.475000X0.250000X-0.475000X-0.250000X0*%
%ADD16RoundRect,0.250000X-0.250000X-0.475000X0.250000X-0.475000X0.250000X0.475000X-0.250000X0.475000X0*%
%ADD17RoundRect,0.102000X1.050000X1.050000X-1.050000X1.050000X-1.050000X-1.050000X1.050000X-1.050000X0*%
%ADD18C,2.304000*%
%ADD19RoundRect,0.250000X0.250000X0.475000X-0.250000X0.475000X-0.250000X-0.475000X0.250000X-0.475000X0*%
%ADD20RoundRect,0.102000X-0.950000X-2.550000X0.950000X-2.550000X0.950000X2.550000X-0.950000X2.550000X0*%
%ADD21R,1.000000X1.500000*%
%ADD22RoundRect,0.102000X1.050000X-1.050000X1.050000X1.050000X-1.050000X1.050000X-1.050000X-1.050000X0*%
%ADD23RoundRect,0.250000X0.262500X0.450000X-0.262500X0.450000X-0.262500X-0.450000X0.262500X-0.450000X0*%
%ADD24C,3.600000*%
%ADD25C,6.400000*%
%ADD26R,1.000000X1.000000*%
%ADD27O,1.000000X1.000000*%
%ADD28RoundRect,0.150000X-0.150000X0.825000X-0.150000X-0.825000X0.150000X-0.825000X0.150000X0.825000X0*%
%ADD29RoundRect,0.250000X0.450000X-0.262500X0.450000X0.262500X-0.450000X0.262500X-0.450000X-0.262500X0*%
%ADD30R,0.915000X1.220000*%
%ADD31RoundRect,0.150000X0.150000X-0.587500X0.150000X0.587500X-0.150000X0.587500X-0.150000X-0.587500X0*%
%ADD32RoundRect,0.102000X-1.050000X1.050000X-1.050000X-1.050000X1.050000X-1.050000X1.050000X1.050000X0*%
%ADD33R,0.300000X0.850000*%
%ADD34RoundRect,0.250000X-0.262500X-0.450000X0.262500X-0.450000X0.262500X0.450000X-0.262500X0.450000X0*%
%ADD35R,1.500000X1.000000*%
%ADD36RoundRect,0.102000X2.120900X1.905000X-2.120900X1.905000X-2.120900X-1.905000X2.120900X-1.905000X0*%
%ADD37RoundRect,0.102000X-0.950000X0.550000X-0.950000X-0.550000X0.950000X-0.550000X0.950000X0.550000X0*%
%ADD38RoundRect,0.150000X0.875000X0.150000X-0.875000X0.150000X-0.875000X-0.150000X0.875000X-0.150000X0*%
%ADD39RoundRect,0.102000X-1.050000X-0.700000X1.050000X-0.700000X1.050000X0.700000X-1.050000X0.700000X0*%
%ADD40R,3.400000X1.300000*%
%ADD41R,1.700000X1.700000*%
%ADD42O,1.700000X1.700000*%
%ADD43O,2.704000X5.204000*%
%ADD44O,2.454000X4.704000*%
%ADD45O,4.704000X2.454000*%
%ADD46RoundRect,0.102000X-0.600000X1.100000X-0.600000X-1.100000X0.600000X-1.100000X0.600000X1.100000X0*%
%ADD47RoundRect,0.102000X-1.750000X1.100000X-1.750000X-1.100000X1.750000X-1.100000X1.750000X1.100000X0*%
G04 APERTURE END LIST*
%TO.C,U3*%
D10*
X144368519Y-80267596D02*
X143056019Y-80267596D01*
X143056019Y-79592596D01*
X144368519Y-79592596D01*
X144368519Y-80267596D01*
G36*
X144368519Y-80267596D02*
G01*
X143056019Y-80267596D01*
X143056019Y-79592596D01*
X144368519Y-79592596D01*
X144368519Y-80267596D01*
G37*
X142056019Y-80267596D02*
X140743519Y-80267596D01*
X140743519Y-79592596D01*
X142056019Y-79592596D01*
X142056019Y-80267596D01*
G36*
X142056019Y-80267596D02*
G01*
X140743519Y-80267596D01*
X140743519Y-79592596D01*
X142056019Y-79592596D01*
X142056019Y-80267596D01*
G37*
X142056019Y-81217596D02*
X140743519Y-81217596D01*
X140743519Y-80542596D01*
X142056019Y-80542596D01*
X142056019Y-81217596D01*
G36*
X142056019Y-81217596D02*
G01*
X140743519Y-81217596D01*
X140743519Y-80542596D01*
X142056019Y-80542596D01*
X142056019Y-81217596D01*
G37*
X144368519Y-82167596D02*
X143056019Y-82167596D01*
X143056019Y-81492596D01*
X144368519Y-81492596D01*
X144368519Y-82167596D01*
G36*
X144368519Y-82167596D02*
G01*
X143056019Y-82167596D01*
X143056019Y-81492596D01*
X144368519Y-81492596D01*
X144368519Y-82167596D01*
G37*
X142056019Y-82167596D02*
X140743519Y-82167596D01*
X140743519Y-81492596D01*
X142056019Y-81492596D01*
X142056019Y-82167596D01*
G36*
X142056019Y-82167596D02*
G01*
X140743519Y-82167596D01*
X140743519Y-81492596D01*
X142056019Y-81492596D01*
X142056019Y-82167596D01*
G37*
%TD*%
D11*
%TO.C,C14*%
X145858019Y-79930096D03*
X145858019Y-81830096D03*
%TD*%
D12*
%TO.C,U2*%
X146943519Y-104370596D03*
X146443519Y-104370596D03*
X145943519Y-104370596D03*
X145443519Y-104370596D03*
X144943519Y-104370596D03*
X144443519Y-104370596D03*
X143943519Y-104370596D03*
X143443519Y-104370596D03*
D13*
X142756019Y-105058096D03*
X142756019Y-105558096D03*
X142756019Y-106058096D03*
X142756019Y-106558096D03*
X142756019Y-107058096D03*
X142756019Y-107558096D03*
X142756019Y-108058096D03*
X142756019Y-108558096D03*
D12*
X143443519Y-109245596D03*
X143943519Y-109245596D03*
X144443519Y-109245596D03*
X144943519Y-109245596D03*
X145443519Y-109245596D03*
X145943519Y-109245596D03*
X146443519Y-109245596D03*
X146943519Y-109245596D03*
D13*
X147631019Y-108558096D03*
X147631019Y-108058096D03*
X147631019Y-107558096D03*
X147631019Y-107058096D03*
X147631019Y-106558096D03*
X147631019Y-106058096D03*
X147631019Y-105558096D03*
X147631019Y-105058096D03*
D14*
X145193519Y-106808096D03*
%TD*%
D15*
%TO.C,C7*%
X140651019Y-111222596D03*
X140651019Y-109322596D03*
%TD*%
D16*
%TO.C,C10*%
X140967019Y-78025096D03*
X142867019Y-78025096D03*
%TD*%
D11*
%TO.C,C5*%
X150016019Y-101732596D03*
X150016019Y-103632596D03*
%TD*%
D17*
%TO.C,J8*%
X159320019Y-68169596D03*
D18*
X155510019Y-68169596D03*
X151700019Y-68169596D03*
X147890019Y-68169596D03*
%TD*%
D16*
%TO.C,C12*%
X144969019Y-97644096D03*
X146869019Y-97644096D03*
%TD*%
D19*
%TO.C,C2*%
X135063019Y-77009096D03*
X133163019Y-77009096D03*
%TD*%
D20*
%TO.C,L1*%
X138551019Y-70974096D03*
X142751019Y-70974096D03*
%TD*%
D21*
%TO.C,JP1*%
X158812019Y-117837096D03*
X160112019Y-117837096D03*
%TD*%
D22*
%TO.C,J6*%
X166686019Y-110079596D03*
D18*
X166686019Y-106269596D03*
X166686019Y-102459596D03*
%TD*%
D23*
%TO.C,R1*%
X156676519Y-122271596D03*
X154851519Y-122271596D03*
%TD*%
D24*
%TO.C,H1*%
X114616019Y-65248596D03*
D25*
X114616019Y-65248596D03*
%TD*%
D23*
%TO.C,R4*%
X146620019Y-125954596D03*
X144795019Y-125954596D03*
%TD*%
D26*
%TO.C,J3*%
X151349019Y-119463096D03*
D27*
X151349019Y-118193096D03*
X152619019Y-119463096D03*
X152619019Y-118193096D03*
X153889019Y-119463096D03*
X153889019Y-118193096D03*
X155159019Y-119463096D03*
X155159019Y-118193096D03*
X156429019Y-119463096D03*
X156429019Y-118193096D03*
%TD*%
D17*
%TO.C,J7*%
X148906019Y-89632596D03*
D18*
X145096019Y-89632596D03*
X141286019Y-89632596D03*
X137476019Y-89632596D03*
%TD*%
D11*
%TO.C,C13*%
X140778019Y-123491096D03*
X140778019Y-125391096D03*
%TD*%
D28*
%TO.C,U4*%
X146554019Y-118475096D03*
X145284019Y-118475096D03*
X144014019Y-118475096D03*
X142744019Y-118475096D03*
X142744019Y-123425096D03*
X144014019Y-123425096D03*
X145284019Y-123425096D03*
X146554019Y-123425096D03*
%TD*%
D29*
%TO.C,FB1*%
X149541019Y-81769096D03*
X149541019Y-79944096D03*
%TD*%
D30*
%TO.C,D1*%
X125956019Y-73768096D03*
X129231019Y-73768096D03*
%TD*%
D17*
%TO.C,J12*%
X152208019Y-130907596D03*
D18*
X148398019Y-130907596D03*
X144588019Y-130907596D03*
%TD*%
D31*
%TO.C,Q2*%
X152970019Y-83917596D03*
X154870019Y-83917596D03*
X153920019Y-82042596D03*
%TD*%
D23*
%TO.C,R3*%
X156319019Y-103348596D03*
X154494019Y-103348596D03*
%TD*%
D32*
%TO.C,J1*%
X117664019Y-85568596D03*
D18*
X117664019Y-89378596D03*
%TD*%
D23*
%TO.C,R2*%
X132824019Y-73768096D03*
X130999019Y-73768096D03*
%TD*%
D33*
%TO.C,U1*%
X137357019Y-77324096D03*
X137857019Y-77324096D03*
X138357019Y-77324096D03*
X138857019Y-77324096D03*
X138857019Y-75424096D03*
X138357019Y-75424096D03*
X137857019Y-75424096D03*
X137357019Y-75424096D03*
%TD*%
D34*
%TO.C,R5*%
X142429019Y-85060596D03*
X144254019Y-85060596D03*
%TD*%
D35*
%TO.C,JP2*%
X158708519Y-104648596D03*
X158708519Y-103348596D03*
X158708519Y-102048596D03*
%TD*%
D36*
%TO.C,F1*%
X134059719Y-69704096D03*
X127684319Y-69704096D03*
%TD*%
D37*
%TO.C,Y1*%
X151253019Y-99276596D03*
X151253019Y-96776596D03*
%TD*%
D11*
%TO.C,C6*%
X148774019Y-97390096D03*
X148774019Y-99290096D03*
%TD*%
D16*
%TO.C,C8*%
X140967019Y-75739096D03*
X142867019Y-75739096D03*
%TD*%
D32*
%TO.C,J10*%
X117674519Y-96490596D03*
D18*
X117674519Y-100300596D03*
X117674519Y-104110596D03*
X117674519Y-107920596D03*
%TD*%
D38*
%TO.C,U5*%
X133363019Y-109571596D03*
X133363019Y-108301596D03*
X133363019Y-107031596D03*
X133363019Y-105761596D03*
X133363019Y-104491596D03*
X133363019Y-103221596D03*
X133363019Y-101951596D03*
X133363019Y-100681596D03*
X133363019Y-99411596D03*
X133363019Y-98141596D03*
X124063019Y-98141596D03*
X124063019Y-99411596D03*
X124063019Y-100681596D03*
X124063019Y-101951596D03*
X124063019Y-103221596D03*
X124063019Y-104491596D03*
X124063019Y-105761596D03*
X124063019Y-107031596D03*
X124063019Y-108301596D03*
X124063019Y-109571596D03*
%TD*%
D29*
%TO.C,R6*%
X154748019Y-78122596D03*
X154748019Y-76297596D03*
%TD*%
D39*
%TO.C,S1*%
X160391519Y-127315596D03*
X169491519Y-127315596D03*
X160391519Y-122815596D03*
X169491519Y-122815596D03*
%TD*%
D24*
%TO.C,H2*%
X169607019Y-65248596D03*
D25*
X169607019Y-65248596D03*
%TD*%
D11*
%TO.C,C3*%
X137730019Y-79295096D03*
X137730019Y-81195096D03*
%TD*%
D16*
%TO.C,C11*%
X144969019Y-99803096D03*
X146869019Y-99803096D03*
%TD*%
D17*
%TO.C,J5*%
X167448019Y-89632596D03*
D18*
X163638019Y-89632596D03*
X159828019Y-89632596D03*
X156018019Y-89632596D03*
%TD*%
D24*
%TO.C,H4*%
X169607019Y-135098596D03*
D25*
X169607019Y-135098596D03*
%TD*%
D40*
%TO.C,LS1*%
X161098019Y-75122596D03*
X161098019Y-83822596D03*
%TD*%
D11*
%TO.C,C9*%
X152154019Y-101708096D03*
X152154019Y-103608096D03*
%TD*%
D41*
%TO.C,J9*%
X130872019Y-125827596D03*
D42*
X130872019Y-123287596D03*
X130872019Y-120747596D03*
X130872019Y-118207596D03*
X130872019Y-115667596D03*
%TD*%
D19*
%TO.C,C1*%
X160397019Y-120250096D03*
X158497019Y-120250096D03*
%TD*%
D15*
%TO.C,C15*%
X140651019Y-121062596D03*
X140651019Y-119162596D03*
%TD*%
D41*
%TO.C,J4*%
X158685019Y-113138096D03*
D42*
X156145019Y-113138096D03*
X153605019Y-113138096D03*
X151065019Y-113138096D03*
X148525019Y-113138096D03*
%TD*%
D43*
%TO.C,J2*%
X121367519Y-74265596D03*
D44*
X115367519Y-74265596D03*
D45*
X118367519Y-78965596D03*
%TD*%
D15*
%TO.C,C4*%
X153727019Y-99229096D03*
X153727019Y-97329096D03*
%TD*%
D46*
%TO.C,Q1*%
X130632019Y-77018096D03*
X128332019Y-77018096D03*
X126032019Y-77018096D03*
D47*
X128332019Y-83218096D03*
%TD*%
D24*
%TO.C,H3*%
X114743019Y-135098596D03*
D25*
X114743019Y-135098596D03*
%TD*%
D32*
%TO.C,J11*%
X117674519Y-115043096D03*
D18*
X117674519Y-118853096D03*
X117674519Y-122663096D03*
X117674519Y-126473096D03*
%TD*%
M02*
