M48
; DRILL file {KiCad 7.0.6-0} date 2023 September 14, Thursday 16:42:17
; FORMAT={-:-/ absolute / inch / decimal}
; #@! TF.CreationDate,2023-09-14T16:42:17+10:00
; #@! TF.GenerationSoftware,Kicad,Pcbnew,7.0.6-0
; #@! TF.FileFunction,Plated,1,2,PTH
FMAT,2
INCH
; #@! TA.AperFunction,Plated,PTH,ViaDrill
T1C0.0157
; #@! TA.AperFunction,Plated,PTH,ComponentDrill
T2C0.0256
; #@! TA.AperFunction,Plated,PTH,ComponentDrill
T3C0.0394
; #@! TA.AperFunction,Plated,PTH,ComponentDrill
T4C0.0551
; #@! TA.AperFunction,Plated,PTH,ComponentDrill
T5C0.1260
%
G90
G05
T1
X4.7424Y-4.0788
X4.8674Y-3.5788
X4.8674Y-3.6588
X4.8674Y-3.7338
X4.9474Y-3.5788
X4.9474Y-3.6588
X4.9474Y-3.7338
X5.0174Y-3.4838
X5.0174Y-3.5788
X5.0174Y-3.6588
X5.0174Y-3.7338
X5.0174Y-3.8738
X5.0174Y-3.9688
X5.0174Y-4.0488
X5.0174Y-4.1238
X5.0174Y-4.1938
X5.0174Y-4.2738
X5.0974Y-3.4838
X5.0974Y-3.5788
X5.0974Y-3.6588
X5.0974Y-3.7338
X5.0974Y-3.8738
X5.0974Y-3.9688
X5.0974Y-4.0488
X5.0974Y-4.1238
X5.0974Y-4.1938
X5.0974Y-4.2738
X5.1774Y-3.4838
X5.1774Y-3.5788
X5.1774Y-3.6588
X5.1774Y-3.7338
X5.1924Y-3.3338
X5.1924Y-3.3838
X5.2374Y-2.9688
X5.2574Y-3.4838
X5.2574Y-3.5788
X5.2574Y-3.6588
X5.2574Y-3.7338
X5.2574Y-4.6038
X5.2724Y-5.0238
X5.2974Y-3.1638
X5.2974Y-3.2288
X5.2974Y-3.2938
X5.3574Y-5.1138
X5.3724Y-3.0188
X5.3774Y-3.9588
X5.3774Y-4.0638
X5.3774Y-4.1688
X5.3774Y-4.2688
X5.3774Y-4.6038
X5.3774Y-4.7988
X5.4174Y-4.3788
X5.4174Y-4.8388
X5.4424Y-4.4438
X5.5023Y-2.9688
X5.5824Y-4.4288
X5.5924Y-4.0738
X5.6124Y-3.2738
X5.6274Y-4.9688
X5.6324Y-4.3888
X5.6374Y-3.4538
X5.6374Y-3.7288
X5.6674Y-4.5488
X5.6974Y-3.0288
X5.7173Y-4.3737
X5.7174Y-4.2038
X5.7174Y-4.4588
X5.7474Y-3.7638
X5.7574Y-3.9988
X5.7574Y-4.4238
X5.7674Y-4.7738
X5.7824Y-3.4538
X5.8074Y-3.7688
X5.8224Y-2.7938
X5.8224Y-2.8738
X5.8274Y-3.3138
X5.8274Y-3.3738
X5.8324Y-4.8238
X5.8674Y-3.6138
X5.8774Y-4.3488
X5.8874Y-3.6588
X5.9074Y-4.5538
X5.9874Y-3.6588
X6.0024Y-4.3588
X6.0024Y-4.5538
X6.0174Y-3.9538
X6.0374Y-4.1238
X6.0574Y-3.3688
X6.0874Y-3.7538
X6.14Y-5.155
X6.1424Y-3.7938
X6.1424Y-3.8488
X6.1724Y-4.1338
X6.1774Y-4.5538
X6.2024Y-3.7938
X6.2024Y-3.8538
X6.2874Y-4.5588
X6.3424Y-4.5588
X6.3974Y-4.5588
X6.4824Y-4.1288
X6.4824Y-4.2488
X6.715Y-5.12
X6.79Y-5.015
T2
X5.9586Y-4.6533
X5.9586Y-4.7033
X6.0086Y-4.6533
X6.0086Y-4.7033
X6.0586Y-4.6533
X6.0586Y-4.7033
X6.1086Y-4.6533
X6.1086Y-4.7033
X6.1586Y-4.6533
X6.1586Y-4.7033
T3
X5.1524Y-4.5538
X5.1524Y-4.6538
X5.1524Y-4.7538
X5.1524Y-4.8538
X5.1524Y-4.9538
X5.8474Y-4.4543
X5.9474Y-4.4543
X6.0474Y-4.4543
X6.1474Y-4.4543
X6.2474Y-4.4543
T4
X4.6324Y-3.3688
X4.6324Y-3.5188
X4.6329Y-3.7988
X4.6329Y-3.9488
X4.6329Y-4.0988
X4.6329Y-4.2488
X4.6329Y-4.5293
X4.6329Y-4.6793
X4.6329Y-4.8293
X4.6329Y-4.9793
X5.4124Y-3.5288
X5.5624Y-3.5288
X5.6924Y-5.1538
X5.7124Y-3.5288
X5.8224Y-2.6838
X5.8424Y-5.1538
X5.8624Y-3.5288
X5.9724Y-2.6838
X5.9924Y-5.1538
X6.1224Y-2.6838
X6.1424Y-3.5288
X6.2724Y-2.6838
X6.2924Y-3.5288
X6.4424Y-3.5288
X6.5624Y-4.0338
X6.5624Y-4.1838
X6.5624Y-4.3338
X6.5924Y-3.5288
T5
X4.5124Y-2.5688
X4.5174Y-5.3188
X6.6774Y-2.5688
X6.6774Y-5.3188
T3
G00X4.542Y-2.9632
M15
G01X4.542Y-2.8845
M16
G05
G00X4.6995Y-3.1089
M15
G01X4.6208Y-3.1089
M16
G05
G00X4.7782Y-2.9731
M15
G01X4.7782Y-2.8746
M16
G05
T0
M30
