%TF.GenerationSoftware,KiCad,Pcbnew,7.0.6-0*%
%TF.CreationDate,2023-09-14T16:42:19+10:00*%
%TF.ProjectId,u-nit,752d6e69-742e-46b6-9963-61645f706362,1.0*%
%TF.SameCoordinates,Original*%
%TF.FileFunction,Copper,L2,Bot*%
%TF.FilePolarity,Positive*%
%FSLAX46Y46*%
G04 Gerber Fmt 4.6, Leading zero omitted, Abs format (unit mm)*
G04 Created by KiCad (PCBNEW 7.0.6-0) date 2023-09-14 16:42:19*
%MOMM*%
%LPD*%
G01*
G04 APERTURE LIST*
%TA.AperFunction,ComponentPad*%
%ADD10R,2.100000X2.100000*%
%TD*%
%TA.AperFunction,ComponentPad*%
%ADD11C,2.100000*%
%TD*%
%TA.AperFunction,ComponentPad*%
%ADD12C,3.600000*%
%TD*%
%TA.AperFunction,ConnectorPad*%
%ADD13C,6.400000*%
%TD*%
%TA.AperFunction,ComponentPad*%
%ADD14R,1.000000X1.000000*%
%TD*%
%TA.AperFunction,ComponentPad*%
%ADD15O,1.000000X1.000000*%
%TD*%
%TA.AperFunction,ComponentPad*%
%ADD16R,1.700000X1.700000*%
%TD*%
%TA.AperFunction,ComponentPad*%
%ADD17O,1.700000X1.700000*%
%TD*%
%TA.AperFunction,ComponentPad*%
%ADD18O,2.500000X5.000000*%
%TD*%
%TA.AperFunction,ComponentPad*%
%ADD19O,2.250000X4.500000*%
%TD*%
%TA.AperFunction,ComponentPad*%
%ADD20O,4.500000X2.250000*%
%TD*%
%TA.AperFunction,ViaPad*%
%ADD21C,0.800000*%
%TD*%
%TA.AperFunction,Conductor*%
%ADD22C,0.250000*%
%TD*%
%TA.AperFunction,Conductor*%
%ADD23C,1.000000*%
%TD*%
%TA.AperFunction,Conductor*%
%ADD24C,0.500000*%
%TD*%
%TA.AperFunction,Conductor*%
%ADD25C,0.300000*%
%TD*%
G04 APERTURE END LIST*
D10*
%TO.P,J8,1,1*%
%TO.N,VDD*%
X159320019Y-68169596D03*
D11*
%TO.P,J8,2,2*%
%TO.N,+5V*%
X155510019Y-68169596D03*
%TO.P,J8,3,3*%
%TO.N,+3.3V*%
X151700019Y-68169596D03*
%TO.P,J8,4,4*%
%TO.N,GND*%
X147890019Y-68169596D03*
%TD*%
D10*
%TO.P,J6,1,1*%
%TO.N,/PB5_GPI*%
X166686019Y-110079596D03*
D11*
%TO.P,J6,2,2*%
%TO.N,/I2C1_SCL*%
X166686019Y-106269596D03*
%TO.P,J6,3,3*%
%TO.N,/I2C1_SDA*%
X166686019Y-102459596D03*
%TD*%
D12*
%TO.P,H1,1,1*%
%TO.N,GND*%
X114616019Y-65248596D03*
D13*
X114616019Y-65248596D03*
%TD*%
D14*
%TO.P,J3,1,VTref*%
%TO.N,+3.3V*%
X151349019Y-119463096D03*
D15*
%TO.P,J3,2,SWDIO/TMS*%
%TO.N,/TMS{slash}SWDAT_PA13*%
X151349019Y-118193096D03*
%TO.P,J3,3,GND*%
%TO.N,GND*%
X152619019Y-119463096D03*
%TO.P,J3,4,SWDCLK/TCK*%
%TO.N,/TCK{slash}SWCLK_PA14*%
X152619019Y-118193096D03*
%TO.P,J3,5,GND*%
%TO.N,GND*%
X153889019Y-119463096D03*
%TO.P,J3,6,SWO/TDO*%
%TO.N,/TDO{slash}SWO_PB3*%
X153889019Y-118193096D03*
%TO.P,J3,7,KEY*%
%TO.N,unconnected-(J3-KEY-Pad7)*%
X155159019Y-119463096D03*
%TO.P,J3,8,NC/TDI*%
%TO.N,/TDI_PA15*%
X155159019Y-118193096D03*
%TO.P,J3,9,GNDDetect*%
%TO.N,Net-(J3-GNDDetect)*%
X156429019Y-119463096D03*
%TO.P,J3,10,~{RESET}*%
%TO.N,/TRST_PB4*%
X156429019Y-118193096D03*
%TD*%
D10*
%TO.P,J7,1,1*%
%TO.N,/USART2_TX*%
X148906019Y-89632596D03*
D11*
%TO.P,J7,2,2*%
%TO.N,/USART2_RX*%
X145096019Y-89632596D03*
%TO.P,J7,3,3*%
%TO.N,/DAC1_OUT1*%
X141286019Y-89632596D03*
%TO.P,J7,4,4*%
%TO.N,/DAC1_OUT2*%
X137476019Y-89632596D03*
%TD*%
D10*
%TO.P,J12,1,1*%
%TO.N,Net-(U4-CANH)*%
X152208019Y-130907596D03*
D11*
%TO.P,J12,2,2*%
%TO.N,GND*%
X148398019Y-130907596D03*
%TO.P,J12,3,3*%
%TO.N,Net-(U4-CANL)*%
X144588019Y-130907596D03*
%TD*%
D10*
%TO.P,J1,1,1*%
%TO.N,Net-(J1-Pad1)*%
X117664019Y-85568596D03*
D11*
%TO.P,J1,2,2*%
%TO.N,GND*%
X117664019Y-89378596D03*
%TD*%
D10*
%TO.P,J10,1,1*%
%TO.N,/OUT4*%
X117674519Y-96490596D03*
D11*
%TO.P,J10,2,2*%
%TO.N,/OUT3*%
X117674519Y-100300596D03*
%TO.P,J10,3,3*%
%TO.N,/OUT2*%
X117674519Y-104110596D03*
%TO.P,J10,4,4*%
%TO.N,/OUT1*%
X117674519Y-107920596D03*
%TD*%
D12*
%TO.P,H2,1,1*%
%TO.N,GND*%
X169607019Y-65248596D03*
D13*
X169607019Y-65248596D03*
%TD*%
D10*
%TO.P,J5,1,1*%
%TO.N,/ADC1_IN5*%
X167448019Y-89632596D03*
D11*
%TO.P,J5,2,2*%
%TO.N,/ADC1_IN6*%
X163638019Y-89632596D03*
%TO.P,J5,3,3*%
%TO.N,GND*%
X159828019Y-89632596D03*
%TO.P,J5,4,4*%
%TO.N,+3.3V*%
X156018019Y-89632596D03*
%TD*%
D12*
%TO.P,H4,1,1*%
%TO.N,GND*%
X169607019Y-135098596D03*
D13*
X169607019Y-135098596D03*
%TD*%
D16*
%TO.P,J9,1,Pin_1*%
%TO.N,+5V*%
X130872019Y-125827596D03*
D17*
%TO.P,J9,2,Pin_2*%
%TO.N,+3.3V*%
X130872019Y-123287596D03*
%TO.P,J9,3,Pin_3*%
%TO.N,GND*%
X130872019Y-120747596D03*
%TO.P,J9,4,Pin_4*%
%TO.N,/USART1_RX*%
X130872019Y-118207596D03*
%TO.P,J9,5,Pin_5*%
%TO.N,/USART1_TX*%
X130872019Y-115667596D03*
%TD*%
D16*
%TO.P,J4,1,Pin_1*%
%TO.N,/TRST_PB4*%
X158685019Y-113138096D03*
D17*
%TO.P,J4,2,Pin_2*%
%TO.N,/TDO{slash}SWO_PB3*%
X156145019Y-113138096D03*
%TO.P,J4,3,Pin_3*%
%TO.N,/TDI_PA15*%
X153605019Y-113138096D03*
%TO.P,J4,4,Pin_4*%
%TO.N,/TCK{slash}SWCLK_PA14*%
X151065019Y-113138096D03*
%TO.P,J4,5,Pin_5*%
%TO.N,/TMS{slash}SWDAT_PA13*%
X148525019Y-113138096D03*
%TD*%
D18*
%TO.P,J2,1*%
%TO.N,Net-(J1-Pad1)*%
X121367519Y-74265596D03*
D19*
%TO.P,J2,2*%
%TO.N,GND*%
X115367519Y-74265596D03*
D20*
%TO.P,J2,3*%
X118367519Y-78965596D03*
%TD*%
D12*
%TO.P,H3,1,1*%
%TO.N,GND*%
X114743019Y-135098596D03*
D13*
X114743019Y-135098596D03*
%TD*%
D10*
%TO.P,J11,1,1*%
%TO.N,GND*%
X117674519Y-115043096D03*
D11*
%TO.P,J11,2,2*%
X117674519Y-118853096D03*
%TO.P,J11,3,3*%
X117674519Y-122663096D03*
%TO.P,J11,4,4*%
X117674519Y-126473096D03*
%TD*%
D21*
%TO.N,NRST*%
X161098019Y-115794596D03*
X146239019Y-101570596D03*
%TO.N,GND*%
X144715019Y-76932596D03*
X142937019Y-126208596D03*
X133031019Y-75408596D03*
X157542019Y-96363596D03*
X139758019Y-75408596D03*
X136587019Y-103221596D03*
X120458019Y-103602596D03*
X148017019Y-84171596D03*
X133539019Y-116937596D03*
X142048019Y-103475596D03*
X146239019Y-112365596D03*
X159701019Y-115794596D03*
X172466000Y-127381000D03*
X143191019Y-87727596D03*
X152081019Y-92934596D03*
X136460019Y-76678596D03*
X150049019Y-115667596D03*
X133920019Y-127605596D03*
X154621019Y-95347596D03*
X142556019Y-83155596D03*
X162495019Y-115794596D03*
X148144019Y-122525596D03*
X153351019Y-104745596D03*
X152843019Y-100427596D03*
X170561000Y-130048000D03*
X136587019Y-121890596D03*
X164654019Y-104872596D03*
X155956000Y-130937000D03*
X147509019Y-95728596D03*
X157542019Y-97887596D03*
X138238019Y-112873596D03*
X149287019Y-110460596D03*
X147890019Y-72995596D03*
X143191019Y-94712596D03*
X136587019Y-100554596D03*
X131888019Y-84679596D03*
X136587019Y-105888596D03*
X131888019Y-85949596D03*
X152462019Y-115667596D03*
X164654019Y-107920596D03*
X143953019Y-115540596D03*
X156907019Y-115667596D03*
X136587019Y-108428596D03*
X149033019Y-91791596D03*
X136587019Y-116937596D03*
X152462019Y-110714596D03*
X146874019Y-87727596D03*
X145223019Y-106777596D03*
X141794019Y-112492596D03*
X136079019Y-129891596D03*
X156780019Y-104999596D03*
%TO.N,VDD*%
X129475019Y-92934596D03*
X134555019Y-83663596D03*
X131507019Y-90902596D03*
X127443019Y-88489596D03*
X125665019Y-94839596D03*
X129475019Y-90902596D03*
X133539019Y-92934596D03*
X129475019Y-108555596D03*
X127443019Y-100808596D03*
X123633019Y-94839596D03*
X127443019Y-92934596D03*
X127443019Y-98395596D03*
X129475019Y-106523596D03*
X131507019Y-92934596D03*
X129475019Y-98395596D03*
X134555019Y-82012596D03*
X133539019Y-88489596D03*
X134555019Y-80361596D03*
X127443019Y-90902596D03*
X129475019Y-100808596D03*
X129475019Y-102840596D03*
X125665019Y-90902596D03*
X127443019Y-108555596D03*
X133539019Y-94839596D03*
X125665019Y-92934596D03*
X129475019Y-88489596D03*
X127443019Y-106523596D03*
X127443019Y-102840596D03*
X131507019Y-94839596D03*
X127443019Y-104745596D03*
X127443019Y-94839596D03*
X133539019Y-90902596D03*
X129475019Y-104745596D03*
X131507019Y-88489596D03*
X129475019Y-94839596D03*
X123633019Y-90902596D03*
X123633019Y-92934596D03*
%TO.N,+3.3V*%
X137603019Y-111222596D03*
X156018019Y-97760596D03*
X156018019Y-96363596D03*
%TO.N,+5V*%
X147890019Y-70963596D03*
X137603019Y-122906596D03*
%TO.N,VDDA*%
X149541019Y-92934596D03*
X145985019Y-95601596D03*
%TO.N,Net-(Q2-B)*%
X153859019Y-85568596D03*
X148017019Y-85695596D03*
%TO.N,/PA8_CAN_STBY*%
X146493019Y-121255596D03*
X143064019Y-111476596D03*
%TO.N,/CAN_RX*%
X145223019Y-113254596D03*
X145218720Y-111091297D03*
%TD*%
D22*
%TO.N,NRST*%
X153732019Y-109063596D02*
X157542019Y-109063596D01*
X146239019Y-101570596D02*
X153732019Y-109063596D01*
X161098019Y-112619596D02*
X161098019Y-115794596D01*
X157542019Y-109063596D02*
X161098019Y-112619596D01*
D23*
%TO.N,+3.3V*%
X132523019Y-123287596D02*
X134936019Y-120874596D01*
X156018019Y-89632596D02*
X156018019Y-96363596D01*
X134936019Y-113889596D02*
X137603019Y-111222596D01*
X130872019Y-123287596D02*
X132523019Y-123287596D01*
X156018019Y-96363596D02*
X156018019Y-97760596D01*
X134936019Y-120874596D02*
X134936019Y-113889596D01*
%TO.N,+5V*%
X147890019Y-70963596D02*
X152716019Y-70963596D01*
X134682019Y-125827596D02*
X137603019Y-122906596D01*
X152716019Y-70963596D02*
X155510019Y-68169596D01*
X130872019Y-125827596D02*
X134682019Y-125827596D01*
D24*
%TO.N,VDDA*%
X149541019Y-92934596D02*
X148652019Y-92934596D01*
X148652019Y-92934596D02*
X145985019Y-95601596D01*
D25*
%TO.N,/TDO{slash}SWO_PB3*%
X153889019Y-115394096D02*
X153889019Y-118193096D01*
X156145019Y-113138096D02*
X153889019Y-115394096D01*
%TO.N,Net-(Q2-B)*%
X148017019Y-85695596D02*
X153732019Y-85695596D01*
X153732019Y-85695596D02*
X153859019Y-85568596D01*
D22*
%TO.N,/PA8_CAN_STBY*%
X144969019Y-114905596D02*
X144969019Y-119731596D01*
X144969019Y-119731596D02*
X146493019Y-121255596D01*
X143064019Y-113000596D02*
X144969019Y-114905596D01*
X143064019Y-111476596D02*
X143064019Y-113000596D01*
%TO.N,/CAN_RX*%
X145218720Y-113250297D02*
X145223019Y-113254596D01*
X145218720Y-111091297D02*
X145218720Y-113250297D01*
%TD*%
%TA.AperFunction,Conductor*%
%TO.N,GND*%
G36*
X173177985Y-60928605D02*
G01*
X173184013Y-60928913D01*
X173363687Y-60946947D01*
X173387472Y-60951721D01*
X173551415Y-61001742D01*
X173573827Y-61011066D01*
X173724872Y-61092066D01*
X173745039Y-61105577D01*
X173827368Y-61173297D01*
X173877407Y-61214457D01*
X173894556Y-61231640D01*
X174003171Y-61364222D01*
X174016645Y-61384419D01*
X174097346Y-61535627D01*
X174106625Y-61558060D01*
X174156317Y-61722090D01*
X174161047Y-61745903D01*
X174178721Y-61925576D01*
X174179019Y-61931649D01*
X174179019Y-138667547D01*
X174178720Y-138673628D01*
X174161001Y-138853530D01*
X174156259Y-138877371D01*
X174106443Y-139041594D01*
X174097140Y-139064052D01*
X174016246Y-139215394D01*
X174002741Y-139235606D01*
X173893873Y-139368262D01*
X173876685Y-139385450D01*
X173744029Y-139494318D01*
X173723817Y-139507823D01*
X173572475Y-139588717D01*
X173550017Y-139598020D01*
X173385794Y-139647836D01*
X173361953Y-139652578D01*
X173182051Y-139670297D01*
X173175970Y-139670596D01*
X111175686Y-139670596D01*
X111169599Y-139670297D01*
X110989508Y-139652541D01*
X110965644Y-139647789D01*
X110801272Y-139597873D01*
X110778795Y-139588552D01*
X110627339Y-139507499D01*
X110607114Y-139493968D01*
X110474396Y-139384892D01*
X110457205Y-139367672D01*
X110432549Y-139337574D01*
X110348347Y-139234784D01*
X110334851Y-139214541D01*
X110254040Y-139062948D01*
X110244756Y-139040458D01*
X110195105Y-138876009D01*
X110190391Y-138852136D01*
X110185692Y-138803674D01*
X110172925Y-138672011D01*
X110172636Y-138665956D01*
X110178381Y-135098596D01*
X111037941Y-135098596D01*
X111058238Y-135485883D01*
X111118905Y-135868919D01*
X111118906Y-135868926D01*
X111219281Y-136243532D01*
X111358263Y-136605590D01*
X111534329Y-136951139D01*
X111745550Y-137276389D01*
X111954114Y-137533946D01*
X111954115Y-137533946D01*
X113445285Y-136042776D01*
X113608149Y-136233466D01*
X113798838Y-136396329D01*
X112307667Y-137887499D01*
X112307668Y-137887500D01*
X112565225Y-138096064D01*
X112890475Y-138307285D01*
X113236024Y-138483351D01*
X113598082Y-138622333D01*
X113972688Y-138722708D01*
X113972695Y-138722709D01*
X114355731Y-138783376D01*
X114743018Y-138803674D01*
X114743020Y-138803674D01*
X115130306Y-138783376D01*
X115513342Y-138722709D01*
X115513349Y-138722708D01*
X115887955Y-138622333D01*
X116250013Y-138483351D01*
X116595562Y-138307285D01*
X116920802Y-138096072D01*
X116920804Y-138096071D01*
X117178368Y-137887498D01*
X115687199Y-136396329D01*
X115877889Y-136233466D01*
X116040752Y-136042776D01*
X117531921Y-137533945D01*
X117740494Y-137276381D01*
X117740495Y-137276379D01*
X117951708Y-136951139D01*
X118127774Y-136605590D01*
X118266756Y-136243532D01*
X118367131Y-135868926D01*
X118367132Y-135868919D01*
X118427799Y-135485883D01*
X118448097Y-135098596D01*
X165901941Y-135098596D01*
X165922238Y-135485883D01*
X165982905Y-135868919D01*
X165982906Y-135868926D01*
X166083281Y-136243532D01*
X166222263Y-136605590D01*
X166398329Y-136951139D01*
X166609550Y-137276389D01*
X166818114Y-137533946D01*
X166818115Y-137533946D01*
X168309285Y-136042776D01*
X168472149Y-136233466D01*
X168662838Y-136396329D01*
X167171667Y-137887499D01*
X167171668Y-137887500D01*
X167429225Y-138096064D01*
X167754475Y-138307285D01*
X168100024Y-138483351D01*
X168462082Y-138622333D01*
X168836688Y-138722708D01*
X168836695Y-138722709D01*
X169219731Y-138783376D01*
X169607018Y-138803674D01*
X169607020Y-138803674D01*
X169994306Y-138783376D01*
X170377342Y-138722709D01*
X170377349Y-138722708D01*
X170751955Y-138622333D01*
X171114013Y-138483351D01*
X171459562Y-138307285D01*
X171784802Y-138096072D01*
X171784804Y-138096071D01*
X172042368Y-137887498D01*
X170551199Y-136396329D01*
X170741889Y-136233466D01*
X170904752Y-136042776D01*
X172395921Y-137533945D01*
X172604494Y-137276381D01*
X172604495Y-137276379D01*
X172815708Y-136951139D01*
X172991774Y-136605590D01*
X173130756Y-136243532D01*
X173231131Y-135868926D01*
X173231132Y-135868919D01*
X173291799Y-135485883D01*
X173312097Y-135098596D01*
X173312097Y-135098595D01*
X173291799Y-134711308D01*
X173231132Y-134328272D01*
X173231131Y-134328265D01*
X173130756Y-133953659D01*
X172991774Y-133591601D01*
X172815708Y-133246052D01*
X172604487Y-132920802D01*
X172395923Y-132663245D01*
X172395922Y-132663244D01*
X170904751Y-134154414D01*
X170741889Y-133963726D01*
X170551199Y-133800862D01*
X172042369Y-132309692D01*
X172042369Y-132309691D01*
X171784812Y-132101127D01*
X171459562Y-131889906D01*
X171114013Y-131713840D01*
X170751955Y-131574858D01*
X170377349Y-131474483D01*
X170377342Y-131474482D01*
X169994306Y-131413815D01*
X169607020Y-131393518D01*
X169607018Y-131393518D01*
X169219731Y-131413815D01*
X168836695Y-131474482D01*
X168836688Y-131474483D01*
X168462082Y-131574858D01*
X168100024Y-131713840D01*
X167754475Y-131889906D01*
X167429225Y-132101127D01*
X167171667Y-132309691D01*
X167171667Y-132309692D01*
X168662838Y-133800862D01*
X168472149Y-133963726D01*
X168309285Y-134154414D01*
X166818115Y-132663244D01*
X166818114Y-132663244D01*
X166609550Y-132920802D01*
X166398329Y-133246052D01*
X166222263Y-133591601D01*
X166083281Y-133953659D01*
X165982906Y-134328265D01*
X165982905Y-134328272D01*
X165922238Y-134711308D01*
X165901941Y-135098595D01*
X165901941Y-135098596D01*
X118448097Y-135098596D01*
X118448097Y-135098595D01*
X118427799Y-134711308D01*
X118367132Y-134328272D01*
X118367131Y-134328265D01*
X118266756Y-133953659D01*
X118127774Y-133591601D01*
X117951708Y-133246052D01*
X117740487Y-132920802D01*
X117531923Y-132663245D01*
X117531922Y-132663244D01*
X116040751Y-134154414D01*
X115877889Y-133963726D01*
X115687199Y-133800862D01*
X117178369Y-132309692D01*
X117178369Y-132309691D01*
X116920812Y-132101127D01*
X116595562Y-131889906D01*
X116250013Y-131713840D01*
X115887955Y-131574858D01*
X115513349Y-131474483D01*
X115513342Y-131474482D01*
X115130306Y-131413815D01*
X114743020Y-131393518D01*
X114743018Y-131393518D01*
X114355731Y-131413815D01*
X113972695Y-131474482D01*
X113972688Y-131474483D01*
X113598082Y-131574858D01*
X113236024Y-131713840D01*
X112890475Y-131889906D01*
X112565225Y-132101127D01*
X112307667Y-132309691D01*
X112307667Y-132309692D01*
X113798838Y-133800862D01*
X113608149Y-133963726D01*
X113445285Y-134154414D01*
X111954115Y-132663244D01*
X111954114Y-132663244D01*
X111745550Y-132920802D01*
X111534329Y-133246052D01*
X111358263Y-133591601D01*
X111219281Y-133953659D01*
X111118906Y-134328265D01*
X111118905Y-134328272D01*
X111058238Y-134711308D01*
X111037941Y-135098595D01*
X111037941Y-135098596D01*
X110178381Y-135098596D01*
X110185130Y-130907596D01*
X143032725Y-130907596D01*
X143051872Y-131150893D01*
X143051872Y-131150896D01*
X143051873Y-131150898D01*
X143089629Y-131308162D01*
X143108849Y-131388215D01*
X143202241Y-131613685D01*
X143329756Y-131821769D01*
X143329757Y-131821772D01*
X143329760Y-131821775D01*
X143488260Y-132007355D01*
X143598053Y-132101127D01*
X143673842Y-132165857D01*
X143673845Y-132165858D01*
X143881929Y-132293373D01*
X144107400Y-132386765D01*
X144107397Y-132386765D01*
X144107403Y-132386766D01*
X144107407Y-132386768D01*
X144344717Y-132443742D01*
X144588019Y-132462890D01*
X144831321Y-132443742D01*
X145068631Y-132386768D01*
X145294108Y-132293373D01*
X145502198Y-132165855D01*
X145687778Y-132007355D01*
X145846278Y-131821775D01*
X145973796Y-131613685D01*
X146067191Y-131388208D01*
X146124165Y-131150898D01*
X146143313Y-130907596D01*
X146143313Y-130907595D01*
X146843226Y-130907595D01*
X146862367Y-131150815D01*
X146919322Y-131388053D01*
X147012687Y-131613457D01*
X147136523Y-131815538D01*
X147757878Y-131194182D01*
X147817699Y-131308162D01*
X147930424Y-131435402D01*
X148070324Y-131531967D01*
X148111560Y-131547606D01*
X147490075Y-132169090D01*
X147692157Y-132292927D01*
X147917561Y-132386292D01*
X148154799Y-132443247D01*
X148154798Y-132443247D01*
X148398018Y-132462388D01*
X148641238Y-132443247D01*
X148878476Y-132386292D01*
X149103880Y-132292927D01*
X149305961Y-132169090D01*
X149142337Y-132005466D01*
X150657519Y-132005466D01*
X150657520Y-132005472D01*
X150663927Y-132065079D01*
X150714221Y-132199924D01*
X150714225Y-132199931D01*
X150800471Y-132315140D01*
X150800474Y-132315143D01*
X150915683Y-132401389D01*
X150915690Y-132401393D01*
X151050536Y-132451687D01*
X151050535Y-132451687D01*
X151057463Y-132452431D01*
X151110146Y-132458096D01*
X153305891Y-132458095D01*
X153365502Y-132451687D01*
X153500350Y-132401392D01*
X153615565Y-132315142D01*
X153701815Y-132199927D01*
X153752110Y-132065079D01*
X153758519Y-132005469D01*
X153758518Y-129809724D01*
X153752110Y-129750113D01*
X153701815Y-129615265D01*
X153701814Y-129615264D01*
X153701812Y-129615260D01*
X153615566Y-129500051D01*
X153615563Y-129500048D01*
X153500354Y-129413802D01*
X153500347Y-129413798D01*
X153365501Y-129363504D01*
X153365502Y-129363504D01*
X153305902Y-129357097D01*
X153305900Y-129357096D01*
X153305892Y-129357096D01*
X153305883Y-129357096D01*
X151110148Y-129357096D01*
X151110142Y-129357097D01*
X151050535Y-129363504D01*
X150915690Y-129413798D01*
X150915683Y-129413802D01*
X150800474Y-129500048D01*
X150800471Y-129500051D01*
X150714225Y-129615260D01*
X150714221Y-129615267D01*
X150663927Y-129750113D01*
X150657722Y-129807837D01*
X150657520Y-129809719D01*
X150657519Y-129809731D01*
X150657519Y-132005466D01*
X149142337Y-132005466D01*
X148684476Y-131547606D01*
X148725714Y-131531967D01*
X148865614Y-131435402D01*
X148978339Y-131308162D01*
X149038158Y-131194183D01*
X149659513Y-131815538D01*
X149783350Y-131613457D01*
X149876715Y-131388053D01*
X149933670Y-131150815D01*
X149952811Y-130907595D01*
X149933670Y-130664376D01*
X149876715Y-130427138D01*
X149783350Y-130201734D01*
X149659513Y-129999652D01*
X149038158Y-130621007D01*
X148978339Y-130507030D01*
X148865614Y-130379790D01*
X148725714Y-130283225D01*
X148684476Y-130267585D01*
X149305961Y-129646100D01*
X149103880Y-129522264D01*
X148878476Y-129428899D01*
X148641238Y-129371944D01*
X148641239Y-129371944D01*
X148398018Y-129352803D01*
X148154799Y-129371944D01*
X147917561Y-129428899D01*
X147692165Y-129522261D01*
X147692160Y-129522264D01*
X147490075Y-129646100D01*
X148111561Y-130267585D01*
X148070324Y-130283225D01*
X147930424Y-130379790D01*
X147817699Y-130507030D01*
X147757879Y-130621008D01*
X147136523Y-129999652D01*
X147012687Y-130201737D01*
X147012684Y-130201742D01*
X146919322Y-130427138D01*
X146862367Y-130664376D01*
X146843226Y-130907595D01*
X146143313Y-130907595D01*
X146124165Y-130664294D01*
X146067191Y-130426984D01*
X146047643Y-130379790D01*
X145973796Y-130201506D01*
X145846281Y-129993422D01*
X145846280Y-129993419D01*
X145810472Y-129951493D01*
X145687778Y-129807837D01*
X145565082Y-129703045D01*
X145502195Y-129649334D01*
X145502192Y-129649333D01*
X145294108Y-129521818D01*
X145068637Y-129428426D01*
X145068640Y-129428426D01*
X144963011Y-129403066D01*
X144831321Y-129371450D01*
X144831319Y-129371449D01*
X144831316Y-129371449D01*
X144588019Y-129352302D01*
X144344721Y-129371449D01*
X144344716Y-129371450D01*
X144344717Y-129371450D01*
X144168320Y-129413800D01*
X144107399Y-129428426D01*
X143881929Y-129521818D01*
X143673845Y-129649333D01*
X143673842Y-129649334D01*
X143488260Y-129807837D01*
X143329757Y-129993419D01*
X143329756Y-129993422D01*
X143202241Y-130201506D01*
X143108849Y-130426976D01*
X143051872Y-130664298D01*
X143032725Y-130907596D01*
X110185130Y-130907596D01*
X110192271Y-126473096D01*
X116119726Y-126473096D01*
X116138867Y-126716315D01*
X116195822Y-126953553D01*
X116289187Y-127178957D01*
X116413023Y-127381038D01*
X117034378Y-126759682D01*
X117094199Y-126873662D01*
X117206924Y-127000902D01*
X117346824Y-127097467D01*
X117388060Y-127113106D01*
X116766575Y-127734590D01*
X116968657Y-127858427D01*
X117194061Y-127951792D01*
X117431299Y-128008747D01*
X117431298Y-128008747D01*
X117674519Y-128027888D01*
X117917738Y-128008747D01*
X118154976Y-127951792D01*
X118380380Y-127858427D01*
X118582461Y-127734590D01*
X117960976Y-127113106D01*
X118002214Y-127097467D01*
X118142114Y-127000902D01*
X118254839Y-126873662D01*
X118314658Y-126759683D01*
X118936013Y-127381038D01*
X119059850Y-127178957D01*
X119153215Y-126953553D01*
X119210170Y-126716315D01*
X119229311Y-126473096D01*
X119210170Y-126229876D01*
X119153215Y-125992638D01*
X119059850Y-125767234D01*
X118936013Y-125565152D01*
X118314658Y-126186507D01*
X118254839Y-126072530D01*
X118142114Y-125945290D01*
X118002214Y-125848725D01*
X117960976Y-125833085D01*
X118582461Y-125211600D01*
X118380380Y-125087764D01*
X118154976Y-124994399D01*
X117917738Y-124937444D01*
X117917739Y-124937444D01*
X117674519Y-124918303D01*
X117431299Y-124937444D01*
X117194061Y-124994399D01*
X116968665Y-125087761D01*
X116968660Y-125087764D01*
X116766575Y-125211600D01*
X117388061Y-125833085D01*
X117346824Y-125848725D01*
X117206924Y-125945290D01*
X117094199Y-126072530D01*
X117034379Y-126186508D01*
X116413023Y-125565152D01*
X116289187Y-125767237D01*
X116289184Y-125767242D01*
X116195822Y-125992638D01*
X116138867Y-126229876D01*
X116119726Y-126473096D01*
X110192271Y-126473096D01*
X110198406Y-122663095D01*
X116119726Y-122663095D01*
X116138867Y-122906315D01*
X116195822Y-123143553D01*
X116289187Y-123368957D01*
X116413023Y-123571038D01*
X117034378Y-122949682D01*
X117094199Y-123063662D01*
X117206924Y-123190902D01*
X117346824Y-123287467D01*
X117388060Y-123303106D01*
X116766575Y-123924590D01*
X116968657Y-124048427D01*
X117194061Y-124141792D01*
X117431299Y-124198747D01*
X117431298Y-124198747D01*
X117674518Y-124217888D01*
X117917738Y-124198747D01*
X118154976Y-124141792D01*
X118380380Y-124048427D01*
X118582461Y-123924590D01*
X117960976Y-123303106D01*
X118002214Y-123287467D01*
X118142114Y-123190902D01*
X118254839Y-123063662D01*
X118314658Y-122949683D01*
X118936013Y-123571038D01*
X119059850Y-123368957D01*
X119093551Y-123287596D01*
X129516360Y-123287596D01*
X129536955Y-123522999D01*
X129536957Y-123523009D01*
X129598113Y-123751251D01*
X129598115Y-123751255D01*
X129598116Y-123751259D01*
X129678942Y-123924590D01*
X129697984Y-123965426D01*
X129697986Y-123965430D01*
X129782338Y-124085896D01*
X129823874Y-124145216D01*
X129833520Y-124158991D01*
X129833525Y-124158998D01*
X129955449Y-124280922D01*
X129988934Y-124342245D01*
X129983950Y-124411937D01*
X129942078Y-124467870D01*
X129911102Y-124484785D01*
X129779688Y-124533799D01*
X129779683Y-124533802D01*
X129664474Y-124620048D01*
X129664471Y-124620051D01*
X129578225Y-124735260D01*
X129578221Y-124735267D01*
X129527927Y-124870113D01*
X129521520Y-124929712D01*
X129521519Y-124929731D01*
X129521519Y-126725466D01*
X129521520Y-126725472D01*
X129527927Y-126785079D01*
X129578221Y-126919924D01*
X129578225Y-126919931D01*
X129664471Y-127035140D01*
X129664474Y-127035143D01*
X129779683Y-127121389D01*
X129779690Y-127121393D01*
X129914536Y-127171687D01*
X129914535Y-127171687D01*
X129921463Y-127172431D01*
X129974146Y-127178096D01*
X131769891Y-127178095D01*
X131829502Y-127171687D01*
X131964350Y-127121392D01*
X132079565Y-127035142D01*
X132165815Y-126919927D01*
X132169979Y-126908761D01*
X132211848Y-126852830D01*
X132277312Y-126828412D01*
X132286160Y-126828096D01*
X134669303Y-126828096D01*
X134758377Y-126830353D01*
X134758377Y-126830352D01*
X134758382Y-126830353D01*
X134818772Y-126819528D01*
X134823431Y-126818876D01*
X134865626Y-126814584D01*
X134884457Y-126812670D01*
X134917246Y-126802382D01*
X134924859Y-126800514D01*
X134958672Y-126794454D01*
X135015640Y-126771697D01*
X135020072Y-126770120D01*
X135078607Y-126751755D01*
X135108646Y-126735080D01*
X135115727Y-126731718D01*
X135147636Y-126718973D01*
X135198873Y-126685204D01*
X135202870Y-126682783D01*
X135256521Y-126653005D01*
X135282587Y-126630626D01*
X135288862Y-126625896D01*
X135317538Y-126606998D01*
X135360911Y-126563623D01*
X135364369Y-126560419D01*
X135367632Y-126557616D01*
X135410914Y-126520462D01*
X135431947Y-126493287D01*
X135437117Y-126487417D01*
X138346359Y-123578176D01*
X138442717Y-123460003D01*
X138536928Y-123279645D01*
X138592906Y-123084014D01*
X138608356Y-122881120D01*
X138582649Y-122679268D01*
X138516835Y-122486724D01*
X138413610Y-122311369D01*
X138358867Y-122250777D01*
X138277199Y-122160383D01*
X138277197Y-122160382D01*
X138113191Y-122039950D01*
X138113179Y-122039942D01*
X137928294Y-121954993D01*
X137928283Y-121954989D01*
X137730073Y-121908992D01*
X137526660Y-121903838D01*
X137326370Y-121939736D01*
X137326363Y-121939738D01*
X137188546Y-121994789D01*
X137137402Y-122015218D01*
X137137398Y-122015220D01*
X137137395Y-122015222D01*
X136967500Y-122127193D01*
X136967499Y-122127194D01*
X134303918Y-124790777D01*
X134242595Y-124824262D01*
X134216237Y-124827096D01*
X132286160Y-124827096D01*
X132219121Y-124807411D01*
X132173366Y-124754607D01*
X132169988Y-124746455D01*
X132165815Y-124735265D01*
X132165812Y-124735261D01*
X132165812Y-124735260D01*
X132079566Y-124620051D01*
X132079563Y-124620048D01*
X131964354Y-124533802D01*
X131964347Y-124533798D01*
X131949546Y-124528278D01*
X131893612Y-124486407D01*
X131869195Y-124420942D01*
X131884047Y-124352669D01*
X131933452Y-124303264D01*
X131992879Y-124288096D01*
X132510303Y-124288096D01*
X132599377Y-124290353D01*
X132599377Y-124290352D01*
X132599382Y-124290353D01*
X132659772Y-124279528D01*
X132664431Y-124278876D01*
X132706626Y-124274584D01*
X132725457Y-124272670D01*
X132758246Y-124262382D01*
X132765859Y-124260514D01*
X132799672Y-124254454D01*
X132856640Y-124231697D01*
X132861072Y-124230120D01*
X132919607Y-124211755D01*
X132949646Y-124195080D01*
X132956727Y-124191718D01*
X132988636Y-124178973D01*
X133039873Y-124145204D01*
X133043870Y-124142783D01*
X133097521Y-124113005D01*
X133123587Y-124090626D01*
X133129862Y-124085896D01*
X133158538Y-124066998D01*
X133201936Y-124023598D01*
X133205355Y-124020430D01*
X133251914Y-123980462D01*
X133272950Y-123953284D01*
X133278120Y-123947414D01*
X135634506Y-121591029D01*
X135699072Y-121529655D01*
X135734116Y-121479305D01*
X135736943Y-121475553D01*
X135775717Y-121428003D01*
X135791626Y-121397544D01*
X135795686Y-121390844D01*
X135815314Y-121362645D01*
X135839511Y-121306256D01*
X135841517Y-121302031D01*
X135869928Y-121247645D01*
X135879376Y-121214618D01*
X135882007Y-121207229D01*
X135895559Y-121175654D01*
X135907914Y-121115526D01*
X135909018Y-121111025D01*
X135925905Y-121052014D01*
X135928513Y-121017753D01*
X135929604Y-121009985D01*
X135936519Y-120976339D01*
X135936519Y-120914994D01*
X135936698Y-120910284D01*
X135938447Y-120887318D01*
X135941356Y-120849120D01*
X135937016Y-120815038D01*
X135936519Y-120807199D01*
X135936519Y-114355378D01*
X135956204Y-114288339D01*
X135972833Y-114267702D01*
X138346360Y-111894176D01*
X138442717Y-111776003D01*
X138536928Y-111595645D01*
X138570993Y-111476596D01*
X142158559Y-111476596D01*
X142178345Y-111664852D01*
X142178346Y-111664855D01*
X142236837Y-111844873D01*
X142236840Y-111844880D01*
X142331486Y-112008812D01*
X142364759Y-112045765D01*
X142406669Y-112092311D01*
X142436899Y-112155302D01*
X142438519Y-112175283D01*
X142438519Y-112917850D01*
X142436794Y-112933468D01*
X142437080Y-112933495D01*
X142436345Y-112941262D01*
X142438518Y-113010410D01*
X142438518Y-113039947D01*
X142439387Y-113046828D01*
X142439845Y-113052647D01*
X142441309Y-113099220D01*
X142441310Y-113099223D01*
X142446899Y-113118463D01*
X142450843Y-113137507D01*
X142453355Y-113157388D01*
X142459593Y-113173143D01*
X142470509Y-113200715D01*
X142472401Y-113206243D01*
X142485400Y-113250984D01*
X142495599Y-113268230D01*
X142504155Y-113285696D01*
X142511533Y-113304328D01*
X142534680Y-113336188D01*
X142538917Y-113342019D01*
X142542125Y-113346903D01*
X142565846Y-113387012D01*
X142565852Y-113387020D01*
X142580009Y-113401176D01*
X142592646Y-113415971D01*
X142604425Y-113432183D01*
X142638154Y-113460086D01*
X142640328Y-113461884D01*
X142644639Y-113465806D01*
X144307201Y-115128368D01*
X144340685Y-115189689D01*
X144343519Y-115216047D01*
X144343519Y-119648851D01*
X144341794Y-119664468D01*
X144342080Y-119664495D01*
X144341345Y-119672261D01*
X144343519Y-119741410D01*
X144343519Y-119770939D01*
X144343520Y-119770956D01*
X144344387Y-119777827D01*
X144344845Y-119783646D01*
X144346309Y-119830220D01*
X144346310Y-119830223D01*
X144351899Y-119849463D01*
X144355843Y-119868507D01*
X144356856Y-119876522D01*
X144358355Y-119888387D01*
X144375509Y-119931715D01*
X144377401Y-119937243D01*
X144390400Y-119981984D01*
X144400599Y-119999230D01*
X144409155Y-120016696D01*
X144411111Y-120021634D01*
X144416533Y-120035328D01*
X144443917Y-120073019D01*
X144447125Y-120077903D01*
X144470846Y-120118012D01*
X144470852Y-120118020D01*
X144485009Y-120132176D01*
X144497647Y-120146972D01*
X144509424Y-120163182D01*
X144509425Y-120163183D01*
X144545328Y-120192884D01*
X144549639Y-120196806D01*
X145310272Y-120957440D01*
X145554057Y-121201225D01*
X145587542Y-121262548D01*
X145589697Y-121275944D01*
X145597987Y-121354823D01*
X145607345Y-121443852D01*
X145607346Y-121443855D01*
X145665837Y-121623873D01*
X145665840Y-121623880D01*
X145760486Y-121787812D01*
X145869597Y-121908992D01*
X145887148Y-121928484D01*
X146040284Y-122039744D01*
X146040289Y-122039747D01*
X146213211Y-122116738D01*
X146213216Y-122116740D01*
X146398373Y-122156096D01*
X146398374Y-122156096D01*
X146587663Y-122156096D01*
X146587665Y-122156096D01*
X146772822Y-122116740D01*
X146945749Y-122039747D01*
X147098890Y-121928484D01*
X147225552Y-121787812D01*
X147320198Y-121623880D01*
X147378693Y-121443852D01*
X147398479Y-121255596D01*
X147378693Y-121067340D01*
X147320198Y-120887312D01*
X147225552Y-120723380D01*
X147098890Y-120582708D01*
X147098889Y-120582707D01*
X146945753Y-120471447D01*
X146945748Y-120471444D01*
X146772826Y-120394453D01*
X146772821Y-120394451D01*
X146627020Y-120363461D01*
X146587665Y-120355096D01*
X146587664Y-120355096D01*
X146528472Y-120355096D01*
X146461433Y-120335411D01*
X146440791Y-120318777D01*
X145630838Y-119508823D01*
X145597353Y-119447500D01*
X145594519Y-119421142D01*
X145594519Y-114988338D01*
X145596243Y-114972718D01*
X145595958Y-114972692D01*
X145596690Y-114964936D01*
X145596692Y-114964929D01*
X145594519Y-114895781D01*
X145594519Y-114866246D01*
X145593650Y-114859368D01*
X145593191Y-114853539D01*
X145591728Y-114806968D01*
X145586141Y-114787740D01*
X145582193Y-114768680D01*
X145579682Y-114748800D01*
X145562531Y-114705483D01*
X145560638Y-114699954D01*
X145547637Y-114655205D01*
X145547635Y-114655202D01*
X145537442Y-114637967D01*
X145528880Y-114620490D01*
X145521506Y-114601866D01*
X145521505Y-114601864D01*
X145494098Y-114564141D01*
X145490907Y-114559282D01*
X145467191Y-114519179D01*
X145467184Y-114519170D01*
X145453025Y-114505011D01*
X145440387Y-114490215D01*
X145439210Y-114488595D01*
X145428613Y-114474009D01*
X145427584Y-114473158D01*
X145392707Y-114444305D01*
X145388395Y-114440382D01*
X145302208Y-114354195D01*
X145268723Y-114292872D01*
X145273707Y-114223180D01*
X145315579Y-114167247D01*
X145364108Y-114145224D01*
X145502822Y-114115740D01*
X145675749Y-114038747D01*
X145828890Y-113927484D01*
X145955552Y-113786812D01*
X146050198Y-113622880D01*
X146108693Y-113442852D01*
X146128479Y-113254596D01*
X146108693Y-113066340D01*
X146050198Y-112886312D01*
X145955552Y-112722380D01*
X145876070Y-112634106D01*
X145845840Y-112571114D01*
X145844220Y-112551134D01*
X145844220Y-111789984D01*
X145863905Y-111722945D01*
X145876070Y-111707012D01*
X145914028Y-111664855D01*
X145951253Y-111623513D01*
X146045899Y-111459581D01*
X146104394Y-111279553D01*
X146124180Y-111091297D01*
X146104394Y-110903041D01*
X146045899Y-110723013D01*
X145951253Y-110559081D01*
X145824591Y-110418409D01*
X145824590Y-110418408D01*
X145671454Y-110307148D01*
X145671449Y-110307145D01*
X145498527Y-110230154D01*
X145498522Y-110230152D01*
X145352721Y-110199162D01*
X145313366Y-110190797D01*
X145124074Y-110190797D01*
X145091617Y-110197695D01*
X144938917Y-110230152D01*
X144938912Y-110230154D01*
X144765990Y-110307145D01*
X144765985Y-110307148D01*
X144612849Y-110418408D01*
X144486186Y-110559082D01*
X144391541Y-110723012D01*
X144391538Y-110723019D01*
X144365321Y-110803708D01*
X144333046Y-110903041D01*
X144313260Y-111091297D01*
X144333046Y-111279553D01*
X144333047Y-111279556D01*
X144391538Y-111459574D01*
X144391541Y-111459581D01*
X144486187Y-111623513D01*
X144523409Y-111664852D01*
X144561370Y-111707012D01*
X144591600Y-111770003D01*
X144593220Y-111789984D01*
X144593220Y-112560683D01*
X144573535Y-112627722D01*
X144561370Y-112643655D01*
X144490485Y-112722381D01*
X144395840Y-112886311D01*
X144395837Y-112886318D01*
X144342743Y-113049726D01*
X144337345Y-113066340D01*
X144333800Y-113100068D01*
X144307216Y-113164680D01*
X144249919Y-113204665D01*
X144180100Y-113207325D01*
X144122799Y-113174785D01*
X143725838Y-112777824D01*
X143692353Y-112716501D01*
X143689519Y-112690143D01*
X143689519Y-112175283D01*
X143709204Y-112108244D01*
X143721369Y-112092311D01*
X143739910Y-112071718D01*
X143796552Y-112008812D01*
X143891198Y-111844880D01*
X143949693Y-111664852D01*
X143969479Y-111476596D01*
X143949693Y-111288340D01*
X143891198Y-111108312D01*
X143796552Y-110944380D01*
X143669890Y-110803708D01*
X143669889Y-110803707D01*
X143516753Y-110692447D01*
X143516748Y-110692444D01*
X143343826Y-110615453D01*
X143343821Y-110615451D01*
X143198020Y-110584461D01*
X143158665Y-110576096D01*
X142969373Y-110576096D01*
X142936916Y-110582994D01*
X142784216Y-110615451D01*
X142784211Y-110615453D01*
X142611289Y-110692444D01*
X142611284Y-110692447D01*
X142458148Y-110803707D01*
X142331485Y-110944381D01*
X142236840Y-111108311D01*
X142236837Y-111108318D01*
X142181200Y-111279553D01*
X142178345Y-111288340D01*
X142158559Y-111476596D01*
X138570993Y-111476596D01*
X138592906Y-111400014D01*
X138608356Y-111197119D01*
X138605853Y-111177469D01*
X138582650Y-110995274D01*
X138582649Y-110995272D01*
X138582649Y-110995268D01*
X138516835Y-110802723D01*
X138469916Y-110723019D01*
X138413612Y-110627372D01*
X138413611Y-110627371D01*
X138413610Y-110627369D01*
X138277198Y-110476382D01*
X138277197Y-110476381D01*
X138277196Y-110476380D01*
X138113189Y-110355949D01*
X138113182Y-110355944D01*
X137928292Y-110270991D01*
X137928283Y-110270988D01*
X137730073Y-110224992D01*
X137526658Y-110219839D01*
X137526655Y-110219839D01*
X137326370Y-110255735D01*
X137326364Y-110255737D01*
X137137406Y-110331215D01*
X137137396Y-110331221D01*
X136967500Y-110443193D01*
X134237551Y-113173142D01*
X134172965Y-113234538D01*
X134137918Y-113284890D01*
X134135081Y-113288652D01*
X134096321Y-113336188D01*
X134096318Y-113336193D01*
X134080411Y-113366643D01*
X134076343Y-113373357D01*
X134056721Y-113401550D01*
X134032528Y-113457926D01*
X134030507Y-113462180D01*
X134002110Y-113516547D01*
X134002109Y-113516548D01*
X133992659Y-113549571D01*
X133990026Y-113556967D01*
X133976478Y-113588539D01*
X133964132Y-113648615D01*
X133963009Y-113653191D01*
X133946132Y-113712173D01*
X133946132Y-113712175D01*
X133943522Y-113746437D01*
X133942433Y-113754204D01*
X133938547Y-113773119D01*
X133935519Y-113787854D01*
X133935519Y-113849193D01*
X133935340Y-113853902D01*
X133930682Y-113915072D01*
X133935021Y-113949149D01*
X133935518Y-113956988D01*
X133935518Y-120408813D01*
X133915833Y-120475852D01*
X133899199Y-120496494D01*
X132144918Y-122250777D01*
X132083595Y-122284262D01*
X132057237Y-122287096D01*
X131832777Y-122287096D01*
X131765738Y-122267411D01*
X131745096Y-122250777D01*
X131743421Y-122249102D01*
X131743420Y-122249101D01*
X131569319Y-122127194D01*
X131557424Y-122118865D01*
X131513800Y-122064288D01*
X131506607Y-121994789D01*
X131538129Y-121932435D01*
X131557424Y-121915715D01*
X131743101Y-121785701D01*
X131910124Y-121618678D01*
X132045619Y-121425174D01*
X132145448Y-121211088D01*
X132145451Y-121211082D01*
X132202655Y-120997596D01*
X131305705Y-120997596D01*
X131331512Y-120957440D01*
X131372019Y-120819485D01*
X131372019Y-120675707D01*
X131331512Y-120537752D01*
X131305705Y-120497596D01*
X132202655Y-120497596D01*
X132202654Y-120497595D01*
X132145451Y-120284109D01*
X132145448Y-120284103D01*
X132045619Y-120070018D01*
X132045618Y-120070016D01*
X131910132Y-119876522D01*
X131910127Y-119876516D01*
X131743097Y-119709486D01*
X131557424Y-119579475D01*
X131513799Y-119524898D01*
X131506607Y-119455400D01*
X131538129Y-119393045D01*
X131557425Y-119376326D01*
X131743420Y-119246091D01*
X131910514Y-119078997D01*
X132046054Y-118885426D01*
X132145922Y-118671259D01*
X132207082Y-118443004D01*
X132227678Y-118207596D01*
X132207082Y-117972188D01*
X132145922Y-117743933D01*
X132046054Y-117529767D01*
X132012757Y-117482213D01*
X131910513Y-117336193D01*
X131743421Y-117169102D01*
X131743415Y-117169097D01*
X131557861Y-117039171D01*
X131514236Y-116984594D01*
X131507042Y-116915096D01*
X131538565Y-116852741D01*
X131557861Y-116836021D01*
X131580045Y-116820487D01*
X131743420Y-116706091D01*
X131910514Y-116538997D01*
X132046054Y-116345426D01*
X132145922Y-116131259D01*
X132207082Y-115903004D01*
X132227678Y-115667596D01*
X132207082Y-115432188D01*
X132145922Y-115203933D01*
X132046054Y-114989767D01*
X132045054Y-114988338D01*
X131910513Y-114796193D01*
X131743421Y-114629102D01*
X131743414Y-114629097D01*
X131549853Y-114493563D01*
X131549849Y-114493561D01*
X131546178Y-114491849D01*
X131335682Y-114393693D01*
X131335678Y-114393692D01*
X131335674Y-114393690D01*
X131107432Y-114332534D01*
X131107422Y-114332532D01*
X130872020Y-114311937D01*
X130872018Y-114311937D01*
X130636615Y-114332532D01*
X130636605Y-114332534D01*
X130408363Y-114393690D01*
X130408354Y-114393694D01*
X130194190Y-114493560D01*
X130194188Y-114493561D01*
X130000616Y-114629101D01*
X129833524Y-114796193D01*
X129697984Y-114989765D01*
X129697983Y-114989767D01*
X129598117Y-115203931D01*
X129598113Y-115203940D01*
X129536957Y-115432182D01*
X129536955Y-115432192D01*
X129516360Y-115667595D01*
X129516360Y-115667596D01*
X129536955Y-115902999D01*
X129536957Y-115903009D01*
X129598113Y-116131251D01*
X129598115Y-116131255D01*
X129598116Y-116131259D01*
X129630389Y-116200468D01*
X129697984Y-116345426D01*
X129697986Y-116345430D01*
X129833520Y-116538991D01*
X129833525Y-116538998D01*
X130000616Y-116706089D01*
X130000622Y-116706094D01*
X130186177Y-116836021D01*
X130229802Y-116890598D01*
X130236996Y-116960096D01*
X130205473Y-117022451D01*
X130186177Y-117039171D01*
X130000616Y-117169101D01*
X129833524Y-117336193D01*
X129697984Y-117529765D01*
X129697983Y-117529767D01*
X129598117Y-117743931D01*
X129598113Y-117743940D01*
X129536957Y-117972182D01*
X129536955Y-117972192D01*
X129516360Y-118207595D01*
X129516360Y-118207596D01*
X129536955Y-118442999D01*
X129536957Y-118443009D01*
X129598113Y-118671251D01*
X129598115Y-118671255D01*
X129598116Y-118671259D01*
X129671251Y-118828096D01*
X129697984Y-118885426D01*
X129697986Y-118885430D01*
X129734860Y-118938091D01*
X129833081Y-119078365D01*
X129833520Y-119078991D01*
X129833525Y-119078998D01*
X130000616Y-119246089D01*
X130000622Y-119246094D01*
X130034845Y-119270057D01*
X130130586Y-119337096D01*
X130186613Y-119376326D01*
X130230238Y-119430903D01*
X130237432Y-119500401D01*
X130205909Y-119562756D01*
X130186614Y-119579476D01*
X130000941Y-119709486D01*
X130000939Y-119709487D01*
X129833910Y-119876516D01*
X129833905Y-119876522D01*
X129698419Y-120070016D01*
X129698418Y-120070018D01*
X129598589Y-120284103D01*
X129598586Y-120284109D01*
X129541383Y-120497595D01*
X129541383Y-120497596D01*
X130438333Y-120497596D01*
X130412526Y-120537752D01*
X130372019Y-120675707D01*
X130372019Y-120819485D01*
X130412526Y-120957440D01*
X130438333Y-120997596D01*
X129541383Y-120997596D01*
X129598586Y-121211082D01*
X129598589Y-121211088D01*
X129698418Y-121425174D01*
X129833913Y-121618678D01*
X130000936Y-121785701D01*
X130186614Y-121915715D01*
X130230238Y-121970292D01*
X130237431Y-122039791D01*
X130205909Y-122102145D01*
X130186614Y-122118865D01*
X130000613Y-122249104D01*
X129833524Y-122416193D01*
X129697984Y-122609765D01*
X129697983Y-122609767D01*
X129598117Y-122823931D01*
X129598113Y-122823940D01*
X129536957Y-123052182D01*
X129536955Y-123052192D01*
X129516360Y-123287595D01*
X129516360Y-123287596D01*
X119093551Y-123287596D01*
X119153215Y-123143553D01*
X119210170Y-122906315D01*
X119229311Y-122663095D01*
X119210170Y-122419876D01*
X119153215Y-122182638D01*
X119059850Y-121957234D01*
X118936013Y-121755152D01*
X118314658Y-122376507D01*
X118254839Y-122262530D01*
X118142114Y-122135290D01*
X118002214Y-122038725D01*
X117960976Y-122023085D01*
X118582461Y-121401600D01*
X118380380Y-121277764D01*
X118154976Y-121184399D01*
X117917738Y-121127444D01*
X117917739Y-121127444D01*
X117674519Y-121108303D01*
X117431299Y-121127444D01*
X117194061Y-121184399D01*
X116968665Y-121277761D01*
X116968660Y-121277764D01*
X116766575Y-121401600D01*
X117388061Y-122023085D01*
X117346824Y-122038725D01*
X117206924Y-122135290D01*
X117094199Y-122262530D01*
X117034379Y-122376508D01*
X116413023Y-121755152D01*
X116289187Y-121957237D01*
X116289184Y-121957242D01*
X116195822Y-122182638D01*
X116138867Y-122419876D01*
X116119726Y-122663095D01*
X110198406Y-122663095D01*
X110204541Y-118853095D01*
X116119726Y-118853095D01*
X116138867Y-119096315D01*
X116195822Y-119333553D01*
X116289187Y-119558957D01*
X116413023Y-119761038D01*
X117034378Y-119139682D01*
X117094199Y-119253662D01*
X117206924Y-119380902D01*
X117346824Y-119477467D01*
X117388060Y-119493106D01*
X116766575Y-120114590D01*
X116968657Y-120238427D01*
X117194061Y-120331792D01*
X117431299Y-120388747D01*
X117431298Y-120388747D01*
X117674519Y-120407888D01*
X117917738Y-120388747D01*
X118154976Y-120331792D01*
X118380380Y-120238427D01*
X118582461Y-120114590D01*
X117960976Y-119493106D01*
X118002214Y-119477467D01*
X118142114Y-119380902D01*
X118254839Y-119253662D01*
X118314658Y-119139683D01*
X118936013Y-119761038D01*
X119059850Y-119558957D01*
X119153215Y-119333553D01*
X119210170Y-119096315D01*
X119229311Y-118853095D01*
X119210170Y-118609876D01*
X119153215Y-118372638D01*
X119059850Y-118147234D01*
X118936013Y-117945152D01*
X118314658Y-118566507D01*
X118254839Y-118452530D01*
X118142114Y-118325290D01*
X118002214Y-118228725D01*
X117960976Y-118213085D01*
X118582461Y-117591600D01*
X118380380Y-117467764D01*
X118154976Y-117374399D01*
X117917738Y-117317444D01*
X117917739Y-117317444D01*
X117674519Y-117298303D01*
X117431299Y-117317444D01*
X117194061Y-117374399D01*
X116968665Y-117467761D01*
X116968660Y-117467764D01*
X116766575Y-117591600D01*
X117388061Y-118213085D01*
X117346824Y-118228725D01*
X117206924Y-118325290D01*
X117094199Y-118452530D01*
X117034379Y-118566507D01*
X116413023Y-117945152D01*
X116289187Y-118147237D01*
X116289184Y-118147242D01*
X116195822Y-118372638D01*
X116138867Y-118609876D01*
X116119726Y-118853095D01*
X110204541Y-118853095D01*
X110208909Y-116140923D01*
X116124518Y-116140923D01*
X116124519Y-116140940D01*
X116130920Y-116200468D01*
X116130922Y-116200475D01*
X116181164Y-116335182D01*
X116181168Y-116335189D01*
X116267328Y-116450283D01*
X116267331Y-116450286D01*
X116382425Y-116536446D01*
X116382432Y-116536450D01*
X116517139Y-116586692D01*
X116517146Y-116586694D01*
X116576674Y-116593095D01*
X116576691Y-116593096D01*
X117424519Y-116593096D01*
X117424519Y-115696933D01*
X117505768Y-115727747D01*
X117632179Y-115743096D01*
X117716859Y-115743096D01*
X117843270Y-115727747D01*
X117924519Y-115696933D01*
X117924519Y-116593096D01*
X118772347Y-116593096D01*
X118772363Y-116593095D01*
X118831891Y-116586694D01*
X118831898Y-116586692D01*
X118966605Y-116536450D01*
X118966612Y-116536446D01*
X119081706Y-116450286D01*
X119081709Y-116450283D01*
X119167869Y-116335189D01*
X119167873Y-116335182D01*
X119218115Y-116200475D01*
X119218117Y-116200468D01*
X119224518Y-116140940D01*
X119224518Y-116140923D01*
X119224519Y-115293096D01*
X118333848Y-115293096D01*
X118374519Y-115128091D01*
X118374519Y-114958101D01*
X118333848Y-114793096D01*
X119224519Y-114793096D01*
X119224518Y-113945268D01*
X119224518Y-113945251D01*
X119218117Y-113885723D01*
X119218115Y-113885716D01*
X119167873Y-113751009D01*
X119167869Y-113751002D01*
X119081709Y-113635908D01*
X119081706Y-113635905D01*
X118966612Y-113549745D01*
X118966605Y-113549741D01*
X118831898Y-113499499D01*
X118831891Y-113499497D01*
X118772363Y-113493096D01*
X117924519Y-113493096D01*
X117924519Y-114389258D01*
X117843270Y-114358445D01*
X117716859Y-114343096D01*
X117632179Y-114343096D01*
X117505768Y-114358445D01*
X117424519Y-114389258D01*
X117424519Y-113493096D01*
X116576674Y-113493096D01*
X116517146Y-113499497D01*
X116517139Y-113499499D01*
X116382432Y-113549741D01*
X116382425Y-113549745D01*
X116267331Y-113635905D01*
X116267328Y-113635908D01*
X116181168Y-113751002D01*
X116181164Y-113751009D01*
X116130922Y-113885716D01*
X116130920Y-113885723D01*
X116124519Y-113945251D01*
X116124518Y-113945268D01*
X116124519Y-114793096D01*
X117015190Y-114793096D01*
X116974519Y-114958101D01*
X116974519Y-115128091D01*
X117015190Y-115293096D01*
X116124519Y-115293096D01*
X116124518Y-116140923D01*
X110208909Y-116140923D01*
X110218665Y-110082586D01*
X122365518Y-110082586D01*
X122365520Y-110082605D01*
X122377071Y-110190046D01*
X122377073Y-110190058D01*
X122388279Y-110241568D01*
X122422402Y-110344093D01*
X122422405Y-110344099D01*
X122500190Y-110465133D01*
X122500198Y-110465144D01*
X122545942Y-110517936D01*
X122545945Y-110517939D01*
X122545949Y-110517943D01*
X122654683Y-110612163D01*
X122654686Y-110612164D01*
X122654687Y-110612165D01*
X122748944Y-110655212D01*
X122785560Y-110671934D01*
X122830376Y-110685093D01*
X122852594Y-110691618D01*
X122852599Y-110691619D01*
X122852603Y-110691620D01*
X122995019Y-110712096D01*
X122995022Y-110712096D01*
X134685009Y-110712096D01*
X134685019Y-110712096D01*
X134792475Y-110700543D01*
X134843986Y-110689337D01*
X134878216Y-110677943D01*
X134946516Y-110655212D01*
X134946520Y-110655209D01*
X134946523Y-110655209D01*
X135067562Y-110577421D01*
X135120366Y-110531666D01*
X135214586Y-110422932D01*
X135274357Y-110292055D01*
X135289183Y-110241563D01*
X135294041Y-110225021D01*
X135294042Y-110225015D01*
X135294043Y-110225012D01*
X135314519Y-110082596D01*
X135314519Y-109060596D01*
X135302966Y-108953140D01*
X135291760Y-108901629D01*
X135269507Y-108834769D01*
X135257635Y-108799098D01*
X135257632Y-108799092D01*
X135179847Y-108678058D01*
X135179844Y-108678053D01*
X135174643Y-108672051D01*
X135134095Y-108625255D01*
X135134091Y-108625252D01*
X135134089Y-108625249D01*
X135025355Y-108531029D01*
X135025352Y-108531027D01*
X135025350Y-108531026D01*
X134894484Y-108471260D01*
X134894479Y-108471258D01*
X134894478Y-108471258D01*
X134871877Y-108464621D01*
X134827444Y-108451574D01*
X134827438Y-108451572D01*
X134723085Y-108436569D01*
X134685019Y-108431096D01*
X134685017Y-108431096D01*
X132136519Y-108431096D01*
X132069480Y-108411411D01*
X132023725Y-108358607D01*
X132012519Y-108307096D01*
X132012519Y-101570596D01*
X145333559Y-101570596D01*
X145353345Y-101758852D01*
X145353346Y-101758855D01*
X145411837Y-101938873D01*
X145411840Y-101938880D01*
X145506486Y-102102812D01*
X145608195Y-102215771D01*
X145633148Y-102243484D01*
X145786284Y-102354744D01*
X145786289Y-102354747D01*
X145959211Y-102431738D01*
X145959216Y-102431740D01*
X146144373Y-102471096D01*
X146203567Y-102471096D01*
X146270606Y-102490781D01*
X146291248Y-102507415D01*
X153231216Y-109447384D01*
X153241041Y-109459647D01*
X153241262Y-109459465D01*
X153246233Y-109465474D01*
X153272236Y-109489891D01*
X153296654Y-109512822D01*
X153317548Y-109533716D01*
X153323030Y-109537969D01*
X153327462Y-109541753D01*
X153361437Y-109573658D01*
X153378995Y-109583310D01*
X153395254Y-109593991D01*
X153411083Y-109606269D01*
X153453857Y-109624778D01*
X153459075Y-109627334D01*
X153499927Y-109649793D01*
X153519335Y-109654776D01*
X153537736Y-109661076D01*
X153556123Y-109669033D01*
X153599507Y-109675904D01*
X153602138Y-109676321D01*
X153607858Y-109677505D01*
X153653000Y-109689096D01*
X153673035Y-109689096D01*
X153692433Y-109690622D01*
X153712213Y-109693755D01*
X153712214Y-109693756D01*
X153712214Y-109693755D01*
X153712215Y-109693756D01*
X153758602Y-109689371D01*
X153764441Y-109689096D01*
X157231567Y-109689096D01*
X157298606Y-109708781D01*
X157319248Y-109725415D01*
X159169747Y-111575915D01*
X159203232Y-111637238D01*
X159198248Y-111706930D01*
X159156376Y-111762863D01*
X159090912Y-111787280D01*
X159082066Y-111787596D01*
X157787148Y-111787596D01*
X157787142Y-111787597D01*
X157727535Y-111794004D01*
X157592690Y-111844298D01*
X157592683Y-111844302D01*
X157477474Y-111930548D01*
X157477471Y-111930551D01*
X157391225Y-112045760D01*
X157391222Y-112045765D01*
X157342208Y-112177179D01*
X157300336Y-112233112D01*
X157234872Y-112257529D01*
X157166599Y-112242677D01*
X157138345Y-112221526D01*
X157016421Y-112099602D01*
X157016414Y-112099597D01*
X156822853Y-111964063D01*
X156822849Y-111964061D01*
X156822847Y-111964060D01*
X156608682Y-111864193D01*
X156608678Y-111864192D01*
X156608674Y-111864190D01*
X156380432Y-111803034D01*
X156380422Y-111803032D01*
X156145020Y-111782437D01*
X156145018Y-111782437D01*
X155909615Y-111803032D01*
X155909605Y-111803034D01*
X155681363Y-111864190D01*
X155681354Y-111864194D01*
X155467190Y-111964060D01*
X155467188Y-111964061D01*
X155273616Y-112099601D01*
X155106524Y-112266693D01*
X154976594Y-112452254D01*
X154922017Y-112495879D01*
X154852519Y-112503073D01*
X154790164Y-112471550D01*
X154773444Y-112452254D01*
X154643513Y-112266693D01*
X154476421Y-112099602D01*
X154476414Y-112099597D01*
X154282853Y-111964063D01*
X154282849Y-111964061D01*
X154282847Y-111964060D01*
X154068682Y-111864193D01*
X154068678Y-111864192D01*
X154068674Y-111864190D01*
X153840432Y-111803034D01*
X153840422Y-111803032D01*
X153605020Y-111782437D01*
X153605018Y-111782437D01*
X153369615Y-111803032D01*
X153369605Y-111803034D01*
X153141363Y-111864190D01*
X153141354Y-111864194D01*
X152927190Y-111964060D01*
X152927188Y-111964061D01*
X152733616Y-112099601D01*
X152566527Y-112266690D01*
X152436593Y-112452256D01*
X152382016Y-112495880D01*
X152312517Y-112503073D01*
X152250163Y-112471551D01*
X152233448Y-112452260D01*
X152109889Y-112275800D01*
X152103512Y-112266692D01*
X151936421Y-112099602D01*
X151936414Y-112099597D01*
X151742853Y-111964063D01*
X151742849Y-111964061D01*
X151742847Y-111964060D01*
X151528682Y-111864193D01*
X151528678Y-111864192D01*
X151528674Y-111864190D01*
X151300432Y-111803034D01*
X151300422Y-111803032D01*
X151065020Y-111782437D01*
X151065018Y-111782437D01*
X150829615Y-111803032D01*
X150829605Y-111803034D01*
X150601363Y-111864190D01*
X150601354Y-111864194D01*
X150387190Y-111964060D01*
X150387188Y-111964061D01*
X150193616Y-112099601D01*
X150026524Y-112266693D01*
X149896594Y-112452254D01*
X149842017Y-112495879D01*
X149772519Y-112503073D01*
X149710164Y-112471550D01*
X149693444Y-112452254D01*
X149563513Y-112266693D01*
X149396421Y-112099602D01*
X149396414Y-112099597D01*
X149202853Y-111964063D01*
X149202849Y-111964061D01*
X149202847Y-111964060D01*
X148988682Y-111864193D01*
X148988678Y-111864192D01*
X148988674Y-111864190D01*
X148760432Y-111803034D01*
X148760422Y-111803032D01*
X148525020Y-111782437D01*
X148525018Y-111782437D01*
X148289615Y-111803032D01*
X148289605Y-111803034D01*
X148061363Y-111864190D01*
X148061354Y-111864194D01*
X147847190Y-111964060D01*
X147847188Y-111964061D01*
X147653616Y-112099601D01*
X147486524Y-112266693D01*
X147350984Y-112460265D01*
X147350983Y-112460267D01*
X147251117Y-112674431D01*
X147251113Y-112674440D01*
X147189957Y-112902682D01*
X147189955Y-112902692D01*
X147169360Y-113138095D01*
X147169360Y-113138096D01*
X147189955Y-113373499D01*
X147189957Y-113373509D01*
X147251113Y-113601751D01*
X147251115Y-113601755D01*
X147251116Y-113601759D01*
X147320713Y-113751009D01*
X147350984Y-113815926D01*
X147350986Y-113815930D01*
X147399856Y-113885723D01*
X147486524Y-114009497D01*
X147653618Y-114176591D01*
X147750403Y-114244360D01*
X147847184Y-114312128D01*
X147847186Y-114312129D01*
X147847189Y-114312131D01*
X148061356Y-114411999D01*
X148289611Y-114473159D01*
X148466053Y-114488596D01*
X148525018Y-114493755D01*
X148525019Y-114493755D01*
X148525020Y-114493755D01*
X148583985Y-114488596D01*
X148760427Y-114473159D01*
X148988682Y-114411999D01*
X149202849Y-114312131D01*
X149396420Y-114176591D01*
X149563514Y-114009497D01*
X149693443Y-113823938D01*
X149748021Y-113780313D01*
X149817519Y-113773119D01*
X149879874Y-113804642D01*
X149896594Y-113823938D01*
X150026519Y-114009491D01*
X150026524Y-114009497D01*
X150193618Y-114176591D01*
X150290403Y-114244360D01*
X150387184Y-114312128D01*
X150387186Y-114312129D01*
X150387189Y-114312131D01*
X150601356Y-114411999D01*
X150829611Y-114473159D01*
X151006053Y-114488596D01*
X151065018Y-114493755D01*
X151065019Y-114493755D01*
X151065020Y-114493755D01*
X151123985Y-114488596D01*
X151300427Y-114473159D01*
X151528682Y-114411999D01*
X151742849Y-114312131D01*
X151936420Y-114176591D01*
X152103514Y-114009497D01*
X152233443Y-113823938D01*
X152288021Y-113780313D01*
X152357519Y-113773119D01*
X152419874Y-113804642D01*
X152436594Y-113823938D01*
X152566519Y-114009491D01*
X152566524Y-114009497D01*
X152733618Y-114176591D01*
X152830403Y-114244360D01*
X152927184Y-114312128D01*
X152927186Y-114312129D01*
X152927189Y-114312131D01*
X153141356Y-114411999D01*
X153369611Y-114473159D01*
X153583236Y-114491849D01*
X153648304Y-114517302D01*
X153689283Y-114573892D01*
X153693161Y-114643654D01*
X153660109Y-114703058D01*
X153489502Y-114873665D01*
X153476929Y-114883739D01*
X153477084Y-114883926D01*
X153471078Y-114888894D01*
X153446453Y-114915116D01*
X153421828Y-114941340D01*
X153410967Y-114952200D01*
X153400107Y-114963061D01*
X153400097Y-114963073D01*
X153395606Y-114968861D01*
X153391820Y-114973293D01*
X153358571Y-115008702D01*
X153348341Y-115027309D01*
X153337665Y-115043560D01*
X153324659Y-115060328D01*
X153324655Y-115060334D01*
X153305367Y-115104907D01*
X153302796Y-115110154D01*
X153279391Y-115152726D01*
X153279391Y-115152727D01*
X153274110Y-115173295D01*
X153267810Y-115191697D01*
X153259383Y-115211169D01*
X153251785Y-115259143D01*
X153250600Y-115264866D01*
X153238519Y-115311914D01*
X153238519Y-115333140D01*
X153236992Y-115352540D01*
X153233672Y-115373499D01*
X153238244Y-115421863D01*
X153238519Y-115427702D01*
X153238519Y-117182888D01*
X153218834Y-117249927D01*
X153166030Y-117295682D01*
X153096872Y-117305626D01*
X153056067Y-117292247D01*
X153003750Y-117264284D01*
X153003749Y-117264283D01*
X153003746Y-117264282D01*
X152815151Y-117207072D01*
X152815148Y-117207071D01*
X152619019Y-117187755D01*
X152422889Y-117207071D01*
X152234285Y-117264284D01*
X152060486Y-117357182D01*
X152055418Y-117360569D01*
X152054324Y-117358932D01*
X151998356Y-117382692D01*
X151929490Y-117370891D01*
X151912862Y-117360205D01*
X151912620Y-117360569D01*
X151907551Y-117357182D01*
X151733752Y-117264284D01*
X151733746Y-117264282D01*
X151545151Y-117207072D01*
X151545148Y-117207071D01*
X151349019Y-117187755D01*
X151152889Y-117207071D01*
X150964285Y-117264284D01*
X150790486Y-117357182D01*
X150790479Y-117357186D01*
X150638135Y-117482212D01*
X150513109Y-117634556D01*
X150513105Y-117634563D01*
X150420207Y-117808362D01*
X150362994Y-117996966D01*
X150343678Y-118193096D01*
X150362994Y-118389225D01*
X150420206Y-118577825D01*
X150421340Y-118579946D01*
X150421599Y-118581190D01*
X150422537Y-118583455D01*
X150422107Y-118583632D01*
X150435583Y-118648349D01*
X150411252Y-118712710D01*
X150405224Y-118720762D01*
X150405221Y-118720767D01*
X150354927Y-118855613D01*
X150348520Y-118915212D01*
X150348519Y-118915231D01*
X150348519Y-120010966D01*
X150348520Y-120010972D01*
X150354927Y-120070579D01*
X150405221Y-120205424D01*
X150405225Y-120205431D01*
X150491471Y-120320640D01*
X150491474Y-120320643D01*
X150606683Y-120406889D01*
X150606690Y-120406893D01*
X150741536Y-120457187D01*
X150741535Y-120457187D01*
X150748463Y-120457931D01*
X150801146Y-120463596D01*
X151896891Y-120463595D01*
X151956502Y-120457187D01*
X151978131Y-120449120D01*
X152091348Y-120406893D01*
X152091348Y-120406892D01*
X152091350Y-120406892D01*
X152099841Y-120400535D01*
X152165303Y-120376117D01*
X152228647Y-120389598D01*
X152228849Y-120389112D01*
X152231480Y-120390201D01*
X152232604Y-120390441D01*
X152234481Y-120391444D01*
X152369019Y-120432255D01*
X152369019Y-119670768D01*
X152406890Y-119715901D01*
X152506148Y-119773208D01*
X152590583Y-119788096D01*
X152647455Y-119788096D01*
X152731890Y-119773208D01*
X152831148Y-119715901D01*
X152833502Y-119713096D01*
X152869019Y-119713096D01*
X152869019Y-120432255D01*
X153003553Y-120391445D01*
X153177278Y-120298588D01*
X153182339Y-120295207D01*
X153183377Y-120296761D01*
X153239658Y-120272855D01*
X153308526Y-120284643D01*
X153325478Y-120295537D01*
X153325699Y-120295207D01*
X153330759Y-120298588D01*
X153504484Y-120391445D01*
X153639019Y-120432255D01*
X153639019Y-119713096D01*
X152869019Y-119713096D01*
X152833502Y-119713096D01*
X152904820Y-119628103D01*
X152944019Y-119520402D01*
X152944019Y-119405790D01*
X152904820Y-119298089D01*
X152833502Y-119213096D01*
X153674536Y-119213096D01*
X153603218Y-119298089D01*
X153564019Y-119405790D01*
X153564019Y-119520402D01*
X153603218Y-119628103D01*
X153676890Y-119715901D01*
X153776148Y-119773208D01*
X153860583Y-119788096D01*
X153917455Y-119788096D01*
X154001890Y-119773208D01*
X154101148Y-119715901D01*
X154139019Y-119670768D01*
X154139019Y-120432255D01*
X154273553Y-120391445D01*
X154447278Y-120298588D01*
X154452339Y-120295207D01*
X154453463Y-120296889D01*
X154509222Y-120273182D01*
X154578094Y-120284947D01*
X154595205Y-120295939D01*
X154595418Y-120295622D01*
X154600476Y-120299002D01*
X154600481Y-120299006D01*
X154668590Y-120335411D01*
X154771543Y-120390441D01*
X154774292Y-120391910D01*
X154962887Y-120449120D01*
X155159019Y-120468437D01*
X155355151Y-120449120D01*
X155543746Y-120391910D01*
X155717557Y-120299006D01*
X155717563Y-120299000D01*
X155722626Y-120295619D01*
X155723722Y-120297260D01*
X155779658Y-120273501D01*
X155848526Y-120285290D01*
X155865167Y-120295984D01*
X155865412Y-120295619D01*
X155870477Y-120299003D01*
X155870481Y-120299006D01*
X155975418Y-120355096D01*
X156041543Y-120390441D01*
X156044292Y-120391910D01*
X156232887Y-120449120D01*
X156429019Y-120468437D01*
X156625151Y-120449120D01*
X156813746Y-120391910D01*
X156816495Y-120390441D01*
X156947079Y-120320642D01*
X156987557Y-120299006D01*
X157139902Y-120173979D01*
X157264929Y-120021634D01*
X157342496Y-119876516D01*
X157357830Y-119847829D01*
X157357830Y-119847828D01*
X157357833Y-119847823D01*
X157415043Y-119659228D01*
X157434360Y-119463096D01*
X157415043Y-119266964D01*
X157357833Y-119078369D01*
X157264929Y-118904558D01*
X157264926Y-118904554D01*
X157261542Y-118899489D01*
X157263183Y-118898392D01*
X157239424Y-118842457D01*
X157251213Y-118773589D01*
X157261907Y-118756947D01*
X157261542Y-118756703D01*
X157264923Y-118751640D01*
X157264929Y-118751634D01*
X157357833Y-118577823D01*
X157415043Y-118389228D01*
X157434360Y-118193096D01*
X157415043Y-117996964D01*
X157357833Y-117808369D01*
X157357830Y-117808365D01*
X157357830Y-117808362D01*
X157264932Y-117634563D01*
X157264928Y-117634556D01*
X157139902Y-117482212D01*
X156987558Y-117357186D01*
X156987551Y-117357182D01*
X156813752Y-117264284D01*
X156813746Y-117264282D01*
X156625151Y-117207072D01*
X156625148Y-117207071D01*
X156429019Y-117187755D01*
X156232889Y-117207071D01*
X156044285Y-117264284D01*
X155870486Y-117357182D01*
X155865418Y-117360569D01*
X155864324Y-117358932D01*
X155808356Y-117382692D01*
X155739490Y-117370891D01*
X155722862Y-117360205D01*
X155722620Y-117360569D01*
X155717551Y-117357182D01*
X155543752Y-117264284D01*
X155543746Y-117264282D01*
X155355151Y-117207072D01*
X155355148Y-117207071D01*
X155159019Y-117187755D01*
X154962889Y-117207071D01*
X154903190Y-117225181D01*
X154774292Y-117264282D01*
X154774289Y-117264283D01*
X154774287Y-117264284D01*
X154721971Y-117292247D01*
X154653568Y-117306488D01*
X154588324Y-117281487D01*
X154546955Y-117225181D01*
X154539519Y-117182888D01*
X154539519Y-115714902D01*
X154559204Y-115647863D01*
X154575833Y-115627226D01*
X155717257Y-114485802D01*
X155778578Y-114452319D01*
X155837025Y-114453709D01*
X155909611Y-114473159D01*
X156086053Y-114488596D01*
X156145018Y-114493755D01*
X156145019Y-114493755D01*
X156145020Y-114493755D01*
X156203985Y-114488596D01*
X156380427Y-114473159D01*
X156608682Y-114411999D01*
X156822849Y-114312131D01*
X157016420Y-114176591D01*
X157138348Y-114054662D01*
X157199667Y-114021180D01*
X157269359Y-114026164D01*
X157325293Y-114068035D01*
X157342208Y-114099013D01*
X157391221Y-114230424D01*
X157391225Y-114230431D01*
X157477471Y-114345640D01*
X157477474Y-114345643D01*
X157592683Y-114431889D01*
X157592690Y-114431893D01*
X157727536Y-114482187D01*
X157727535Y-114482187D01*
X157734463Y-114482931D01*
X157787146Y-114488596D01*
X159582891Y-114488595D01*
X159642502Y-114482187D01*
X159777350Y-114431892D01*
X159892565Y-114345642D01*
X159978815Y-114230427D01*
X160029110Y-114095579D01*
X160035519Y-114035969D01*
X160035518Y-112741046D01*
X160055203Y-112674008D01*
X160108006Y-112628253D01*
X160177165Y-112618309D01*
X160240721Y-112647334D01*
X160247199Y-112653365D01*
X160436201Y-112842368D01*
X160469685Y-112903689D01*
X160472519Y-112930047D01*
X160472519Y-115095908D01*
X160452834Y-115162947D01*
X160440669Y-115178880D01*
X160365485Y-115262380D01*
X160270840Y-115426311D01*
X160270837Y-115426318D01*
X160212346Y-115606336D01*
X160212345Y-115606340D01*
X160192559Y-115794596D01*
X160212345Y-115982852D01*
X160212346Y-115982855D01*
X160270837Y-116162873D01*
X160270840Y-116162880D01*
X160365486Y-116326812D01*
X160382250Y-116345430D01*
X160492148Y-116467484D01*
X160645284Y-116578744D01*
X160645289Y-116578747D01*
X160818211Y-116655738D01*
X160818216Y-116655740D01*
X161003373Y-116695096D01*
X161003374Y-116695096D01*
X161192663Y-116695096D01*
X161192665Y-116695096D01*
X161377822Y-116655740D01*
X161550749Y-116578747D01*
X161703890Y-116467484D01*
X161830552Y-116326812D01*
X161925198Y-116162880D01*
X161983693Y-115982852D01*
X162003479Y-115794596D01*
X161983693Y-115606340D01*
X161925198Y-115426312D01*
X161830552Y-115262380D01*
X161788834Y-115216047D01*
X161755369Y-115178880D01*
X161725139Y-115115888D01*
X161723519Y-115095908D01*
X161723519Y-112702333D01*
X161725243Y-112686720D01*
X161724957Y-112686693D01*
X161725690Y-112678931D01*
X161725691Y-112678928D01*
X161723518Y-112609798D01*
X161723519Y-112580246D01*
X161722648Y-112573354D01*
X161722191Y-112567542D01*
X161720728Y-112520970D01*
X161720728Y-112520968D01*
X161715139Y-112501733D01*
X161711193Y-112482680D01*
X161708683Y-112462804D01*
X161691520Y-112419455D01*
X161689633Y-112413942D01*
X161676636Y-112369206D01*
X161676635Y-112369204D01*
X161666440Y-112351965D01*
X161657879Y-112334489D01*
X161650505Y-112315865D01*
X161650505Y-112315863D01*
X161640493Y-112302084D01*
X161623102Y-112278146D01*
X161619919Y-112273301D01*
X161596189Y-112233175D01*
X161596184Y-112233169D01*
X161582024Y-112219009D01*
X161569389Y-112204216D01*
X161557612Y-112188008D01*
X161521712Y-112158309D01*
X161517400Y-112154386D01*
X160540480Y-111177466D01*
X165135519Y-111177466D01*
X165135520Y-111177472D01*
X165141927Y-111237079D01*
X165192221Y-111371924D01*
X165192225Y-111371931D01*
X165278471Y-111487140D01*
X165278474Y-111487143D01*
X165393683Y-111573389D01*
X165393690Y-111573393D01*
X165528536Y-111623687D01*
X165528535Y-111623687D01*
X165535463Y-111624431D01*
X165588146Y-111630096D01*
X167783891Y-111630095D01*
X167843502Y-111623687D01*
X167978350Y-111573392D01*
X168093565Y-111487142D01*
X168179815Y-111371927D01*
X168230110Y-111237079D01*
X168236519Y-111177469D01*
X168236518Y-108981724D01*
X168230110Y-108922113D01*
X168184228Y-108799098D01*
X168179816Y-108787267D01*
X168179812Y-108787260D01*
X168093566Y-108672051D01*
X168093563Y-108672048D01*
X167978354Y-108585802D01*
X167978347Y-108585798D01*
X167843501Y-108535504D01*
X167843502Y-108535504D01*
X167783902Y-108529097D01*
X167783900Y-108529096D01*
X167783892Y-108529096D01*
X167783883Y-108529096D01*
X165588148Y-108529096D01*
X165588142Y-108529097D01*
X165528535Y-108535504D01*
X165393690Y-108585798D01*
X165393683Y-108585802D01*
X165278474Y-108672048D01*
X165278471Y-108672051D01*
X165192225Y-108787260D01*
X165192221Y-108787267D01*
X165141927Y-108922113D01*
X165135520Y-108981712D01*
X165135520Y-108981719D01*
X165135519Y-108981731D01*
X165135519Y-111177466D01*
X160540480Y-111177466D01*
X158042822Y-108679807D01*
X158032999Y-108667546D01*
X158032778Y-108667730D01*
X158027805Y-108661719D01*
X157977383Y-108614369D01*
X157966938Y-108603924D01*
X157956494Y-108593479D01*
X157951005Y-108589221D01*
X157946580Y-108585443D01*
X157912601Y-108553534D01*
X157912599Y-108553532D01*
X157912596Y-108553531D01*
X157895048Y-108543884D01*
X157878782Y-108533200D01*
X157862955Y-108520923D01*
X157862954Y-108520922D01*
X157862952Y-108520921D01*
X157820187Y-108502414D01*
X157814941Y-108499844D01*
X157774112Y-108477399D01*
X157774111Y-108477398D01*
X157754712Y-108472418D01*
X157736300Y-108466114D01*
X157717917Y-108458158D01*
X157717911Y-108458156D01*
X157671893Y-108450868D01*
X157666171Y-108449683D01*
X157621040Y-108438096D01*
X157621038Y-108438096D01*
X157601003Y-108438096D01*
X157581605Y-108436569D01*
X157574181Y-108435393D01*
X157561824Y-108433436D01*
X157561823Y-108433436D01*
X157515435Y-108437821D01*
X157509597Y-108438096D01*
X154042472Y-108438096D01*
X153975433Y-108418411D01*
X153954791Y-108401777D01*
X151822609Y-106269595D01*
X165130725Y-106269595D01*
X165149872Y-106512893D01*
X165206849Y-106750215D01*
X165300241Y-106975685D01*
X165427756Y-107183769D01*
X165427757Y-107183772D01*
X165456973Y-107217979D01*
X165586260Y-107369355D01*
X165729916Y-107492049D01*
X165771842Y-107527857D01*
X165771845Y-107527858D01*
X165979929Y-107655373D01*
X166205400Y-107748765D01*
X166205397Y-107748765D01*
X166205403Y-107748766D01*
X166205407Y-107748768D01*
X166442717Y-107805742D01*
X166686019Y-107824890D01*
X166929321Y-107805742D01*
X167166631Y-107748768D01*
X167392108Y-107655373D01*
X167600198Y-107527855D01*
X167785778Y-107369355D01*
X167944278Y-107183775D01*
X168071796Y-106975685D01*
X168165191Y-106750208D01*
X168222165Y-106512898D01*
X168241313Y-106269596D01*
X168222165Y-106026294D01*
X168165191Y-105788984D01*
X168165188Y-105788976D01*
X168071796Y-105563506D01*
X167944281Y-105355422D01*
X167944280Y-105355419D01*
X167866280Y-105264093D01*
X167785778Y-105169837D01*
X167615932Y-105024775D01*
X167600195Y-105011334D01*
X167600192Y-105011333D01*
X167392108Y-104883818D01*
X167166637Y-104790426D01*
X167166640Y-104790426D01*
X167061011Y-104765066D01*
X166929321Y-104733450D01*
X166929319Y-104733449D01*
X166929316Y-104733449D01*
X166686019Y-104714302D01*
X166442721Y-104733449D01*
X166205399Y-104790426D01*
X165979929Y-104883818D01*
X165771845Y-105011333D01*
X165771842Y-105011334D01*
X165586260Y-105169837D01*
X165427757Y-105355419D01*
X165427756Y-105355422D01*
X165300241Y-105563506D01*
X165206849Y-105788976D01*
X165149872Y-106026298D01*
X165130725Y-106269595D01*
X151822609Y-106269595D01*
X148012609Y-102459595D01*
X165130725Y-102459595D01*
X165149872Y-102702893D01*
X165149872Y-102702896D01*
X165149873Y-102702898D01*
X165151721Y-102710597D01*
X165206849Y-102940215D01*
X165300241Y-103165685D01*
X165427756Y-103373769D01*
X165427757Y-103373772D01*
X165481468Y-103436659D01*
X165586260Y-103559355D01*
X165729916Y-103682049D01*
X165771842Y-103717857D01*
X165771845Y-103717858D01*
X165979929Y-103845373D01*
X166205400Y-103938765D01*
X166205397Y-103938765D01*
X166205403Y-103938766D01*
X166205407Y-103938768D01*
X166442717Y-103995742D01*
X166686019Y-104014890D01*
X166929321Y-103995742D01*
X167166631Y-103938768D01*
X167392108Y-103845373D01*
X167600198Y-103717855D01*
X167785778Y-103559355D01*
X167944278Y-103373775D01*
X168071796Y-103165685D01*
X168165191Y-102940208D01*
X168222165Y-102702898D01*
X168241313Y-102459596D01*
X168222165Y-102216294D01*
X168165191Y-101978984D01*
X168156125Y-101957096D01*
X168071796Y-101753506D01*
X167944281Y-101545422D01*
X167944280Y-101545419D01*
X167908472Y-101503493D01*
X167785778Y-101359837D01*
X167615932Y-101214775D01*
X167600195Y-101201334D01*
X167600192Y-101201333D01*
X167392108Y-101073818D01*
X167166637Y-100980426D01*
X167166640Y-100980426D01*
X167061011Y-100955066D01*
X166929321Y-100923450D01*
X166929319Y-100923449D01*
X166929316Y-100923449D01*
X166686019Y-100904302D01*
X166442721Y-100923449D01*
X166205399Y-100980426D01*
X165979929Y-101073818D01*
X165771845Y-101201333D01*
X165771842Y-101201334D01*
X165586260Y-101359837D01*
X165427757Y-101545419D01*
X165427756Y-101545422D01*
X165300241Y-101753506D01*
X165206849Y-101978976D01*
X165149872Y-102216298D01*
X165130725Y-102459595D01*
X148012609Y-102459595D01*
X147177979Y-101624965D01*
X147144494Y-101563642D01*
X147142342Y-101550264D01*
X147124693Y-101382340D01*
X147066198Y-101202312D01*
X146971552Y-101038380D01*
X146844890Y-100897708D01*
X146844889Y-100897707D01*
X146691753Y-100786447D01*
X146691748Y-100786444D01*
X146518826Y-100709453D01*
X146518821Y-100709451D01*
X146361893Y-100676096D01*
X146333665Y-100670096D01*
X146144373Y-100670096D01*
X146116145Y-100676096D01*
X145959216Y-100709451D01*
X145959211Y-100709453D01*
X145786289Y-100786444D01*
X145786284Y-100786447D01*
X145633148Y-100897707D01*
X145506485Y-101038381D01*
X145411840Y-101202311D01*
X145411837Y-101202318D01*
X145353346Y-101382336D01*
X145353345Y-101382340D01*
X145333559Y-101570596D01*
X132012519Y-101570596D01*
X132012519Y-99279096D01*
X132032204Y-99212057D01*
X132085008Y-99166302D01*
X132136519Y-99155096D01*
X134812009Y-99155096D01*
X134812019Y-99155096D01*
X134919475Y-99143543D01*
X134970986Y-99132337D01*
X135005216Y-99120943D01*
X135073516Y-99098212D01*
X135073520Y-99098209D01*
X135073523Y-99098209D01*
X135194562Y-99020421D01*
X135247366Y-98974666D01*
X135341586Y-98865932D01*
X135401357Y-98735055D01*
X135421042Y-98668016D01*
X135421043Y-98668012D01*
X135441519Y-98525596D01*
X135441519Y-95601596D01*
X145079559Y-95601596D01*
X145099345Y-95789852D01*
X145099346Y-95789855D01*
X145157837Y-95969873D01*
X145157840Y-95969880D01*
X145252486Y-96133812D01*
X145367776Y-96261854D01*
X145379148Y-96274484D01*
X145532284Y-96385744D01*
X145532289Y-96385747D01*
X145705211Y-96462738D01*
X145705216Y-96462740D01*
X145890373Y-96502096D01*
X145890374Y-96502096D01*
X146079663Y-96502096D01*
X146079665Y-96502096D01*
X146264822Y-96462740D01*
X146437749Y-96385747D01*
X146590890Y-96274484D01*
X146717552Y-96133812D01*
X146812198Y-95969880D01*
X146867541Y-95799551D01*
X146897788Y-95750193D01*
X148921281Y-93726700D01*
X148982602Y-93693217D01*
X149052294Y-93698201D01*
X149081849Y-93714068D01*
X149088286Y-93718745D01*
X149088289Y-93718747D01*
X149261211Y-93795738D01*
X149261216Y-93795740D01*
X149446373Y-93835096D01*
X149446374Y-93835096D01*
X149635663Y-93835096D01*
X149635665Y-93835096D01*
X149820822Y-93795740D01*
X149993749Y-93718747D01*
X150146890Y-93607484D01*
X150273552Y-93466812D01*
X150368198Y-93302880D01*
X150426693Y-93122852D01*
X150446479Y-92934596D01*
X150426693Y-92746340D01*
X150368198Y-92566312D01*
X150273552Y-92402380D01*
X150146890Y-92261708D01*
X150146889Y-92261707D01*
X149993753Y-92150447D01*
X149993748Y-92150444D01*
X149820826Y-92073453D01*
X149820821Y-92073451D01*
X149675019Y-92042461D01*
X149635665Y-92034096D01*
X149446373Y-92034096D01*
X149413916Y-92040994D01*
X149261216Y-92073451D01*
X149261211Y-92073453D01*
X149088289Y-92150444D01*
X149088284Y-92150447D01*
X149074567Y-92160414D01*
X149008761Y-92183894D01*
X149001682Y-92184096D01*
X148715724Y-92184096D01*
X148697754Y-92182787D01*
X148673991Y-92179306D01*
X148628552Y-92183282D01*
X148621950Y-92183860D01*
X148616549Y-92184096D01*
X148608308Y-92184096D01*
X148586598Y-92186633D01*
X148575743Y-92187902D01*
X148560438Y-92189241D01*
X148499218Y-92194597D01*
X148492151Y-92196056D01*
X148492139Y-92196000D01*
X148484782Y-92197631D01*
X148484796Y-92197688D01*
X148477762Y-92199355D01*
X148405594Y-92225621D01*
X148332694Y-92249777D01*
X148326145Y-92252832D01*
X148326120Y-92252779D01*
X148319327Y-92256067D01*
X148319353Y-92256119D01*
X148312899Y-92259360D01*
X148248727Y-92301567D01*
X148183366Y-92341881D01*
X148177702Y-92346361D01*
X148177666Y-92346315D01*
X148171817Y-92351080D01*
X148171854Y-92351124D01*
X148166329Y-92355760D01*
X148113616Y-92411631D01*
X145832247Y-94692998D01*
X145770924Y-94726483D01*
X145770348Y-94726607D01*
X145705215Y-94740452D01*
X145705211Y-94740453D01*
X145532289Y-94817444D01*
X145532284Y-94817447D01*
X145379148Y-94928707D01*
X145252485Y-95069381D01*
X145157840Y-95233311D01*
X145157837Y-95233318D01*
X145106043Y-95392725D01*
X145099345Y-95413340D01*
X145079559Y-95601596D01*
X135441519Y-95601596D01*
X135441519Y-89632595D01*
X135920725Y-89632595D01*
X135939872Y-89875893D01*
X135939872Y-89875896D01*
X135939873Y-89875898D01*
X135989944Y-90084457D01*
X135996849Y-90113215D01*
X136090241Y-90338685D01*
X136217756Y-90546769D01*
X136217757Y-90546772D01*
X136217760Y-90546775D01*
X136376260Y-90732355D01*
X136463957Y-90807255D01*
X136561842Y-90890857D01*
X136561845Y-90890858D01*
X136769929Y-91018373D01*
X136995400Y-91111765D01*
X136995397Y-91111765D01*
X136995403Y-91111766D01*
X136995407Y-91111768D01*
X137232717Y-91168742D01*
X137476019Y-91187890D01*
X137719321Y-91168742D01*
X137956631Y-91111768D01*
X138182108Y-91018373D01*
X138390198Y-90890855D01*
X138575778Y-90732355D01*
X138734278Y-90546775D01*
X138861796Y-90338685D01*
X138955191Y-90113208D01*
X139012165Y-89875898D01*
X139031313Y-89632596D01*
X139031313Y-89632595D01*
X139730725Y-89632595D01*
X139749872Y-89875893D01*
X139749872Y-89875896D01*
X139749873Y-89875898D01*
X139799944Y-90084457D01*
X139806849Y-90113215D01*
X139900241Y-90338685D01*
X140027756Y-90546769D01*
X140027757Y-90546772D01*
X140027760Y-90546775D01*
X140186260Y-90732355D01*
X140273957Y-90807255D01*
X140371842Y-90890857D01*
X140371845Y-90890858D01*
X140579929Y-91018373D01*
X140805400Y-91111765D01*
X140805397Y-91111765D01*
X140805403Y-91111766D01*
X140805407Y-91111768D01*
X141042717Y-91168742D01*
X141286019Y-91187890D01*
X141529321Y-91168742D01*
X141766631Y-91111768D01*
X141992108Y-91018373D01*
X142200198Y-90890855D01*
X142385778Y-90732355D01*
X142544278Y-90546775D01*
X142671796Y-90338685D01*
X142765191Y-90113208D01*
X142822165Y-89875898D01*
X142841313Y-89632596D01*
X143540725Y-89632596D01*
X143559872Y-89875893D01*
X143559872Y-89875896D01*
X143559873Y-89875898D01*
X143609944Y-90084457D01*
X143616849Y-90113215D01*
X143710241Y-90338685D01*
X143837756Y-90546769D01*
X143837757Y-90546772D01*
X143837760Y-90546775D01*
X143996260Y-90732355D01*
X144083957Y-90807255D01*
X144181842Y-90890857D01*
X144181845Y-90890858D01*
X144389929Y-91018373D01*
X144615400Y-91111765D01*
X144615397Y-91111765D01*
X144615403Y-91111766D01*
X144615407Y-91111768D01*
X144852717Y-91168742D01*
X145096019Y-91187890D01*
X145339321Y-91168742D01*
X145576631Y-91111768D01*
X145802108Y-91018373D01*
X146010198Y-90890855D01*
X146195778Y-90732355D01*
X146197391Y-90730466D01*
X147355519Y-90730466D01*
X147355520Y-90730472D01*
X147361927Y-90790079D01*
X147412221Y-90924924D01*
X147412225Y-90924931D01*
X147498471Y-91040140D01*
X147498474Y-91040143D01*
X147613683Y-91126389D01*
X147613690Y-91126393D01*
X147748536Y-91176687D01*
X147748535Y-91176687D01*
X147755463Y-91177431D01*
X147808146Y-91183096D01*
X150003891Y-91183095D01*
X150063502Y-91176687D01*
X150198350Y-91126392D01*
X150313565Y-91040142D01*
X150399815Y-90924927D01*
X150450110Y-90790079D01*
X150456519Y-90730469D01*
X150456518Y-89632596D01*
X154462725Y-89632596D01*
X154481872Y-89875893D01*
X154481872Y-89875896D01*
X154481873Y-89875898D01*
X154531944Y-90084457D01*
X154538849Y-90113215D01*
X154632241Y-90338685D01*
X154759756Y-90546769D01*
X154759757Y-90546772D01*
X154916648Y-90730468D01*
X154918260Y-90732355D01*
X154974051Y-90780005D01*
X155012243Y-90838510D01*
X155017519Y-90874294D01*
X155017519Y-97811339D01*
X155032944Y-97963035D01*
X155093856Y-98157175D01*
X155093863Y-98157190D01*
X155192608Y-98335095D01*
X155192611Y-98335100D01*
X155325151Y-98489489D01*
X155325153Y-98489491D01*
X155486056Y-98614041D01*
X155486057Y-98614041D01*
X155486061Y-98614044D01*
X155668748Y-98703656D01*
X155865734Y-98754659D01*
X156068955Y-98764965D01*
X156270090Y-98734152D01*
X156460906Y-98663482D01*
X156633590Y-98555848D01*
X156781072Y-98415655D01*
X156897314Y-98248645D01*
X156977559Y-98061654D01*
X157018519Y-97862337D01*
X157018519Y-96312854D01*
X157018519Y-96312853D01*
X157018519Y-90874293D01*
X157038204Y-90807255D01*
X157061984Y-90780007D01*
X157117778Y-90732355D01*
X157276278Y-90546775D01*
X157403796Y-90338685D01*
X157497191Y-90113208D01*
X157554165Y-89875898D01*
X157573313Y-89632596D01*
X158273226Y-89632596D01*
X158292367Y-89875815D01*
X158349322Y-90113053D01*
X158442687Y-90338457D01*
X158566523Y-90540538D01*
X159187878Y-89919182D01*
X159247699Y-90033162D01*
X159360424Y-90160402D01*
X159500324Y-90256967D01*
X159541560Y-90272606D01*
X158920075Y-90894090D01*
X159122157Y-91017927D01*
X159347561Y-91111292D01*
X159584799Y-91168247D01*
X159584798Y-91168247D01*
X159828018Y-91187388D01*
X160071238Y-91168247D01*
X160308476Y-91111292D01*
X160533880Y-91017927D01*
X160735961Y-90894090D01*
X160114476Y-90272606D01*
X160155714Y-90256967D01*
X160295614Y-90160402D01*
X160408339Y-90033162D01*
X160468158Y-89919183D01*
X161089513Y-90540538D01*
X161213350Y-90338457D01*
X161306715Y-90113053D01*
X161363670Y-89875815D01*
X161382811Y-89632596D01*
X162082725Y-89632596D01*
X162101872Y-89875893D01*
X162101872Y-89875896D01*
X162101873Y-89875898D01*
X162151944Y-90084457D01*
X162158849Y-90113215D01*
X162252241Y-90338685D01*
X162379756Y-90546769D01*
X162379757Y-90546772D01*
X162379760Y-90546775D01*
X162538260Y-90732355D01*
X162625957Y-90807255D01*
X162723842Y-90890857D01*
X162723845Y-90890858D01*
X162931929Y-91018373D01*
X163157400Y-91111765D01*
X163157397Y-91111765D01*
X163157403Y-91111766D01*
X163157407Y-91111768D01*
X163394717Y-91168742D01*
X163638019Y-91187890D01*
X163881321Y-91168742D01*
X164118631Y-91111768D01*
X164344108Y-91018373D01*
X164552198Y-90890855D01*
X164737778Y-90732355D01*
X164739391Y-90730466D01*
X165897519Y-90730466D01*
X165897520Y-90730472D01*
X165903927Y-90790079D01*
X165954221Y-90924924D01*
X165954225Y-90924931D01*
X166040471Y-91040140D01*
X166040474Y-91040143D01*
X166155683Y-91126389D01*
X166155690Y-91126393D01*
X166290536Y-91176687D01*
X166290535Y-91176687D01*
X166297463Y-91177431D01*
X166350146Y-91183096D01*
X168545891Y-91183095D01*
X168605502Y-91176687D01*
X168740350Y-91126392D01*
X168855565Y-91040142D01*
X168941815Y-90924927D01*
X168992110Y-90790079D01*
X168998519Y-90730469D01*
X168998518Y-88534724D01*
X168992110Y-88475113D01*
X168990446Y-88470652D01*
X168941816Y-88340267D01*
X168941812Y-88340260D01*
X168855566Y-88225051D01*
X168855563Y-88225048D01*
X168740354Y-88138802D01*
X168740347Y-88138798D01*
X168605501Y-88088504D01*
X168605502Y-88088504D01*
X168545902Y-88082097D01*
X168545900Y-88082096D01*
X168545892Y-88082096D01*
X168545883Y-88082096D01*
X166350148Y-88082096D01*
X166350142Y-88082097D01*
X166290535Y-88088504D01*
X166155690Y-88138798D01*
X166155683Y-88138802D01*
X166040474Y-88225048D01*
X166040471Y-88225051D01*
X165954225Y-88340260D01*
X165954221Y-88340267D01*
X165903927Y-88475113D01*
X165899655Y-88514855D01*
X165897520Y-88534719D01*
X165897519Y-88534731D01*
X165897519Y-90730466D01*
X164739391Y-90730466D01*
X164896278Y-90546775D01*
X165023796Y-90338685D01*
X165117191Y-90113208D01*
X165174165Y-89875898D01*
X165193313Y-89632596D01*
X165174165Y-89389294D01*
X165117191Y-89151984D01*
X165110312Y-89135376D01*
X165023796Y-88926506D01*
X164896281Y-88718422D01*
X164896280Y-88718419D01*
X164818005Y-88626771D01*
X164737778Y-88532837D01*
X164615082Y-88428045D01*
X164552195Y-88374334D01*
X164552192Y-88374333D01*
X164344108Y-88246818D01*
X164118637Y-88153426D01*
X164118640Y-88153426D01*
X163967333Y-88117100D01*
X163881321Y-88096450D01*
X163881319Y-88096449D01*
X163881316Y-88096449D01*
X163638019Y-88077302D01*
X163394721Y-88096449D01*
X163394716Y-88096450D01*
X163394717Y-88096450D01*
X163218320Y-88138800D01*
X163157399Y-88153426D01*
X162931929Y-88246818D01*
X162723845Y-88374333D01*
X162723842Y-88374334D01*
X162538260Y-88532837D01*
X162379757Y-88718419D01*
X162379756Y-88718422D01*
X162252241Y-88926506D01*
X162158849Y-89151976D01*
X162101872Y-89389298D01*
X162082725Y-89632596D01*
X161382811Y-89632596D01*
X161363670Y-89389376D01*
X161306715Y-89152138D01*
X161213350Y-88926734D01*
X161089513Y-88724652D01*
X160468158Y-89346007D01*
X160408339Y-89232030D01*
X160295614Y-89104790D01*
X160155714Y-89008225D01*
X160114476Y-88992585D01*
X160735961Y-88371100D01*
X160533880Y-88247264D01*
X160308476Y-88153899D01*
X160071238Y-88096944D01*
X160071239Y-88096944D01*
X159828018Y-88077803D01*
X159584799Y-88096944D01*
X159347561Y-88153899D01*
X159122165Y-88247261D01*
X159122160Y-88247264D01*
X158920075Y-88371100D01*
X159541561Y-88992585D01*
X159500324Y-89008225D01*
X159360424Y-89104790D01*
X159247699Y-89232030D01*
X159187879Y-89346007D01*
X158566523Y-88724652D01*
X158442687Y-88926737D01*
X158442684Y-88926742D01*
X158349322Y-89152138D01*
X158292367Y-89389376D01*
X158273226Y-89632596D01*
X157573313Y-89632596D01*
X157554165Y-89389294D01*
X157497191Y-89151984D01*
X157490312Y-89135376D01*
X157403796Y-88926506D01*
X157276281Y-88718422D01*
X157276280Y-88718419D01*
X157198005Y-88626771D01*
X157117778Y-88532837D01*
X156995082Y-88428045D01*
X156932195Y-88374334D01*
X156932192Y-88374333D01*
X156724108Y-88246818D01*
X156498637Y-88153426D01*
X156498640Y-88153426D01*
X156347333Y-88117100D01*
X156261321Y-88096450D01*
X156261319Y-88096449D01*
X156261316Y-88096449D01*
X156018019Y-88077302D01*
X155774721Y-88096449D01*
X155774716Y-88096450D01*
X155774717Y-88096450D01*
X155598320Y-88138800D01*
X155537399Y-88153426D01*
X155311929Y-88246818D01*
X155103845Y-88374333D01*
X155103842Y-88374334D01*
X154918260Y-88532837D01*
X154759757Y-88718419D01*
X154759756Y-88718422D01*
X154632241Y-88926506D01*
X154538849Y-89151976D01*
X154481872Y-89389298D01*
X154462725Y-89632596D01*
X150456518Y-89632596D01*
X150456518Y-88534724D01*
X150450110Y-88475113D01*
X150448446Y-88470652D01*
X150399816Y-88340267D01*
X150399812Y-88340260D01*
X150313566Y-88225051D01*
X150313563Y-88225048D01*
X150198354Y-88138802D01*
X150198347Y-88138798D01*
X150063501Y-88088504D01*
X150063502Y-88088504D01*
X150003902Y-88082097D01*
X150003900Y-88082096D01*
X150003892Y-88082096D01*
X150003883Y-88082096D01*
X147808148Y-88082096D01*
X147808142Y-88082097D01*
X147748535Y-88088504D01*
X147613690Y-88138798D01*
X147613683Y-88138802D01*
X147498474Y-88225048D01*
X147498471Y-88225051D01*
X147412225Y-88340260D01*
X147412221Y-88340267D01*
X147361927Y-88475113D01*
X147357655Y-88514855D01*
X147355520Y-88534719D01*
X147355519Y-88534731D01*
X147355519Y-90730466D01*
X146197391Y-90730466D01*
X146354278Y-90546775D01*
X146481796Y-90338685D01*
X146575191Y-90113208D01*
X146632165Y-89875898D01*
X146651313Y-89632596D01*
X146632165Y-89389294D01*
X146575191Y-89151984D01*
X146568312Y-89135376D01*
X146481796Y-88926506D01*
X146354281Y-88718422D01*
X146354280Y-88718419D01*
X146276005Y-88626771D01*
X146195778Y-88532837D01*
X146073082Y-88428045D01*
X146010195Y-88374334D01*
X146010192Y-88374333D01*
X145802108Y-88246818D01*
X145576637Y-88153426D01*
X145576640Y-88153426D01*
X145425333Y-88117100D01*
X145339321Y-88096450D01*
X145339319Y-88096449D01*
X145339316Y-88096449D01*
X145096019Y-88077302D01*
X144852721Y-88096449D01*
X144852716Y-88096450D01*
X144852717Y-88096450D01*
X144676320Y-88138800D01*
X144615399Y-88153426D01*
X144389929Y-88246818D01*
X144181845Y-88374333D01*
X144181842Y-88374334D01*
X143996260Y-88532837D01*
X143837757Y-88718419D01*
X143837756Y-88718422D01*
X143710241Y-88926506D01*
X143616849Y-89151976D01*
X143559872Y-89389298D01*
X143540725Y-89632596D01*
X142841313Y-89632596D01*
X142822165Y-89389294D01*
X142765191Y-89151984D01*
X142758312Y-89135376D01*
X142671796Y-88926506D01*
X142544281Y-88718422D01*
X142544280Y-88718419D01*
X142466005Y-88626771D01*
X142385778Y-88532837D01*
X142263082Y-88428045D01*
X142200195Y-88374334D01*
X142200192Y-88374333D01*
X141992108Y-88246818D01*
X141766637Y-88153426D01*
X141766640Y-88153426D01*
X141615333Y-88117100D01*
X141529321Y-88096450D01*
X141529319Y-88096449D01*
X141529316Y-88096449D01*
X141286019Y-88077302D01*
X141042721Y-88096449D01*
X141042716Y-88096450D01*
X141042717Y-88096450D01*
X140866320Y-88138800D01*
X140805399Y-88153426D01*
X140579929Y-88246818D01*
X140371845Y-88374333D01*
X140371842Y-88374334D01*
X140186260Y-88532837D01*
X140027757Y-88718419D01*
X140027756Y-88718422D01*
X139900241Y-88926506D01*
X139806849Y-89151976D01*
X139749872Y-89389298D01*
X139730725Y-89632595D01*
X139031313Y-89632595D01*
X139012165Y-89389294D01*
X138955191Y-89151984D01*
X138948312Y-89135376D01*
X138861796Y-88926506D01*
X138734281Y-88718422D01*
X138734280Y-88718419D01*
X138656005Y-88626771D01*
X138575778Y-88532837D01*
X138453082Y-88428045D01*
X138390195Y-88374334D01*
X138390192Y-88374333D01*
X138182108Y-88246818D01*
X137956637Y-88153426D01*
X137956640Y-88153426D01*
X137805333Y-88117100D01*
X137719321Y-88096450D01*
X137719319Y-88096449D01*
X137719316Y-88096449D01*
X137476019Y-88077302D01*
X137232721Y-88096449D01*
X137232716Y-88096450D01*
X137232717Y-88096450D01*
X137056320Y-88138800D01*
X136995399Y-88153426D01*
X136769929Y-88246818D01*
X136561845Y-88374333D01*
X136561842Y-88374334D01*
X136376260Y-88532837D01*
X136217757Y-88718419D01*
X136217756Y-88718422D01*
X136090241Y-88926506D01*
X135996849Y-89151976D01*
X135939872Y-89389298D01*
X135920725Y-89632595D01*
X135441519Y-89632595D01*
X135441519Y-85695596D01*
X147111559Y-85695596D01*
X147131345Y-85883852D01*
X147131346Y-85883855D01*
X147189837Y-86063873D01*
X147189840Y-86063880D01*
X147284486Y-86227812D01*
X147390990Y-86346096D01*
X147411148Y-86368484D01*
X147564284Y-86479744D01*
X147564289Y-86479747D01*
X147737211Y-86556738D01*
X147737216Y-86556740D01*
X147922373Y-86596096D01*
X147922374Y-86596096D01*
X148111663Y-86596096D01*
X148111665Y-86596096D01*
X148296822Y-86556740D01*
X148469749Y-86479747D01*
X148621108Y-86369778D01*
X148686915Y-86346298D01*
X148693994Y-86346096D01*
X153364993Y-86346096D01*
X153415429Y-86356817D01*
X153579211Y-86429738D01*
X153579216Y-86429740D01*
X153764373Y-86469096D01*
X153764374Y-86469096D01*
X153953663Y-86469096D01*
X153953665Y-86469096D01*
X154138822Y-86429740D01*
X154311749Y-86352747D01*
X154464890Y-86241484D01*
X154591552Y-86100812D01*
X154686198Y-85936880D01*
X154744693Y-85756852D01*
X154764479Y-85568596D01*
X154744693Y-85380340D01*
X154686198Y-85200312D01*
X154591552Y-85036380D01*
X154464890Y-84895708D01*
X154464889Y-84895707D01*
X154311753Y-84784447D01*
X154311748Y-84784444D01*
X154138826Y-84707453D01*
X154138821Y-84707451D01*
X153993019Y-84676461D01*
X153953665Y-84668096D01*
X153764373Y-84668096D01*
X153731916Y-84674994D01*
X153579216Y-84707451D01*
X153579211Y-84707453D01*
X153406289Y-84784444D01*
X153406284Y-84784447D01*
X153253148Y-84895707D01*
X153253147Y-84895708D01*
X153155578Y-85004069D01*
X153096092Y-85040717D01*
X153063429Y-85045096D01*
X148693994Y-85045096D01*
X148626955Y-85025411D01*
X148621109Y-85021414D01*
X148469753Y-84911447D01*
X148469748Y-84911444D01*
X148296826Y-84834453D01*
X148296821Y-84834451D01*
X148151020Y-84803461D01*
X148111665Y-84795096D01*
X147922373Y-84795096D01*
X147889916Y-84801994D01*
X147737216Y-84834451D01*
X147737211Y-84834453D01*
X147564289Y-84911444D01*
X147564284Y-84911447D01*
X147411148Y-85022707D01*
X147284485Y-85163381D01*
X147189840Y-85327311D01*
X147189837Y-85327318D01*
X147131346Y-85507336D01*
X147131345Y-85507340D01*
X147111559Y-85695596D01*
X135441519Y-85695596D01*
X135441519Y-85309096D01*
X135461204Y-85242057D01*
X135514008Y-85196302D01*
X135565519Y-85185096D01*
X135828009Y-85185096D01*
X135828019Y-85185096D01*
X135935475Y-85173543D01*
X135986986Y-85162337D01*
X136021216Y-85150943D01*
X136089516Y-85128212D01*
X136089520Y-85128209D01*
X136089523Y-85128209D01*
X136210562Y-85050421D01*
X136263366Y-85004666D01*
X136357586Y-84895932D01*
X136417357Y-84765055D01*
X136437042Y-84698016D01*
X136437043Y-84698012D01*
X136457519Y-84555596D01*
X136457519Y-77485772D01*
X136448832Y-77392461D01*
X136440382Y-77347471D01*
X136414624Y-77257378D01*
X136414624Y-77257377D01*
X136343874Y-77132099D01*
X136343872Y-77132095D01*
X136301206Y-77076766D01*
X136198025Y-76976492D01*
X136198021Y-76976489D01*
X136198016Y-76976484D01*
X136195920Y-76974719D01*
X136189769Y-76968770D01*
X136147416Y-76921733D01*
X136132181Y-76900765D01*
X136103695Y-76851425D01*
X136093154Y-76827749D01*
X136075550Y-76773571D01*
X136070160Y-76748213D01*
X136066099Y-76709577D01*
X136064205Y-76691552D01*
X136064205Y-76665633D01*
X136070160Y-76608970D01*
X136075547Y-76583628D01*
X136093154Y-76529437D01*
X136103695Y-76505765D01*
X136132182Y-76456423D01*
X136147412Y-76435460D01*
X136189333Y-76388901D01*
X136194478Y-76383817D01*
X136198024Y-76380699D01*
X136198029Y-76380696D01*
X136268417Y-76318818D01*
X136299846Y-76285539D01*
X136357586Y-76211755D01*
X136417357Y-76080878D01*
X136437042Y-76013839D01*
X136437043Y-76013835D01*
X136457519Y-75871419D01*
X136457519Y-73486069D01*
X136477204Y-73419030D01*
X136530008Y-73373275D01*
X136567207Y-73363072D01*
X136567209Y-73363071D01*
X136568274Y-73362779D01*
X136570475Y-73362543D01*
X136621986Y-73351337D01*
X136656216Y-73339943D01*
X136724516Y-73317212D01*
X136724520Y-73317209D01*
X136724523Y-73317209D01*
X136845562Y-73239421D01*
X136898366Y-73193666D01*
X136992586Y-73084932D01*
X137052357Y-72954055D01*
X137066639Y-72905414D01*
X137072041Y-72887021D01*
X137072042Y-72887015D01*
X137072043Y-72887012D01*
X137092519Y-72744596D01*
X137092519Y-71014532D01*
X146885650Y-71014532D01*
X146916461Y-71215659D01*
X146916464Y-71215671D01*
X146987130Y-71406477D01*
X146987134Y-71406484D01*
X147094764Y-71579163D01*
X147094766Y-71579165D01*
X147094767Y-71579167D01*
X147234960Y-71726649D01*
X147363363Y-71816020D01*
X147401968Y-71842890D01*
X147401969Y-71842890D01*
X147401970Y-71842891D01*
X147588961Y-71923136D01*
X147788278Y-71964096D01*
X152703303Y-71964096D01*
X152792377Y-71966353D01*
X152792377Y-71966352D01*
X152792382Y-71966353D01*
X152852772Y-71955528D01*
X152857431Y-71954876D01*
X152899626Y-71950584D01*
X152918457Y-71948670D01*
X152951246Y-71938382D01*
X152958859Y-71936514D01*
X152992672Y-71930454D01*
X153049640Y-71907697D01*
X153054072Y-71906120D01*
X153112607Y-71887755D01*
X153142646Y-71871080D01*
X153149727Y-71867718D01*
X153181636Y-71854973D01*
X153232873Y-71821204D01*
X153236870Y-71818783D01*
X153290521Y-71789005D01*
X153316587Y-71766626D01*
X153322862Y-71761896D01*
X153351538Y-71742998D01*
X153394936Y-71699598D01*
X153398355Y-71696430D01*
X153444914Y-71656462D01*
X153465950Y-71629284D01*
X153471120Y-71623414D01*
X155339466Y-69755068D01*
X155400787Y-69721585D01*
X155436873Y-69719133D01*
X155510019Y-69724890D01*
X155753321Y-69705742D01*
X155990631Y-69648768D01*
X156216108Y-69555373D01*
X156424198Y-69427855D01*
X156609778Y-69269355D01*
X156611391Y-69267466D01*
X157769519Y-69267466D01*
X157769520Y-69267472D01*
X157775927Y-69327079D01*
X157826221Y-69461924D01*
X157826225Y-69461931D01*
X157912471Y-69577140D01*
X157912474Y-69577143D01*
X158027683Y-69663389D01*
X158027690Y-69663393D01*
X158162536Y-69713687D01*
X158162535Y-69713687D01*
X158169463Y-69714431D01*
X158222146Y-69720096D01*
X160417891Y-69720095D01*
X160477502Y-69713687D01*
X160612350Y-69663392D01*
X160727565Y-69577142D01*
X160813815Y-69461927D01*
X160864110Y-69327079D01*
X160870519Y-69267469D01*
X160870518Y-67071724D01*
X160864110Y-67012113D01*
X160813815Y-66877265D01*
X160813814Y-66877264D01*
X160813812Y-66877260D01*
X160727566Y-66762051D01*
X160727563Y-66762048D01*
X160612354Y-66675802D01*
X160612347Y-66675798D01*
X160477501Y-66625504D01*
X160477502Y-66625504D01*
X160417902Y-66619097D01*
X160417900Y-66619096D01*
X160417892Y-66619096D01*
X160417883Y-66619096D01*
X158222148Y-66619096D01*
X158222142Y-66619097D01*
X158162535Y-66625504D01*
X158027690Y-66675798D01*
X158027683Y-66675802D01*
X157912474Y-66762048D01*
X157912471Y-66762051D01*
X157826225Y-66877260D01*
X157826221Y-66877267D01*
X157775927Y-67012113D01*
X157769722Y-67069837D01*
X157769520Y-67071719D01*
X157769519Y-67071731D01*
X157769519Y-69267466D01*
X156611391Y-69267466D01*
X156768278Y-69083775D01*
X156895796Y-68875685D01*
X156989191Y-68650208D01*
X157046165Y-68412898D01*
X157065313Y-68169596D01*
X157046165Y-67926294D01*
X156989191Y-67688984D01*
X156989188Y-67688976D01*
X156895796Y-67463506D01*
X156768281Y-67255422D01*
X156768280Y-67255419D01*
X156636512Y-67101139D01*
X156609778Y-67069837D01*
X156487082Y-66965045D01*
X156424195Y-66911334D01*
X156424192Y-66911333D01*
X156216108Y-66783818D01*
X155990637Y-66690426D01*
X155990640Y-66690426D01*
X155885011Y-66665066D01*
X155753321Y-66633450D01*
X155753319Y-66633449D01*
X155753316Y-66633449D01*
X155510019Y-66614302D01*
X155266721Y-66633449D01*
X155266716Y-66633450D01*
X155266717Y-66633450D01*
X155090320Y-66675800D01*
X155029399Y-66690426D01*
X154803929Y-66783818D01*
X154595845Y-66911333D01*
X154595842Y-66911334D01*
X154410260Y-67069837D01*
X154251757Y-67255419D01*
X154251756Y-67255422D01*
X154124241Y-67463506D01*
X154030849Y-67688976D01*
X153973872Y-67926298D01*
X153954725Y-68169596D01*
X153960481Y-68242740D01*
X153946116Y-68311117D01*
X153924544Y-68340149D01*
X153312195Y-68952499D01*
X153250872Y-68985984D01*
X153181181Y-68981000D01*
X153125247Y-68939129D01*
X153100830Y-68873664D01*
X153109953Y-68817365D01*
X153179188Y-68650215D01*
X153179187Y-68650215D01*
X153179191Y-68650208D01*
X153236165Y-68412898D01*
X153255313Y-68169596D01*
X153236165Y-67926294D01*
X153179191Y-67688984D01*
X153179188Y-67688976D01*
X153085796Y-67463506D01*
X152958281Y-67255422D01*
X152958280Y-67255419D01*
X152826512Y-67101139D01*
X152799778Y-67069837D01*
X152677082Y-66965045D01*
X152614195Y-66911334D01*
X152614192Y-66911333D01*
X152406108Y-66783818D01*
X152180637Y-66690426D01*
X152180640Y-66690426D01*
X152075011Y-66665066D01*
X151943321Y-66633450D01*
X151943319Y-66633449D01*
X151943316Y-66633449D01*
X151700019Y-66614302D01*
X151456721Y-66633449D01*
X151456716Y-66633450D01*
X151456717Y-66633450D01*
X151280320Y-66675800D01*
X151219399Y-66690426D01*
X150993929Y-66783818D01*
X150785845Y-66911333D01*
X150785842Y-66911334D01*
X150600260Y-67069837D01*
X150441757Y-67255419D01*
X150441756Y-67255422D01*
X150314241Y-67463506D01*
X150220849Y-67688976D01*
X150163872Y-67926298D01*
X150144725Y-68169595D01*
X150163872Y-68412893D01*
X150163872Y-68412896D01*
X150163873Y-68412898D01*
X150201629Y-68570162D01*
X150220849Y-68650215D01*
X150314241Y-68875685D01*
X150441756Y-69083769D01*
X150441757Y-69083772D01*
X150441760Y-69083775D01*
X150600260Y-69269355D01*
X150743916Y-69392049D01*
X150785842Y-69427857D01*
X150785845Y-69427858D01*
X150993929Y-69555373D01*
X151219400Y-69648765D01*
X151219397Y-69648765D01*
X151219403Y-69648766D01*
X151219407Y-69648768D01*
X151456717Y-69705742D01*
X151568278Y-69714521D01*
X151580426Y-69715478D01*
X151645714Y-69740362D01*
X151687185Y-69796593D01*
X151691672Y-69866318D01*
X151657750Y-69927401D01*
X151596190Y-69960447D01*
X151570697Y-69963096D01*
X148012973Y-69963096D01*
X147945934Y-69943411D01*
X147908196Y-69899859D01*
X147891278Y-69930325D01*
X147829718Y-69963371D01*
X147816770Y-69965384D01*
X147687579Y-69978521D01*
X147493439Y-70039433D01*
X147493424Y-70039440D01*
X147315519Y-70138185D01*
X147315514Y-70138188D01*
X147161125Y-70270728D01*
X147161123Y-70270730D01*
X147036573Y-70431633D01*
X147036572Y-70431636D01*
X146946959Y-70614324D01*
X146895956Y-70811310D01*
X146885650Y-71014532D01*
X137092519Y-71014532D01*
X137092519Y-68169596D01*
X146335226Y-68169596D01*
X146354367Y-68412815D01*
X146411322Y-68650053D01*
X146504687Y-68875457D01*
X146628523Y-69077538D01*
X147249878Y-68456182D01*
X147309699Y-68570162D01*
X147422424Y-68697402D01*
X147562324Y-68793967D01*
X147603560Y-68809606D01*
X146982075Y-69431090D01*
X147184157Y-69554927D01*
X147409561Y-69648292D01*
X147646799Y-69705247D01*
X147646798Y-69705247D01*
X147813953Y-69718402D01*
X147879242Y-69743286D01*
X147908076Y-69782382D01*
X147919260Y-69757893D01*
X147978038Y-69720119D01*
X148003244Y-69715478D01*
X148133238Y-69705247D01*
X148370476Y-69648292D01*
X148595880Y-69554927D01*
X148797961Y-69431090D01*
X148176476Y-68809606D01*
X148217714Y-68793967D01*
X148357614Y-68697402D01*
X148470339Y-68570162D01*
X148530158Y-68456183D01*
X149151513Y-69077538D01*
X149275350Y-68875457D01*
X149368715Y-68650053D01*
X149425670Y-68412815D01*
X149444811Y-68169596D01*
X149425670Y-67926376D01*
X149368715Y-67689138D01*
X149275350Y-67463734D01*
X149151513Y-67261652D01*
X148530158Y-67883007D01*
X148470339Y-67769030D01*
X148357614Y-67641790D01*
X148217714Y-67545225D01*
X148176476Y-67529585D01*
X148797961Y-66908100D01*
X148595880Y-66784264D01*
X148370476Y-66690899D01*
X148133238Y-66633944D01*
X148133239Y-66633944D01*
X147890019Y-66614803D01*
X147646799Y-66633944D01*
X147409561Y-66690899D01*
X147184165Y-66784261D01*
X147184160Y-66784264D01*
X146982075Y-66908100D01*
X147603561Y-67529585D01*
X147562324Y-67545225D01*
X147422424Y-67641790D01*
X147309699Y-67769030D01*
X147249879Y-67883008D01*
X146628523Y-67261652D01*
X146504687Y-67463737D01*
X146504684Y-67463742D01*
X146411322Y-67689138D01*
X146354367Y-67926376D01*
X146335226Y-68169596D01*
X137092519Y-68169596D01*
X137092519Y-66642596D01*
X137080966Y-66535140D01*
X137069760Y-66483629D01*
X137069656Y-66483318D01*
X137035635Y-66381098D01*
X137035632Y-66381092D01*
X136957847Y-66260058D01*
X136957844Y-66260053D01*
X136957839Y-66260047D01*
X136912095Y-66207255D01*
X136912091Y-66207252D01*
X136912089Y-66207249D01*
X136803355Y-66113029D01*
X136803352Y-66113027D01*
X136803350Y-66113026D01*
X136672484Y-66053260D01*
X136672479Y-66053258D01*
X136672478Y-66053258D01*
X136649877Y-66046621D01*
X136605444Y-66033574D01*
X136605438Y-66033572D01*
X136503568Y-66018926D01*
X136463019Y-66013096D01*
X131250019Y-66013096D01*
X131250010Y-66013096D01*
X131250009Y-66013097D01*
X131142568Y-66024648D01*
X131142556Y-66024650D01*
X131091046Y-66035856D01*
X130988521Y-66069979D01*
X130988515Y-66069982D01*
X130867481Y-66147767D01*
X130867470Y-66147775D01*
X130814678Y-66193519D01*
X130720452Y-66302260D01*
X130720449Y-66302264D01*
X130660683Y-66433130D01*
X130640997Y-66500171D01*
X130640995Y-66500176D01*
X130624614Y-66614112D01*
X130620519Y-66642596D01*
X130620519Y-72363596D01*
X130620520Y-72363605D01*
X130632071Y-72471046D01*
X130632073Y-72471058D01*
X130643279Y-72522568D01*
X130677402Y-72625093D01*
X130677405Y-72625099D01*
X130755190Y-72746133D01*
X130755198Y-72746144D01*
X130800942Y-72798936D01*
X130800945Y-72798939D01*
X130800949Y-72798943D01*
X130909683Y-72893163D01*
X130909686Y-72893164D01*
X130909687Y-72893165D01*
X131034345Y-72950096D01*
X131040560Y-72952934D01*
X131085376Y-72966093D01*
X131107594Y-72972618D01*
X131107599Y-72972619D01*
X131107603Y-72972620D01*
X131250019Y-72993096D01*
X133417519Y-72993096D01*
X133484558Y-73012781D01*
X133530313Y-73065585D01*
X133541519Y-73117096D01*
X133541519Y-77827096D01*
X133521834Y-77894135D01*
X133469030Y-77939890D01*
X133417519Y-77951096D01*
X133155019Y-77951096D01*
X133155010Y-77951096D01*
X133155009Y-77951097D01*
X133047568Y-77962648D01*
X133047556Y-77962650D01*
X132996046Y-77973856D01*
X132893521Y-78007979D01*
X132893515Y-78007982D01*
X132772481Y-78085767D01*
X132772470Y-78085775D01*
X132719678Y-78131519D01*
X132625452Y-78240260D01*
X132625449Y-78240264D01*
X132565683Y-78371130D01*
X132545997Y-78438171D01*
X132545995Y-78438176D01*
X132525519Y-78580597D01*
X132525519Y-86463096D01*
X132505834Y-86530135D01*
X132453030Y-86575890D01*
X132401519Y-86587096D01*
X125789019Y-86587096D01*
X125789010Y-86587096D01*
X125789009Y-86587097D01*
X125681568Y-86598648D01*
X125681556Y-86598650D01*
X125630046Y-86609856D01*
X125527521Y-86643979D01*
X125527515Y-86643982D01*
X125406481Y-86721767D01*
X125406470Y-86721775D01*
X125353678Y-86767519D01*
X125259452Y-86876260D01*
X125259449Y-86876264D01*
X125199683Y-87007130D01*
X125179997Y-87074171D01*
X125179995Y-87074176D01*
X125159519Y-87216597D01*
X125159518Y-87216598D01*
X125159519Y-88368096D01*
X125139834Y-88435135D01*
X125087030Y-88480890D01*
X125035519Y-88492096D01*
X122995019Y-88492096D01*
X122995010Y-88492096D01*
X122995009Y-88492097D01*
X122887568Y-88503648D01*
X122887556Y-88503650D01*
X122836046Y-88514856D01*
X122733521Y-88548979D01*
X122733515Y-88548982D01*
X122612481Y-88626767D01*
X122612470Y-88626775D01*
X122559678Y-88672519D01*
X122465452Y-88781260D01*
X122465449Y-88781264D01*
X122405683Y-88912130D01*
X122385997Y-88979171D01*
X122385995Y-88979176D01*
X122381819Y-89008225D01*
X122365519Y-89121596D01*
X122365519Y-99922596D01*
X122365520Y-99922605D01*
X122377071Y-100030046D01*
X122377073Y-100030058D01*
X122388279Y-100081568D01*
X122422402Y-100184093D01*
X122422405Y-100184099D01*
X122500190Y-100305133D01*
X122500198Y-100305144D01*
X122545942Y-100357936D01*
X122545945Y-100357939D01*
X122545949Y-100357943D01*
X122654683Y-100452163D01*
X122785560Y-100511934D01*
X122830376Y-100525093D01*
X122852594Y-100531618D01*
X122852599Y-100531619D01*
X122852603Y-100531620D01*
X122995019Y-100552096D01*
X125289519Y-100552096D01*
X125356558Y-100571781D01*
X125402313Y-100624585D01*
X125413519Y-100676096D01*
X125413519Y-101957096D01*
X125393834Y-102024135D01*
X125341030Y-102069890D01*
X125289519Y-102081096D01*
X122995019Y-102081096D01*
X122995010Y-102081096D01*
X122995009Y-102081097D01*
X122887568Y-102092648D01*
X122887556Y-102092650D01*
X122836046Y-102103856D01*
X122733521Y-102137979D01*
X122733515Y-102137982D01*
X122612481Y-102215767D01*
X122612470Y-102215775D01*
X122559678Y-102261519D01*
X122465452Y-102370260D01*
X122465449Y-102370264D01*
X122405683Y-102501130D01*
X122385997Y-102568171D01*
X122385995Y-102568176D01*
X122365519Y-102710597D01*
X122365519Y-102710598D01*
X122365518Y-105002586D01*
X122365520Y-105002605D01*
X122377071Y-105110046D01*
X122377073Y-105110058D01*
X122388279Y-105161568D01*
X122422402Y-105264093D01*
X122422405Y-105264099D01*
X122500190Y-105385133D01*
X122500198Y-105385144D01*
X122545942Y-105437936D01*
X122545945Y-105437939D01*
X122545949Y-105437943D01*
X122654683Y-105532163D01*
X122654686Y-105532164D01*
X122654687Y-105532165D01*
X122780810Y-105589765D01*
X122785560Y-105591934D01*
X122830376Y-105605093D01*
X122852594Y-105611618D01*
X122852599Y-105611619D01*
X122852603Y-105611620D01*
X122995019Y-105632096D01*
X125289519Y-105632096D01*
X125356558Y-105651781D01*
X125402313Y-105704585D01*
X125413519Y-105756096D01*
X125413519Y-107037096D01*
X125393834Y-107104135D01*
X125341030Y-107149890D01*
X125289519Y-107161096D01*
X122995019Y-107161096D01*
X122995010Y-107161096D01*
X122995009Y-107161097D01*
X122887568Y-107172648D01*
X122887556Y-107172650D01*
X122836046Y-107183856D01*
X122733521Y-107217979D01*
X122733515Y-107217982D01*
X122612481Y-107295767D01*
X122612470Y-107295775D01*
X122559678Y-107341519D01*
X122465452Y-107450260D01*
X122465449Y-107450264D01*
X122405683Y-107581130D01*
X122385997Y-107648171D01*
X122385995Y-107648176D01*
X122365519Y-107790597D01*
X122365519Y-107790598D01*
X122365518Y-110082586D01*
X110218665Y-110082586D01*
X110222146Y-107920596D01*
X116119225Y-107920596D01*
X116138372Y-108163893D01*
X116138372Y-108163896D01*
X116138373Y-108163898D01*
X116185119Y-108358607D01*
X116195349Y-108401215D01*
X116288741Y-108626685D01*
X116416256Y-108834769D01*
X116416257Y-108834772D01*
X116416260Y-108834775D01*
X116574760Y-109020355D01*
X116718416Y-109143049D01*
X116760342Y-109178857D01*
X116760345Y-109178858D01*
X116968429Y-109306373D01*
X117193900Y-109399765D01*
X117193897Y-109399765D01*
X117193903Y-109399766D01*
X117193907Y-109399768D01*
X117431217Y-109456742D01*
X117674519Y-109475890D01*
X117917821Y-109456742D01*
X118155131Y-109399768D01*
X118380608Y-109306373D01*
X118588698Y-109178855D01*
X118774278Y-109020355D01*
X118932778Y-108834775D01*
X119060296Y-108626685D01*
X119153691Y-108401208D01*
X119210665Y-108163898D01*
X119229813Y-107920596D01*
X119210665Y-107677294D01*
X119153691Y-107439984D01*
X119124436Y-107369355D01*
X119060296Y-107214506D01*
X118932781Y-107006422D01*
X118932780Y-107006419D01*
X118896972Y-106964493D01*
X118774278Y-106820837D01*
X118651582Y-106716045D01*
X118588695Y-106662334D01*
X118588692Y-106662333D01*
X118380608Y-106534818D01*
X118155137Y-106441426D01*
X118155140Y-106441426D01*
X118049511Y-106416066D01*
X117917821Y-106384450D01*
X117917819Y-106384449D01*
X117917816Y-106384449D01*
X117702462Y-106367501D01*
X117674519Y-106365302D01*
X117674518Y-106365302D01*
X117431221Y-106384449D01*
X117193899Y-106441426D01*
X116968429Y-106534818D01*
X116760345Y-106662333D01*
X116760342Y-106662334D01*
X116574760Y-106820837D01*
X116416257Y-107006419D01*
X116416256Y-107006422D01*
X116288741Y-107214506D01*
X116195349Y-107439976D01*
X116138372Y-107677298D01*
X116119225Y-107920596D01*
X110222146Y-107920596D01*
X110228281Y-104110596D01*
X116119225Y-104110596D01*
X116138372Y-104353893D01*
X116195349Y-104591215D01*
X116288741Y-104816685D01*
X116416256Y-105024769D01*
X116416257Y-105024772D01*
X116416260Y-105024775D01*
X116574760Y-105210355D01*
X116718416Y-105333049D01*
X116760342Y-105368857D01*
X116760345Y-105368858D01*
X116968429Y-105496373D01*
X117193900Y-105589765D01*
X117193897Y-105589765D01*
X117193903Y-105589766D01*
X117193907Y-105589768D01*
X117431217Y-105646742D01*
X117674519Y-105665890D01*
X117917821Y-105646742D01*
X118155131Y-105589768D01*
X118380608Y-105496373D01*
X118588698Y-105368855D01*
X118774278Y-105210355D01*
X118932778Y-105024775D01*
X119060296Y-104816685D01*
X119153691Y-104591208D01*
X119210665Y-104353898D01*
X119229813Y-104110596D01*
X119210665Y-103867294D01*
X119153691Y-103629984D01*
X119124436Y-103559355D01*
X119060296Y-103404506D01*
X118932781Y-103196422D01*
X118932780Y-103196419D01*
X118896972Y-103154493D01*
X118774278Y-103010837D01*
X118651582Y-102906045D01*
X118588695Y-102852334D01*
X118588692Y-102852333D01*
X118380608Y-102724818D01*
X118155137Y-102631426D01*
X118155140Y-102631426D01*
X118049511Y-102606066D01*
X117917821Y-102574450D01*
X117917819Y-102574449D01*
X117917816Y-102574449D01*
X117674519Y-102555302D01*
X117431221Y-102574449D01*
X117193899Y-102631426D01*
X116968429Y-102724818D01*
X116760345Y-102852333D01*
X116760342Y-102852334D01*
X116574760Y-103010837D01*
X116416257Y-103196419D01*
X116416256Y-103196422D01*
X116288741Y-103404506D01*
X116195349Y-103629976D01*
X116138372Y-103867298D01*
X116119225Y-104110596D01*
X110228281Y-104110596D01*
X110234416Y-100300596D01*
X116119225Y-100300596D01*
X116138372Y-100543893D01*
X116138372Y-100543896D01*
X116138373Y-100543898D01*
X116178119Y-100709451D01*
X116195349Y-100781215D01*
X116288741Y-101006685D01*
X116416256Y-101214769D01*
X116416257Y-101214772D01*
X116416260Y-101214775D01*
X116574760Y-101400355D01*
X116718416Y-101523049D01*
X116760342Y-101558857D01*
X116760345Y-101558858D01*
X116968429Y-101686373D01*
X117193900Y-101779765D01*
X117193897Y-101779765D01*
X117193903Y-101779766D01*
X117193907Y-101779768D01*
X117431217Y-101836742D01*
X117674519Y-101855890D01*
X117917821Y-101836742D01*
X118155131Y-101779768D01*
X118380608Y-101686373D01*
X118588698Y-101558855D01*
X118774278Y-101400355D01*
X118932778Y-101214775D01*
X119060296Y-101006685D01*
X119153691Y-100781208D01*
X119210665Y-100543898D01*
X119229813Y-100300596D01*
X119210665Y-100057294D01*
X119153691Y-99819984D01*
X119060296Y-99594507D01*
X119060296Y-99594506D01*
X118932781Y-99386422D01*
X118932780Y-99386419D01*
X118841117Y-99279096D01*
X118774278Y-99200837D01*
X118651582Y-99096045D01*
X118588695Y-99042334D01*
X118588692Y-99042333D01*
X118380608Y-98914818D01*
X118155137Y-98821426D01*
X118155140Y-98821426D01*
X118049511Y-98796066D01*
X117917821Y-98764450D01*
X117917819Y-98764449D01*
X117917816Y-98764449D01*
X117702462Y-98747501D01*
X117674519Y-98745302D01*
X117674518Y-98745302D01*
X117431221Y-98764449D01*
X117193899Y-98821426D01*
X116968429Y-98914818D01*
X116760345Y-99042333D01*
X116760342Y-99042334D01*
X116574760Y-99200837D01*
X116416257Y-99386419D01*
X116416256Y-99386422D01*
X116288741Y-99594506D01*
X116195349Y-99819976D01*
X116195347Y-99819983D01*
X116195347Y-99819984D01*
X116157364Y-99978190D01*
X116138372Y-100057298D01*
X116119225Y-100300596D01*
X110234416Y-100300596D01*
X110238783Y-97588466D01*
X116124019Y-97588466D01*
X116124020Y-97588472D01*
X116130427Y-97648079D01*
X116180721Y-97782924D01*
X116180725Y-97782931D01*
X116266971Y-97898140D01*
X116266974Y-97898143D01*
X116382183Y-97984389D01*
X116382190Y-97984393D01*
X116517036Y-98034687D01*
X116517035Y-98034687D01*
X116523963Y-98035431D01*
X116576646Y-98041096D01*
X118772391Y-98041095D01*
X118832002Y-98034687D01*
X118966850Y-97984392D01*
X119082065Y-97898142D01*
X119168315Y-97782927D01*
X119218610Y-97648079D01*
X119225019Y-97588469D01*
X119225018Y-95392724D01*
X119218610Y-95333113D01*
X119181386Y-95233311D01*
X119168316Y-95198267D01*
X119168312Y-95198260D01*
X119082066Y-95083051D01*
X119082063Y-95083048D01*
X118966854Y-94996802D01*
X118966847Y-94996798D01*
X118832001Y-94946504D01*
X118832002Y-94946504D01*
X118772402Y-94940097D01*
X118772400Y-94940096D01*
X118772392Y-94940096D01*
X118772383Y-94940096D01*
X116576648Y-94940096D01*
X116576642Y-94940097D01*
X116517035Y-94946504D01*
X116382190Y-94996798D01*
X116382183Y-94996802D01*
X116266974Y-95083048D01*
X116266971Y-95083051D01*
X116180725Y-95198260D01*
X116180721Y-95198267D01*
X116130427Y-95333113D01*
X116124020Y-95392712D01*
X116124020Y-95392719D01*
X116124019Y-95392731D01*
X116124019Y-97588466D01*
X110238783Y-97588466D01*
X110252004Y-89378596D01*
X116109226Y-89378596D01*
X116128367Y-89621815D01*
X116185322Y-89859053D01*
X116278687Y-90084457D01*
X116402523Y-90286538D01*
X117023878Y-89665182D01*
X117083699Y-89779162D01*
X117196424Y-89906402D01*
X117336324Y-90002967D01*
X117377560Y-90018606D01*
X116756075Y-90640090D01*
X116958157Y-90763927D01*
X117183561Y-90857292D01*
X117420799Y-90914247D01*
X117420798Y-90914247D01*
X117664018Y-90933388D01*
X117907238Y-90914247D01*
X118144476Y-90857292D01*
X118369880Y-90763927D01*
X118571961Y-90640090D01*
X117950476Y-90018606D01*
X117991714Y-90002967D01*
X118131614Y-89906402D01*
X118244339Y-89779162D01*
X118304158Y-89665183D01*
X118925513Y-90286538D01*
X119049350Y-90084457D01*
X119142715Y-89859053D01*
X119199670Y-89621815D01*
X119218811Y-89378596D01*
X119199670Y-89135376D01*
X119142715Y-88898138D01*
X119049350Y-88672734D01*
X118925513Y-88470652D01*
X118304158Y-89092007D01*
X118244339Y-88978030D01*
X118131614Y-88850790D01*
X117991714Y-88754225D01*
X117950475Y-88738585D01*
X118571961Y-88117100D01*
X118369880Y-87993264D01*
X118144476Y-87899899D01*
X117907238Y-87842944D01*
X117907239Y-87842944D01*
X117664018Y-87823803D01*
X117420799Y-87842944D01*
X117183561Y-87899899D01*
X116958165Y-87993261D01*
X116958160Y-87993264D01*
X116756075Y-88117100D01*
X117377560Y-88738586D01*
X117336324Y-88754225D01*
X117196424Y-88850790D01*
X117083699Y-88978030D01*
X117023879Y-89092008D01*
X116402523Y-88470652D01*
X116278687Y-88672737D01*
X116278684Y-88672742D01*
X116185322Y-88898138D01*
X116128367Y-89135376D01*
X116109226Y-89378596D01*
X110252004Y-89378596D01*
X110256371Y-86666466D01*
X116113519Y-86666466D01*
X116113520Y-86666472D01*
X116119927Y-86726079D01*
X116170221Y-86860924D01*
X116170225Y-86860931D01*
X116256471Y-86976140D01*
X116256474Y-86976143D01*
X116371683Y-87062389D01*
X116371690Y-87062393D01*
X116506536Y-87112687D01*
X116506535Y-87112687D01*
X116513463Y-87113431D01*
X116566146Y-87119096D01*
X118761891Y-87119095D01*
X118821502Y-87112687D01*
X118956350Y-87062392D01*
X119071565Y-86976142D01*
X119157815Y-86860927D01*
X119208110Y-86726079D01*
X119214519Y-86666469D01*
X119214518Y-84470724D01*
X119208110Y-84411113D01*
X119157815Y-84276265D01*
X119157814Y-84276264D01*
X119157812Y-84276260D01*
X119071566Y-84161051D01*
X119071563Y-84161048D01*
X118956354Y-84074802D01*
X118956347Y-84074798D01*
X118821501Y-84024504D01*
X118821502Y-84024504D01*
X118761902Y-84018097D01*
X118761900Y-84018096D01*
X118761892Y-84018096D01*
X118761883Y-84018096D01*
X116566148Y-84018096D01*
X116566142Y-84018097D01*
X116506535Y-84024504D01*
X116371690Y-84074798D01*
X116371683Y-84074802D01*
X116256474Y-84161048D01*
X116256471Y-84161051D01*
X116170225Y-84276260D01*
X116170221Y-84276267D01*
X116119927Y-84411113D01*
X116113520Y-84470712D01*
X116113520Y-84470719D01*
X116113519Y-84470731D01*
X116113519Y-86666466D01*
X110256371Y-86666466D01*
X110268369Y-79215596D01*
X115632170Y-79215596D01*
X115632562Y-79220591D01*
X115632563Y-79220593D01*
X115692271Y-79469298D01*
X115790153Y-79705608D01*
X115790155Y-79705611D01*
X115923797Y-79923696D01*
X115923798Y-79923698D01*
X116089917Y-80118197D01*
X116284416Y-80284316D01*
X116284418Y-80284317D01*
X116502503Y-80417959D01*
X116502506Y-80417961D01*
X116738816Y-80515843D01*
X116987530Y-80575553D01*
X116987529Y-80575553D01*
X117178667Y-80590596D01*
X118117519Y-80590596D01*
X118117519Y-79465596D01*
X118617519Y-79465596D01*
X118617519Y-80590596D01*
X119556371Y-80590596D01*
X119747507Y-80575553D01*
X119996221Y-80515843D01*
X120232531Y-80417961D01*
X120232534Y-80417959D01*
X120450619Y-80284317D01*
X120450621Y-80284316D01*
X120645120Y-80118197D01*
X120811239Y-79923698D01*
X120811240Y-79923696D01*
X120944882Y-79705611D01*
X120944884Y-79705608D01*
X121042766Y-79469298D01*
X121102474Y-79220593D01*
X121102475Y-79220591D01*
X121102868Y-79215596D01*
X119801205Y-79215596D01*
X119827012Y-79175440D01*
X119867519Y-79037485D01*
X119867519Y-78893707D01*
X119827012Y-78755752D01*
X119801205Y-78715596D01*
X121102868Y-78715596D01*
X121102475Y-78710600D01*
X121102474Y-78710598D01*
X121042766Y-78461893D01*
X120944884Y-78225583D01*
X120944882Y-78225580D01*
X120811240Y-78007495D01*
X120811239Y-78007493D01*
X120645120Y-77812994D01*
X120450621Y-77646875D01*
X120450619Y-77646874D01*
X120232534Y-77513232D01*
X120232531Y-77513230D01*
X119996221Y-77415348D01*
X119747507Y-77355638D01*
X119747508Y-77355638D01*
X119556371Y-77340596D01*
X118617519Y-77340596D01*
X118617519Y-78465596D01*
X118117519Y-78465596D01*
X118117519Y-77340596D01*
X117178667Y-77340596D01*
X116987530Y-77355638D01*
X116738816Y-77415348D01*
X116502506Y-77513230D01*
X116502503Y-77513232D01*
X116284418Y-77646874D01*
X116284416Y-77646875D01*
X116089917Y-77812994D01*
X115923798Y-78007493D01*
X115923797Y-78007495D01*
X115790155Y-78225580D01*
X115790153Y-78225583D01*
X115692271Y-78461893D01*
X115632563Y-78710598D01*
X115632562Y-78710600D01*
X115632170Y-78715596D01*
X116933833Y-78715596D01*
X116908026Y-78755752D01*
X116867519Y-78893707D01*
X116867519Y-79037485D01*
X116908026Y-79175440D01*
X116933833Y-79215596D01*
X115632170Y-79215596D01*
X110268369Y-79215596D01*
X110274426Y-75454448D01*
X113742519Y-75454448D01*
X113757561Y-75645584D01*
X113817271Y-75894298D01*
X113915153Y-76130608D01*
X113915155Y-76130611D01*
X114048797Y-76348696D01*
X114048798Y-76348698D01*
X114214917Y-76543197D01*
X114409416Y-76709316D01*
X114409418Y-76709317D01*
X114627503Y-76842959D01*
X114627506Y-76842961D01*
X114863816Y-76940843D01*
X115112529Y-77000553D01*
X115117519Y-77000944D01*
X115117519Y-75699282D01*
X115157675Y-75725089D01*
X115295630Y-75765596D01*
X115439408Y-75765596D01*
X115577363Y-75725089D01*
X115617518Y-75699282D01*
X115617518Y-77000944D01*
X115622508Y-77000553D01*
X115871221Y-76940843D01*
X116107531Y-76842961D01*
X116107534Y-76842959D01*
X116325619Y-76709317D01*
X116325621Y-76709316D01*
X116520120Y-76543197D01*
X116686239Y-76348698D01*
X116686240Y-76348696D01*
X116819882Y-76130611D01*
X116819884Y-76130608D01*
X116917766Y-75894298D01*
X116977476Y-75645584D01*
X116982551Y-75581096D01*
X119617019Y-75581096D01*
X119631715Y-75777216D01*
X119631716Y-75777221D01*
X119690095Y-76032998D01*
X119690097Y-76033007D01*
X119690099Y-76033012D01*
X119785951Y-76277239D01*
X119917133Y-76504453D01*
X119980267Y-76583620D01*
X120080717Y-76709581D01*
X120208073Y-76827749D01*
X120273040Y-76888029D01*
X120489815Y-77035824D01*
X120489820Y-77035826D01*
X120489821Y-77035827D01*
X120489822Y-77035828D01*
X120574830Y-77076765D01*
X120726192Y-77149657D01*
X120726193Y-77149657D01*
X120726196Y-77149659D01*
X120976904Y-77226992D01*
X121236337Y-77266096D01*
X121498701Y-77266096D01*
X121758134Y-77226992D01*
X122008842Y-77149659D01*
X122245223Y-77035824D01*
X122461998Y-76888029D01*
X122654324Y-76709577D01*
X122817905Y-76504453D01*
X122949087Y-76277239D01*
X123044939Y-76033012D01*
X123103321Y-75777226D01*
X123118019Y-75581090D01*
X123118019Y-72950102D01*
X123113752Y-72893165D01*
X123103322Y-72753975D01*
X123103321Y-72753970D01*
X123103321Y-72753966D01*
X123044939Y-72498180D01*
X122949087Y-72253953D01*
X122817905Y-72026739D01*
X122654324Y-71821615D01*
X122654323Y-71821614D01*
X122654320Y-71821610D01*
X122461998Y-71643163D01*
X122433020Y-71623406D01*
X122245223Y-71495368D01*
X122245219Y-71495366D01*
X122245216Y-71495364D01*
X122245215Y-71495363D01*
X122008844Y-71381534D01*
X122008846Y-71381534D01*
X121758142Y-71304202D01*
X121758138Y-71304201D01*
X121758134Y-71304200D01*
X121633342Y-71285390D01*
X121498706Y-71265096D01*
X121498701Y-71265096D01*
X121236337Y-71265096D01*
X121236331Y-71265096D01*
X121074766Y-71289449D01*
X120976904Y-71304200D01*
X120976900Y-71304201D01*
X120976901Y-71304201D01*
X120976895Y-71304202D01*
X120726192Y-71381534D01*
X120489822Y-71495363D01*
X120489821Y-71495364D01*
X120273039Y-71643163D01*
X120080717Y-71821610D01*
X119917133Y-72026739D01*
X119785951Y-72253952D01*
X119690101Y-72498174D01*
X119690095Y-72498193D01*
X119631716Y-72753970D01*
X119631715Y-72753975D01*
X119617019Y-72950096D01*
X119617019Y-75581096D01*
X116982551Y-75581096D01*
X116992519Y-75454448D01*
X116992519Y-74515596D01*
X115867519Y-74515596D01*
X115867519Y-74015596D01*
X116992519Y-74015596D01*
X116992519Y-73076744D01*
X116977476Y-72885607D01*
X116917766Y-72636893D01*
X116819884Y-72400583D01*
X116819882Y-72400580D01*
X116686240Y-72182495D01*
X116686239Y-72182493D01*
X116520120Y-71987994D01*
X116325621Y-71821875D01*
X116325619Y-71821874D01*
X116107534Y-71688232D01*
X116107531Y-71688230D01*
X115871221Y-71590348D01*
X115622516Y-71530640D01*
X115622514Y-71530639D01*
X115617519Y-71530246D01*
X115617519Y-72831909D01*
X115577363Y-72806103D01*
X115439408Y-72765596D01*
X115295630Y-72765596D01*
X115157675Y-72806103D01*
X115117518Y-72831909D01*
X115117518Y-71530246D01*
X115112523Y-71530639D01*
X115112521Y-71530640D01*
X114863816Y-71590348D01*
X114627506Y-71688230D01*
X114627503Y-71688232D01*
X114409418Y-71821874D01*
X114409416Y-71821875D01*
X114214917Y-71987994D01*
X114048798Y-72182493D01*
X114048797Y-72182495D01*
X113915155Y-72400580D01*
X113915153Y-72400583D01*
X113817271Y-72636893D01*
X113757561Y-72885607D01*
X113742519Y-73076744D01*
X113742519Y-74015596D01*
X114867519Y-74015596D01*
X114867519Y-74515596D01*
X113742519Y-74515596D01*
X113742519Y-75454448D01*
X110274426Y-75454448D01*
X110290861Y-65248596D01*
X110910941Y-65248596D01*
X110931238Y-65635883D01*
X110991905Y-66018919D01*
X110991906Y-66018926D01*
X111092281Y-66393532D01*
X111231263Y-66755590D01*
X111407329Y-67101139D01*
X111618550Y-67426389D01*
X111827114Y-67683946D01*
X111827115Y-67683946D01*
X113318285Y-66192776D01*
X113481149Y-66383466D01*
X113671838Y-66546329D01*
X112180667Y-68037499D01*
X112180668Y-68037500D01*
X112438225Y-68246064D01*
X112763475Y-68457285D01*
X113109024Y-68633351D01*
X113471082Y-68772333D01*
X113845688Y-68872708D01*
X113845695Y-68872709D01*
X114228731Y-68933376D01*
X114616018Y-68953674D01*
X114616020Y-68953674D01*
X115003306Y-68933376D01*
X115386342Y-68872709D01*
X115386349Y-68872708D01*
X115760955Y-68772333D01*
X116123013Y-68633351D01*
X116468562Y-68457285D01*
X116793802Y-68246072D01*
X116793804Y-68246071D01*
X117051368Y-68037498D01*
X115560199Y-66546329D01*
X115750889Y-66383466D01*
X115913752Y-66192776D01*
X117404921Y-67683945D01*
X117613494Y-67426381D01*
X117613495Y-67426379D01*
X117824708Y-67101139D01*
X118000774Y-66755590D01*
X118139756Y-66393532D01*
X118240131Y-66018926D01*
X118240132Y-66018919D01*
X118300799Y-65635883D01*
X118321097Y-65248596D01*
X165901941Y-65248596D01*
X165922238Y-65635883D01*
X165982905Y-66018919D01*
X165982906Y-66018926D01*
X166083281Y-66393532D01*
X166222263Y-66755590D01*
X166398329Y-67101139D01*
X166609550Y-67426389D01*
X166818114Y-67683946D01*
X166818115Y-67683946D01*
X168309285Y-66192776D01*
X168472149Y-66383466D01*
X168662838Y-66546329D01*
X167171667Y-68037499D01*
X167171668Y-68037500D01*
X167429225Y-68246064D01*
X167754475Y-68457285D01*
X168100024Y-68633351D01*
X168462082Y-68772333D01*
X168836688Y-68872708D01*
X168836695Y-68872709D01*
X169219731Y-68933376D01*
X169607018Y-68953674D01*
X169607020Y-68953674D01*
X169994306Y-68933376D01*
X170377342Y-68872709D01*
X170377349Y-68872708D01*
X170751955Y-68772333D01*
X171114013Y-68633351D01*
X171459562Y-68457285D01*
X171784802Y-68246072D01*
X171784804Y-68246071D01*
X172042368Y-68037498D01*
X170551199Y-66546329D01*
X170741889Y-66383466D01*
X170904752Y-66192776D01*
X172395921Y-67683945D01*
X172604494Y-67426381D01*
X172604495Y-67426379D01*
X172815708Y-67101139D01*
X172991774Y-66755590D01*
X173130756Y-66393532D01*
X173231131Y-66018926D01*
X173231132Y-66018919D01*
X173291799Y-65635883D01*
X173312097Y-65248596D01*
X173312097Y-65248595D01*
X173291799Y-64861308D01*
X173231132Y-64478272D01*
X173231131Y-64478265D01*
X173130756Y-64103659D01*
X172991774Y-63741601D01*
X172815708Y-63396052D01*
X172604487Y-63070802D01*
X172395923Y-62813245D01*
X172395922Y-62813244D01*
X170904751Y-64304414D01*
X170741889Y-64113726D01*
X170551199Y-63950862D01*
X172042369Y-62459692D01*
X172042369Y-62459691D01*
X171784812Y-62251127D01*
X171459562Y-62039906D01*
X171114013Y-61863840D01*
X170751955Y-61724858D01*
X170377349Y-61624483D01*
X170377342Y-61624482D01*
X169994306Y-61563815D01*
X169607020Y-61543518D01*
X169607018Y-61543518D01*
X169219731Y-61563815D01*
X168836695Y-61624482D01*
X168836688Y-61624483D01*
X168462082Y-61724858D01*
X168100024Y-61863840D01*
X167754475Y-62039906D01*
X167429225Y-62251127D01*
X167171667Y-62459691D01*
X167171667Y-62459692D01*
X168662838Y-63950862D01*
X168472149Y-64113726D01*
X168309285Y-64304414D01*
X166818115Y-62813244D01*
X166818114Y-62813244D01*
X166609550Y-63070802D01*
X166398329Y-63396052D01*
X166222263Y-63741601D01*
X166083281Y-64103659D01*
X165982906Y-64478265D01*
X165982905Y-64478272D01*
X165922238Y-64861308D01*
X165901941Y-65248595D01*
X165901941Y-65248596D01*
X118321097Y-65248596D01*
X118321097Y-65248595D01*
X118300799Y-64861308D01*
X118240132Y-64478272D01*
X118240131Y-64478265D01*
X118139756Y-64103659D01*
X118000774Y-63741601D01*
X117824708Y-63396052D01*
X117613487Y-63070802D01*
X117404923Y-62813245D01*
X117404922Y-62813244D01*
X115913751Y-64304414D01*
X115750889Y-64113726D01*
X115560198Y-63950861D01*
X117051369Y-62459691D01*
X117051368Y-62459690D01*
X116793812Y-62251127D01*
X116468562Y-62039906D01*
X116123013Y-61863840D01*
X115760955Y-61724858D01*
X115386349Y-61624483D01*
X115386342Y-61624482D01*
X115003306Y-61563815D01*
X114616020Y-61543518D01*
X114616018Y-61543518D01*
X114228731Y-61563815D01*
X113845695Y-61624482D01*
X113845688Y-61624483D01*
X113471082Y-61724858D01*
X113109024Y-61863840D01*
X112763475Y-62039906D01*
X112438225Y-62251127D01*
X112180667Y-62459691D01*
X112180667Y-62459692D01*
X113671838Y-63950862D01*
X113481149Y-64113726D01*
X113318286Y-64304414D01*
X111827115Y-62813244D01*
X111827114Y-62813244D01*
X111618550Y-63070802D01*
X111407329Y-63396052D01*
X111231263Y-63741601D01*
X111092281Y-64103659D01*
X110991906Y-64478265D01*
X110991905Y-64478272D01*
X110931238Y-64861308D01*
X110910941Y-65248595D01*
X110910941Y-65248596D01*
X110290861Y-65248596D01*
X110296403Y-61807019D01*
X110296712Y-61800939D01*
X110303439Y-61733763D01*
X110314729Y-61621014D01*
X110319508Y-61597192D01*
X110369618Y-61432999D01*
X110378952Y-61410571D01*
X110460138Y-61259314D01*
X110473676Y-61239131D01*
X110582806Y-61106635D01*
X110600026Y-61089475D01*
X110732922Y-60980816D01*
X110753154Y-60967352D01*
X110904692Y-60886717D01*
X110927168Y-60877456D01*
X111091528Y-60827943D01*
X111115367Y-60823248D01*
X111238855Y-60811331D01*
X111295363Y-60805878D01*
X111301444Y-60805591D01*
X173177985Y-60928605D01*
G37*
%TD.AperFunction*%
%TD*%
%TA.AperFunction,Conductor*%
%TO.N,VDD*%
G36*
X136530058Y-66538281D02*
G01*
X136575813Y-66591085D01*
X136587019Y-66642596D01*
X136587019Y-72744596D01*
X136567334Y-72811635D01*
X136514530Y-72857390D01*
X136463019Y-72868596D01*
X135952019Y-72868596D01*
X135952019Y-75871419D01*
X135932334Y-75938458D01*
X135900905Y-75971737D01*
X135854145Y-76005710D01*
X135854142Y-76005712D01*
X135727485Y-76146381D01*
X135632840Y-76310311D01*
X135632837Y-76310318D01*
X135574346Y-76490336D01*
X135574345Y-76490340D01*
X135554559Y-76678596D01*
X135574345Y-76866852D01*
X135574346Y-76866855D01*
X135632837Y-77046873D01*
X135632840Y-77046880D01*
X135727486Y-77210812D01*
X135854147Y-77351484D01*
X135854148Y-77351484D01*
X135854152Y-77351487D01*
X135900903Y-77385453D01*
X135943569Y-77440782D01*
X135952019Y-77485772D01*
X135952019Y-84555596D01*
X135932334Y-84622635D01*
X135879530Y-84668390D01*
X135828019Y-84679596D01*
X134936019Y-84679596D01*
X134936019Y-98525596D01*
X134916334Y-98592635D01*
X134863530Y-98638390D01*
X134812019Y-98649596D01*
X131507019Y-98649596D01*
X131507019Y-108936596D01*
X134685019Y-108936596D01*
X134752058Y-108956281D01*
X134797813Y-109009085D01*
X134809019Y-109060596D01*
X134809019Y-110082596D01*
X134789334Y-110149635D01*
X134736530Y-110195390D01*
X134685019Y-110206596D01*
X122995019Y-110206596D01*
X122927980Y-110186911D01*
X122882225Y-110134107D01*
X122871019Y-110082596D01*
X122871019Y-107790596D01*
X122890704Y-107723557D01*
X122943508Y-107677802D01*
X122995019Y-107666596D01*
X125919018Y-107666596D01*
X125919019Y-107666596D01*
X125919019Y-105126596D01*
X122995019Y-105126596D01*
X122927980Y-105106911D01*
X122882225Y-105054107D01*
X122871019Y-105002596D01*
X122871019Y-102710596D01*
X122890704Y-102643557D01*
X122943508Y-102597802D01*
X122995019Y-102586596D01*
X125919018Y-102586596D01*
X125919019Y-102586596D01*
X125919019Y-100046596D01*
X122995019Y-100046596D01*
X122927980Y-100026911D01*
X122882225Y-99974107D01*
X122871019Y-99922596D01*
X122871019Y-89121596D01*
X122890704Y-89054557D01*
X122943508Y-89008802D01*
X122995019Y-88997596D01*
X125665019Y-88997596D01*
X125665019Y-87216596D01*
X125684704Y-87149557D01*
X125737508Y-87103802D01*
X125789019Y-87092596D01*
X133031019Y-87092596D01*
X133031019Y-78580596D01*
X133050704Y-78513557D01*
X133103508Y-78467802D01*
X133155019Y-78456596D01*
X134047019Y-78456596D01*
X134047019Y-72487596D01*
X131250019Y-72487596D01*
X131182980Y-72467911D01*
X131137225Y-72415107D01*
X131126019Y-72363596D01*
X131126019Y-66642596D01*
X131145704Y-66575557D01*
X131198508Y-66529802D01*
X131250019Y-66518596D01*
X136463019Y-66518596D01*
X136530058Y-66538281D01*
G37*
%TD.AperFunction*%
%TD*%
M02*
