%TF.GenerationSoftware,KiCad,Pcbnew,7.0.6-0*%
%TF.CreationDate,2023-08-27T14:09:03+10:00*%
%TF.ProjectId,u-nit,752d6e69-742e-46b6-9963-61645f706362,rev?*%
%TF.SameCoordinates,Original*%
%TF.FileFunction,Paste,Top*%
%TF.FilePolarity,Positive*%
%FSLAX46Y46*%
G04 Gerber Fmt 4.6, Leading zero omitted, Abs format (unit mm)*
G04 Created by KiCad (PCBNEW 7.0.6-0) date 2023-08-27 14:09:03*
%MOMM*%
%LPD*%
G01*
G04 APERTURE LIST*
G04 Aperture macros list*
%AMRoundRect*
0 Rectangle with rounded corners*
0 $1 Rounding radius*
0 $2 $3 $4 $5 $6 $7 $8 $9 X,Y pos of 4 corners*
0 Add a 4 corners polygon primitive as box body*
4,1,4,$2,$3,$4,$5,$6,$7,$8,$9,$2,$3,0*
0 Add four circle primitives for the rounded corners*
1,1,$1+$1,$2,$3*
1,1,$1+$1,$4,$5*
1,1,$1+$1,$6,$7*
1,1,$1+$1,$8,$9*
0 Add four rect primitives between the rounded corners*
20,1,$1+$1,$2,$3,$4,$5,0*
20,1,$1+$1,$4,$5,$6,$7,0*
20,1,$1+$1,$6,$7,$8,$9,0*
20,1,$1+$1,$8,$9,$2,$3,0*%
G04 Aperture macros list end*
%ADD10C,0.010000*%
%ADD11RoundRect,0.250000X-0.475000X0.250000X-0.475000X-0.250000X0.475000X-0.250000X0.475000X0.250000X0*%
%ADD12RoundRect,0.232500X-0.232500X0.232500X-0.232500X-0.232500X0.232500X-0.232500X0.232500X0.232500X0*%
%ADD13RoundRect,0.062500X-0.062500X0.375000X-0.062500X-0.375000X0.062500X-0.375000X0.062500X0.375000X0*%
%ADD14RoundRect,0.062500X-0.375000X0.062500X-0.375000X-0.062500X0.375000X-0.062500X0.375000X0.062500X0*%
%ADD15RoundRect,0.250000X0.475000X-0.250000X0.475000X0.250000X-0.475000X0.250000X-0.475000X-0.250000X0*%
%ADD16RoundRect,0.250000X-0.250000X-0.475000X0.250000X-0.475000X0.250000X0.475000X-0.250000X0.475000X0*%
%ADD17RoundRect,0.250000X0.250000X0.475000X-0.250000X0.475000X-0.250000X-0.475000X0.250000X-0.475000X0*%
%ADD18R,1.900000X5.100000*%
%ADD19RoundRect,0.250000X0.262500X0.450000X-0.262500X0.450000X-0.262500X-0.450000X0.262500X-0.450000X0*%
%ADD20RoundRect,0.150000X-0.150000X0.825000X-0.150000X-0.825000X0.150000X-0.825000X0.150000X0.825000X0*%
%ADD21RoundRect,0.250000X0.450000X-0.262500X0.450000X0.262500X-0.450000X0.262500X-0.450000X-0.262500X0*%
%ADD22R,0.915000X1.220000*%
%ADD23RoundRect,0.150000X0.150000X-0.587500X0.150000X0.587500X-0.150000X0.587500X-0.150000X-0.587500X0*%
%ADD24R,0.300000X0.850000*%
%ADD25RoundRect,0.250000X-0.262500X-0.450000X0.262500X-0.450000X0.262500X0.450000X-0.262500X0.450000X0*%
%ADD26R,4.241800X3.810000*%
%ADD27R,1.900000X1.100000*%
%ADD28RoundRect,0.150000X0.875000X0.150000X-0.875000X0.150000X-0.875000X-0.150000X0.875000X-0.150000X0*%
%ADD29R,2.100000X1.400000*%
%ADD30R,3.400000X1.300000*%
%ADD31R,1.200000X2.200000*%
%ADD32R,3.500000X2.200000*%
G04 APERTURE END LIST*
%TO.C,U3*%
D10*
X144268519Y-80192596D02*
X143143519Y-80192596D01*
X143143519Y-79667596D01*
X144268519Y-79667596D01*
X144268519Y-80192596D01*
G36*
X144268519Y-80192596D02*
G01*
X143143519Y-80192596D01*
X143143519Y-79667596D01*
X144268519Y-79667596D01*
X144268519Y-80192596D01*
G37*
X141968519Y-80192596D02*
X140843519Y-80192596D01*
X140843519Y-79667596D01*
X141968519Y-79667596D01*
X141968519Y-80192596D01*
G36*
X141968519Y-80192596D02*
G01*
X140843519Y-80192596D01*
X140843519Y-79667596D01*
X141968519Y-79667596D01*
X141968519Y-80192596D01*
G37*
X141968519Y-81142596D02*
X140843519Y-81142596D01*
X140843519Y-80617596D01*
X141968519Y-80617596D01*
X141968519Y-81142596D01*
G36*
X141968519Y-81142596D02*
G01*
X140843519Y-81142596D01*
X140843519Y-80617596D01*
X141968519Y-80617596D01*
X141968519Y-81142596D01*
G37*
X144268519Y-82092596D02*
X143143519Y-82092596D01*
X143143519Y-81567596D01*
X144268519Y-81567596D01*
X144268519Y-82092596D01*
G36*
X144268519Y-82092596D02*
G01*
X143143519Y-82092596D01*
X143143519Y-81567596D01*
X144268519Y-81567596D01*
X144268519Y-82092596D01*
G37*
X141968519Y-82092596D02*
X140843519Y-82092596D01*
X140843519Y-81567596D01*
X141968519Y-81567596D01*
X141968519Y-82092596D01*
G36*
X141968519Y-82092596D02*
G01*
X140843519Y-82092596D01*
X140843519Y-81567596D01*
X141968519Y-81567596D01*
X141968519Y-82092596D01*
G37*
%TD*%
D11*
%TO.C,C14*%
X145858019Y-79930096D03*
X145858019Y-81830096D03*
%TD*%
D12*
%TO.C,U2*%
X146343519Y-105658096D03*
X145193519Y-105658096D03*
X144043519Y-105658096D03*
X146343519Y-106808096D03*
X145193519Y-106808096D03*
X144043519Y-106808096D03*
X146343519Y-107958096D03*
X145193519Y-107958096D03*
X144043519Y-107958096D03*
D13*
X146943519Y-104370596D03*
X146443519Y-104370596D03*
X145943519Y-104370596D03*
X145443519Y-104370596D03*
X144943519Y-104370596D03*
X144443519Y-104370596D03*
X143943519Y-104370596D03*
X143443519Y-104370596D03*
D14*
X142756019Y-105058096D03*
X142756019Y-105558096D03*
X142756019Y-106058096D03*
X142756019Y-106558096D03*
X142756019Y-107058096D03*
X142756019Y-107558096D03*
X142756019Y-108058096D03*
X142756019Y-108558096D03*
D13*
X143443519Y-109245596D03*
X143943519Y-109245596D03*
X144443519Y-109245596D03*
X144943519Y-109245596D03*
X145443519Y-109245596D03*
X145943519Y-109245596D03*
X146443519Y-109245596D03*
X146943519Y-109245596D03*
D14*
X147631019Y-108558096D03*
X147631019Y-108058096D03*
X147631019Y-107558096D03*
X147631019Y-107058096D03*
X147631019Y-106558096D03*
X147631019Y-106058096D03*
X147631019Y-105558096D03*
X147631019Y-105058096D03*
%TD*%
D15*
%TO.C,C7*%
X140651019Y-111222596D03*
X140651019Y-109322596D03*
%TD*%
D16*
%TO.C,C10*%
X140967019Y-78025096D03*
X142867019Y-78025096D03*
%TD*%
D11*
%TO.C,C5*%
X150016019Y-101732596D03*
X150016019Y-103632596D03*
%TD*%
D16*
%TO.C,C12*%
X144969019Y-97644096D03*
X146869019Y-97644096D03*
%TD*%
D17*
%TO.C,C2*%
X135063019Y-77009096D03*
X133163019Y-77009096D03*
%TD*%
D18*
%TO.C,L1*%
X138551019Y-70974096D03*
X142751019Y-70974096D03*
%TD*%
D19*
%TO.C,R1*%
X156676519Y-122271596D03*
X154851519Y-122271596D03*
%TD*%
%TO.C,R4*%
X146620019Y-125954596D03*
X144795019Y-125954596D03*
%TD*%
D11*
%TO.C,C13*%
X140778019Y-123491096D03*
X140778019Y-125391096D03*
%TD*%
D20*
%TO.C,U4*%
X146554019Y-118475096D03*
X145284019Y-118475096D03*
X144014019Y-118475096D03*
X142744019Y-118475096D03*
X142744019Y-123425096D03*
X144014019Y-123425096D03*
X145284019Y-123425096D03*
X146554019Y-123425096D03*
%TD*%
D21*
%TO.C,FB1*%
X149541019Y-81769096D03*
X149541019Y-79944096D03*
%TD*%
D22*
%TO.C,D1*%
X125956019Y-73768096D03*
X129231019Y-73768096D03*
%TD*%
D23*
%TO.C,Q2*%
X152970019Y-83917596D03*
X154870019Y-83917596D03*
X153920019Y-82042596D03*
%TD*%
D19*
%TO.C,R3*%
X156319019Y-103348596D03*
X154494019Y-103348596D03*
%TD*%
%TO.C,R2*%
X132824019Y-73768096D03*
X130999019Y-73768096D03*
%TD*%
D24*
%TO.C,U1*%
X137357019Y-77324096D03*
X137857019Y-77324096D03*
X138357019Y-77324096D03*
X138857019Y-77324096D03*
X138857019Y-75424096D03*
X138357019Y-75424096D03*
X137857019Y-75424096D03*
X137357019Y-75424096D03*
%TD*%
D25*
%TO.C,R5*%
X142429019Y-85060596D03*
X144254019Y-85060596D03*
%TD*%
D26*
%TO.C,F1*%
X134059719Y-69704096D03*
X127684319Y-69704096D03*
%TD*%
D27*
%TO.C,Y1*%
X151253019Y-99276596D03*
X151253019Y-96776596D03*
%TD*%
D11*
%TO.C,C6*%
X148774019Y-97390096D03*
X148774019Y-99290096D03*
%TD*%
D16*
%TO.C,C8*%
X140967019Y-75739096D03*
X142867019Y-75739096D03*
%TD*%
D28*
%TO.C,U5*%
X133363019Y-109571596D03*
X133363019Y-108301596D03*
X133363019Y-107031596D03*
X133363019Y-105761596D03*
X133363019Y-104491596D03*
X133363019Y-103221596D03*
X133363019Y-101951596D03*
X133363019Y-100681596D03*
X133363019Y-99411596D03*
X133363019Y-98141596D03*
X124063019Y-98141596D03*
X124063019Y-99411596D03*
X124063019Y-100681596D03*
X124063019Y-101951596D03*
X124063019Y-103221596D03*
X124063019Y-104491596D03*
X124063019Y-105761596D03*
X124063019Y-107031596D03*
X124063019Y-108301596D03*
X124063019Y-109571596D03*
%TD*%
D21*
%TO.C,R6*%
X154748019Y-78122596D03*
X154748019Y-76297596D03*
%TD*%
D29*
%TO.C,S1*%
X160391519Y-127315596D03*
X169491519Y-127315596D03*
X160391519Y-122815596D03*
X169491519Y-122815596D03*
%TD*%
D11*
%TO.C,C3*%
X137730019Y-79295096D03*
X137730019Y-81195096D03*
%TD*%
D16*
%TO.C,C11*%
X144969019Y-99803096D03*
X146869019Y-99803096D03*
%TD*%
D30*
%TO.C,LS1*%
X161098019Y-75122596D03*
X161098019Y-83822596D03*
%TD*%
D11*
%TO.C,C9*%
X152154019Y-101708096D03*
X152154019Y-103608096D03*
%TD*%
D17*
%TO.C,C1*%
X160397019Y-120250096D03*
X158497019Y-120250096D03*
%TD*%
D15*
%TO.C,C15*%
X140651019Y-121062596D03*
X140651019Y-119162596D03*
%TD*%
%TO.C,C4*%
X153727019Y-99229096D03*
X153727019Y-97329096D03*
%TD*%
D31*
%TO.C,Q1*%
X130632019Y-77018096D03*
X128332019Y-77018096D03*
X126032019Y-77018096D03*
D32*
X128332019Y-83218096D03*
%TD*%
M02*
